<mxfile host="app.diagrams.net" modified="2022-05-17T13:24:50.952Z" agent="5.0 (Windows NT 10.0; Win64; x64) AppleWebKit/537.36 (KHTML, like Gecko) Chrome/101.0.4951.54 Safari/537.36" etag="Siau0XzmQ_cGKGDRWdfV" version="17.5.1" type="github">
  <diagram id="Sff28kkOkG1TScJACPK_" name="Page-1">
    <mxGraphModel dx="981" dy="569" grid="1" gridSize="10" guides="1" tooltips="1" connect="1" arrows="1" fold="1" page="1" pageScale="1" pageWidth="827" pageHeight="1169" math="0" shadow="0">
      <root>
        <mxCell id="0" />
        <mxCell id="1" parent="0" />
        <mxCell id="1oM3fDYYuMg9m5w1nJq4-3" style="edgeStyle=orthogonalEdgeStyle;rounded=0;orthogonalLoop=1;jettySize=auto;html=1;exitX=1;exitY=0.5;exitDx=0;exitDy=0;entryX=0;entryY=0.5;entryDx=0;entryDy=0;strokeWidth=2;" parent="1" source="1oM3fDYYuMg9m5w1nJq4-4" target="1oM3fDYYuMg9m5w1nJq4-6" edge="1">
          <mxGeometry relative="1" as="geometry" />
        </mxCell>
        <mxCell id="1oM3fDYYuMg9m5w1nJq4-4" value="" style="shape=image;verticalLabelPosition=bottom;labelBackgroundColor=default;verticalAlign=top;aspect=fixed;imageAspect=0;image=data:image/png,iVBORw0KGgoAAAANSUhEUgAAAOYAAACWCAYAAADKSPR6AAAKNElEQVR4nO3df0zU9x3H8Sf0zjvgxFOgAqsOIuJovERUGq/RVV0kqUGT2qyLLjXpXDWttYm1tUnt1mbrfvTnkrpuQWeXlKz9w6zLhrWJJrQLi5hRpSlNWYHkWLVCJ46DHnJwJ7c/7lDQquiQ77v19UhIvLvv3edzlzz5fu9zX860PTtfTDz3yq/5LH6GydTOs5M6nsjXwmwfiefvJG22Kycx2VGCwhS5rNk+0p2IUkSu4LMI6U7PQUQupTBFDFKYIgYpTBGDFKaIQQpTxCCFKWLQFcL8A58kEiQu/okN0Fn/WzaUJLfaUddDIpHgk9cnYjpBCnueYU7iop/YLorqV+NLjcnrW5mTeJLC7RMxZpK/7knmJLaSN3EP+X9KvRYta52eiDjAdfVNonR9HKIndWl6SRn5S7eyb3+UhvLHb8yswicJP/pPBgFum4VvdRmZSyu4tSbKYLCO2I0ZVcSMcRzKhngncDu3p34KAq/RFAfvgtXsumHTinGupplITTORXx2ka9k+vvwXpM0vZuoNG1PEjnHsMS/SHqInAvjHXj09cITOWJB8FxAOUbf3Eb638+CETBLCDEcBn5dbvurmkgpmvvVdshb4SHMB8ShDtUf4z7r65F6XtcxKlONq7+Jcfj5uX2qbt+ro2tg4ag/sxVO/gzlLfQAMd4Toe/QNztSO3D6XnLrVZC/zk+4ColGG9o99DPdD65j5VBme21IvbXc3/a/+ma6fdwHJQ+acFXEG/wGepT6Id9Hrrqa7pIKZf1lJ1ne8pLkg0dFFfIJePfn6ucbFn3I2vbGJO/1AJExo1C35i4N4T7bQ0hEGfzErn9jHOw9MxBTzyX51E9kLgPZOIpfc7idnfyW+xV6Gj7bQu7uR/qNx3PesZOabxWO2TC/xk6hvom9vG0MRL1Pur+TWn4zewodnfpSzuxvpfbcbiorx79lAdmqcGQ334V/hI3G0hb69TZxthyn3r6bgjbnJu5dUMvOVAJ7cKNH9jfTubiEa9ZP1sx8wc9XYcaYUhenf3Ujv3o/ox8+Mmkp8810MH22hb28zg65c3Bf98pObxzj2mGVsSiTYNOa6ME17n+YXwI6Rqz58jYXljxCimOcaPmHXknzuXL8V/vjatc/KX0xO4hlyRl/XdZLwY28z8BWbn/1dA+nlA0Qebkjd3kNhTyUZ5QEY9esjcbSRE6vrkhfaNlL8QjHuigDQnNoizuDeP9G5MwzAufpdzFg6C9826Nt9B5mLXfBhI58vO5jaQ56goHMtmXcHmUYbvbTR9xsvU3qa6X4xNe6J5DhT1gOHL7x+Z3+0j67zlyvJWeyC9ma+WJZ6jqvuY/ahMtzX/urJN8A1Lv5E6Ww5wsHfv8zL74XGbBVqezuVQIinW0LsWlKGf1b59c1q9OIPQPg0kdquy21MPOLF8/0g2Q9Vjr3porskBkZlnTpOTPP5Rm0RIbYnfP5ST1uYGUtzuSUAbM/H7YLhnp5Rh75NDHasJnPJVKYAtPcw7C9g6vZypr1wpScY59zhURfvz8XlguETnRd+8Rw+QTysMG9W4wgzufjz4xs/l1FSiz/j2jZI3u8q8HgjRGuaiBw+zTkKmPZqEO9ETmk8b/i2ryXvoXzSTp4kUvMR/S1RCNxB3hO3TeRM5CYwYScYFM9dx8g7ul1zk/8Kn2iaqIe/gjxu8cNwwxE+31hHb00zkQYXab6r3/NSPtybL7yx8xf5gAjxemB3F7E4pE+fPmovVo6nyAXdXzIEEJhKOlGir+zji6caidQ0M+h1Xf1FrukmHof0WQVkjFy3ahYuvce8aV37quzlLNjK8dBKOimgrMgLhKjbfR3vL69ZlEQU0oN3ULhnOkP48a4pxnNdz8yF58EfUuANESspZuoKL7Q3E64BOETkvXI8q8r5Vr2P/pYormAZmfkQ299AL0B3nARevA9vJK+4G0pmkbUifxzjHqL/aAWepWXMrF9HpAk898zVYexNbML2mF0f1NGTX0ZZkR/CIQ7+9F7urb36/b5SHBLj3vgQp3/ZRizqJ+PBCqY9UIyr/QSD4avf81IRBj/2krmtgml350JHG/9df2HBKVz5NuH3IqQtKSP7wXIyS2Co5iCd97UlN9j5V3reDZMoKiZ7WwXZy3zE6rsYHsfIPQ/8jd4P4qQvCTBtWwBPvJvYdT0H+SZI41oamED6zh+Ry9NJ7CIGKUwRgxSmiEEKU8QghSlikMIUMUhhihikMEUMcumDfhF7tMcUMUhhihikMEUMUpgiBilMEYMUpohBClPEIIUpYpDCFDFIYYoYpDBFDFKYIgYpTBGDFKaIQQpTxCCFKWKQwhQxSGGKGKQwRQxSmCIGKUwRgxSmiEEKU8QghSlikMIUMUhhihikMEUMcjk9AbnAt34+WWtKcZfmTvrYsdZu+mtbibz18aSPLZdSmEb4NgTwPxZ0bHx3aS7+HbmQlkbkzWbH5iFJCtOIrKq5AJw90Ep/7aeTP/6aeWRWlZJVNVdhGqAwjRg5fO2v/ZTBY52OzCGzypnDaLmUFn9EDFKYIgbpUNaIweOn8CwsxL8jyMD7/5708TOWf/v8PMR5CtOIvupj5FUX4i7NdfR9Xl/1McfGlgvS2nk24fQkJMldmpP8HHNezqSPHfv0DP21rcRaz0z62HIphSlikBZ/RAxSmCIGKUwRg7Qqa4hnUQHZmxc5Nn7fnmOOnXUkYylMIzKWF5HzUqWjc8irLuTM44cYeL/D0XmIwjQje/NCAAb+3uHISeS+DQEy7ioie/NChWmAwjRi5KSCyJvNjh1OZtxVpJPYjdDij4hBClPEIB3KGhFrPYO7NAff+gA4cC6Wb33g/DzEeQrTiL49x8h5qZKM5UVkLC9ydB7iPB3KGjHwfgent9QyePwUw5GhSR17ODLE4PFTnN5SqxVZI3QSu4hB2mOKGKQwRQxSmCIGaVXWEHdpDllVDn6DwQF9g4EVWvwxwrOogLzqNU5PI7kyrL8wcZz2mEZkb0n+uVes9YwjH1lkLC/CXZpD9pZFnN58YNLHl7EUphGehYUAhF8+4sgea/DYKfKq15yfhzhLiz8iBilMEYN0KGvEyEnsmVWljpzEnllVen4e4jyFaUT/gVb8jwXJWjOPrDXzHJ2HOE9hGjHydSJZVaW4Sx34HLM1+Tmm/m9MG/Q5pohBWvwRMUhhihikMEUMUpgiBilMEYMUpohBClPEIIUpYpDCFDFIYYoYpDBFDFKYIgYpTBGDFKaIQQpTxCCFKWKQwhQxSGGKGKQwRQxSmCIGKUwRgxSmiEEKU8QghSlikMIUMUhhihikMEUMUpgiBilMEYMUpohBClPEIIUpYpDCFDFIYYoYpDBFDFKYIgYpTBGDFKaIQQpTxCCFKWKQwhQxSGGKGKQwRQxSmCIGKUwRgxSmiEEKU8QghSlikMIUMUhhihikMEUMUpgiBilMEYMUpohB6cz2OT0HERltto/04eeDKE4RI2b7GH4+yP8AK2n+NOuKJO0AAAAASUVORK5CYII=;" parent="1" vertex="1">
          <mxGeometry x="230" y="139.2" width="143.33" height="93.48" as="geometry" />
        </mxCell>
        <mxCell id="H21GpFEVwCO9OEEZ7Sbb-2" style="edgeStyle=orthogonalEdgeStyle;rounded=0;orthogonalLoop=1;jettySize=auto;html=1;exitX=1;exitY=0.5;exitDx=0;exitDy=0;entryX=1;entryY=0.5;entryDx=0;entryDy=0;strokeWidth=2;" edge="1" parent="1" source="1oM3fDYYuMg9m5w1nJq4-6" target="1oM3fDYYuMg9m5w1nJq4-8">
          <mxGeometry relative="1" as="geometry" />
        </mxCell>
        <mxCell id="1oM3fDYYuMg9m5w1nJq4-6" value="" style="shape=image;verticalLabelPosition=bottom;labelBackgroundColor=default;verticalAlign=top;aspect=fixed;imageAspect=0;image=data:image/png,iVBORw0KGgoAAAANSUhEUgAAAOYAAACWCAYAAADKSPR6AAAPkElEQVR4nO3db1AUZ4LH8a8ywgADDP9BcYUFDTDZCIkRKslFTeJ6Rqs2t1LRCnV1MXlhUsnd5Spu8sKYuiTuVZkzd9lsUhurNjFXdVxFi2yZOvTK1cSYXLbE9VaSOIARA8ZBQEEGGGFAcO7FDMgfFZBBn7F+nypLuufp7qcbfvTTTz/dzPjX9zb7tv7LNlobe7iZthy846ZuTyQU2CzpLI7/J2YkzYn03exQgoIpci02Szozb0UoReTaPP1NzLzVlRCRsRRMEQMpmCIGUjBFDKRgihhIwRQxkIIpYqBrBvPFz9vx+XxUfzjqgw+r8fl8tH/+4jRUZz2lD9SyafGWMZ+sWlzLpgc+omgatmqiooIjbFq6h1W3uiJyS+iMKWIgBVPEQJapruC5P7bz7nI73roamtLyyLIBnno+/93zPPzS3iBU8dpysj9iRXoxdgvg68XbvZ9DxzdytAdgCxuWlmBzb+Wtqh2BJUbPC0xfrMJjLSApDDxtr/Cbuggeu/MfuSMqFssMwNdJa/snfPbtVurG1GIJj9z1Egvjs7HO8NfD01nOgdo3cA6vR0813vB87GGB9Z37DTtrynADkMGivO0sSc7GOhMYcNHcd50dz93DprRsPBdPYYkKbPfSKZz1G9h91gX4m8KP2Pto7oC0uCTwVXP00C/ZxxIeKdjMwrgM/3KXO2k9P7wuQOR61vzsWXKjYgHweqvxWvKx95Xz6yOvXPu4fVdO2rzf8ouM5STN8q/K21vF8VMb2XfONfZ7BvT3VnPi9D/46x1ZOonjfnub8hnTGjjA1pw84ltrqKltxmvL4qFffcCe9VNd+7XZsz5mzdxibANV1DaVU9XugujVrLhrGzmTXJc1+qfQUc7RxnK+OV/O/bkv4YgGd7t/Xm1nH/aE9azILx6zbMHPfk1RQjZ0H6KqsYyqdheWuFJW5z4zchuRGfR3lFPVdIjWgViSUl/isXmD+7KNh1OzsVzy74vTYyUpMnbcetuik3G3llPVdBh3WDaOnHd4JHJ4iSSSrC5qG8s42vTfnCCDpXe/Q5E9mf7O/VQ1lVPXA0mpmynNWxJYpphVd75AblQEno4KjjZW0DYjeyhI1ztupG1nbdZy7Jer/Ns8X0X/rAIWLdji7xuI38aKwe9ZYxlHWw7hDsvHkb2N+2FSx/12N+4ZM2+9D99EAtbwB0qz1rAXeHpvE79fmcZ9f/si7Hhr8rWKKmHT0pKx8/uvfLkosQCLr5qjVevYFxiH33jX/7Iq4UGK5kBd48Q319/5X2z/9u2h6VVzI2DgFKdOvsKBHoASluYVE+EZu2zz2f/kaL+Vlpq3qQIgg1lFB3BEF1PE+1RebRvdH/FidjFxsauBCv++4MJZu47d7QDFrCn+iFzr9evtufAmHzjLAbD3/4ENc/PJnpfBgVpXoISLutp1fNI+uMTLPBwTAZ4y/uPYG4EzZBVr79tCTsJ6FnGIo5ElZEaPKuPaxnNFq7GPc9wWLSzEhgtn1Tp2B74nlXkHeC41n5w5UEkSVsDb9Ts+OXkIgMy5mymwdXERmGOZ+HG/3Y0bTK+rhnr3sBn2LPIyxv7EuOv/xGDD9YOD1WxbmYY9Pe/GatWzn90N+0bMys3cRu6swan1pFqBgU7cwx6OqepysSKhAFvM5DbXf7ljxPTXzYfIzFpC0eJvWNhbg6ttH5UNG2m4yoM4zX2wJO4JFi19ZmQPav/IciO24fP/ZwlLBlaTGA70u2gaCtBhXN7OcYPp7Ssf+tp99gc8c/OxWZcDg033XrztwxbIyMM+A7z9rivNVspp8W4mJzaZVIBEf3jcPfuvlOlx4u6/SjBHHbfU8FggFkdRLY5RZW024MQOjqflsyhpO5seaKXVc5gTzR+wu6YGgIZJHPfb3bjBrN+fT/5Tw2Z8WI1v/Q0GbqJ8HThbKkbMypy3bdhUn/+He8b0bN59ZgPvtRZTkF6CI7GYzNkvk5P+NHX169h5xjWsZDGr8l4gx9pJ64Uyjrccw83oXyIG8U2i7GXX+GVG6fUBuKiteZva0Z91Axxi3/8t5pvEZ1g4Zyk5Mau5P3c192SU8enRN6ib8HG//QWtV9aedR+PBr5+elk+dsDrbg7W6kcpo6UXCIvFPuyaqiAmAwudeLquzLNaUq5MpCUzzkkIgPvv3MOGnGIafthI2Z8fYOuRCtwzk8hJLR1VMg97OND9R7Z/+wZft1TgbLFiCZvMvlTQ1gdYMkiPH5xXTIZ1/GtMa/iV5r4946f+Y36p5toLNNbg9oHVkjHs7FdCqjUCLp2nBeBiF17AFlV6pUyk46rXmKM19bYCViwzKnC2BP51wixfFXVdQOoWnrz3Y+6Z9T77vl3He1/ncsDdidW2gntSJ3Pcb39T7pUdkvlLyuqrafLGk5WbBrj5065Xgrb60Q40H2ZhTjEFBR9ju1CHN6KQ3IQk8O6nshHgMK29JSTZ1rDhrnAaelJITyrGBnjHWXdkRAZJMespLcymznMOm82/nKfv1KiS5/EOAFE/52lHL66+FJISisgMZ0xT9rr7cr6Ke2wF3JH7MY+1OsG2gpwJ/AaxJbzE044CmvszyEzNh8unaDh7+DpLbOW4ew1p8SX8XWEKdd0d2GJ/Tk44uM/v4ChAexmNPctxxDxBaWEydR5IT1o+phl7NU7XFzwQX0JOzh7Wxh/DczmZjOQlJIWdYk7vKvYQR1x0AXNy9mCLO4ybDDJtseCrxt0JkRkTPe63v6AF0113jPa0QvKG3y7592Ct/SpcT/JphL/rPTe9wH+75GIF+45vDHStV/DJ9w5K5z9BZkIpSYCnoxpPRP64O32g+k1s+c+SHbucRXGArxNPRxkHTpaPKlnBZ6cKsc8vIS25lDTA272fxp7lzJlMU/b0Rioi3uGv0wpwzCnw3y7p6SQt8vqLeTwu7EklpAVul9T+uIE97ddfpvKbXxFTsJmFccspiMN/u6TlDXbWHAqUOMzu6rcJy3uK3LjVLIqD/u4qWvsLSBpvP9pfYWedlbVZy8lJzQag/9IpnCc3sKcD6Ph79ti283BaMTnppUOf1zZs8nfgTfi43/5mMLkrjzFe/LydbcvsuA9uJP6hiffA6p0/UxC4j9nanMv20Rdz0yH+tzy3cDm2zvfZ+pe3xy8vUxa8pqzcXhJLuT86GXt0HhmJS7DTScM5hfJmmXIwvYPXUv3jXblJ0E2prTOO5CdYmja8ObqR3ZO4NyxTM+Wm7I1SU1bk2jSIXcRACqaIgRRMEQMpmCIGUjBFDGRR76iIeXTGFDGQgiliIAVTxEAKpoiBFEwRAymYIgZSMEUMpGCKGEjBFDGQgiliIAVTxEAKpoiBFEwRAymYIgZSMEUMpGCKGEjBFDGQgiliIAVTxEAKpoiBFEwRAymYIgZSMEUMpGCKGEjBFDGQgiliIAVTxEBT/lPvYobEqCxyEpeSGJlJQlQW4WHRAHj6znGhu4GmruOcdv8ZT9+5W1xTmYgZWw7ecUv+1LsExzz7YormrscWnjKh8s1dx6l0fURbd/0010ymQsEMUeFh0TyY+Tw/sS8emnehp4HT7iNc6K6nb+DiULmEqCzmJy7DFp48VPbY2Z0ca9p10+stE6NghqDwsGgeveM1EiKzAPjRfYRjTbvGPQumxzgonL2WNJtjaLkvG94dCrGYI+yhJ5P++VZXQiZueCgvDXTzRf2/caxpFz2X3ENlCmevJSIsmg5v44hlPX3nOdl2kL6BbjLiComzzsFuncMP7V/f7N2QcahXNsQ8kvPyUCj3fv8qp91HRnyeHuOgMP1xiuauv+Y6nOcq+KrhXQB+Yl9M8dynprXOMnkKZghxpKweaobu/f7V6zZdx+sMOtl2kMozOwDIT1lFYlRW8CoqU6ZghpC7Z68FmND15EQ4z1XQ7HECUJj++JTXJ8GjYIaI+YnLmBUWxaWBbpwtFUFb77GzOwF/k3ait1xk+imYIWJe4LbIaXdlUHtRm7qcePrOj9iG3HoKZohIj7kTYExnTzCcbDsY2IYj6OuWG6NghgBbeAqzwqIA/xku2Dy9/mF6CVGZQV+33BgFMwTERFwZsTMdgwEGx8/qGtMcGsR+G3t0wWtj5n3Z8J4GsocABTME9A1031DZtMB16XARlmg8fSPnDT6JcmkS25HppWCGgOH3LNNjHNe9zmzrrufTmo2EB65Jh+sb6L7q/c+EwOCCth49cWIKBTNENHucpNkcpMXcOW4H0GQHHwzeJpmOjiW5Mer8CRGn2/23SeYnLg3qem3hKSRE+ntjf5yGWzFyYxTMEDF4r9EWnhLU+43FgcHuzR6nHp42iIJpAFt4yriDyPsGLvJVw7v86D5CW3dDULY7z7546EHrYA7zk6nTNaYB/ib/LWaFRbHru2eveyvjZNvBoTPnVCVGZfFXmc8D/ibsdIwokhunM6YBBkf1DB9IMJ3SYxysXPAa4WHRXOhp4MvAs5liDp0xDbJywevX/fxCTz2VZ3bccO9peFg0hbMfx5GyOrC+BvaeeFWvFjGQghlCEiKzWLngdarP7eHwmQ8nvNzgqy3nJy4bGkzQ7HFyoG6rQmkoBdMg//P9q9c8G6bHOHCkrOYn9sXkp6wKvCd2/OvCxKgsfpG3bWj60kA3fzm7E+c5dfaYTMEMEU1dTpq6nDyY+Tw5icsonP34hILZ1XuOZo+Tvv6LnA508ugsaT4F03CD748dHGIXbvE3RRMis646SL1voJvT7kpOtn0RmL7I3hOv3rwKS1AomIZLjMoc8VLn4a42SB38rwkpnL2Wz069qUEDIUrBNFxTl5OvGt7FFjGxZyUjwqIDb11PYeWC19j13bNquoYgBTMETHZQwcm2gzy64HXCw6K5e/baSfXgihkUTIMkRGYSrL9X8X3b54Fe3HsVzBCkYBqkaBreiK7XhYQmBdMgF3oagn49eCFIA97l5lIwDVJ55kM9rCyAgmmECz0NhIdFB+1xLgl9+vuYIgbSY18iBlIwRQykYIoYSMEUMZCCKWIgBVPEQAqmiIEUTBEDKZgiBlIwRQykYIoYSMEUMZCCKWIgBVPEQAqmiIEUTBEDKZgiBlIwRQykYIoYSMEUMZCCKWIgBVPEQAqmiIEUTBEDKZgiBlIwRQykYIoYSMEUMZCCKWIgBVPEQAqmiIEUTBEDKZgiBlIwRQykYIoYSMEUMZCCKWIgBVPEQAqmiIEUTBEDKZgiBlIwRQykYIoYSMEUMZCCKWIgBVPEQAqmiIEUTBEDKZgiBlIwRQykYIoYSMEUMZCCKWIgBVPEQDNtlvRbXQcRGcZmSWfmvfEvoHCKmMFmSefe+Bf4fxpHYThB8XLeAAAAAElFTkSuQmCC;" parent="1" vertex="1">
          <mxGeometry x="409.11" y="140" width="140.89" height="91.88" as="geometry" />
        </mxCell>
        <mxCell id="H21GpFEVwCO9OEEZ7Sbb-3" style="edgeStyle=orthogonalEdgeStyle;rounded=0;orthogonalLoop=1;jettySize=auto;html=1;exitX=0;exitY=0.5;exitDx=0;exitDy=0;strokeWidth=2;" edge="1" parent="1" source="1oM3fDYYuMg9m5w1nJq4-8" target="1oM3fDYYuMg9m5w1nJq4-9">
          <mxGeometry relative="1" as="geometry" />
        </mxCell>
        <mxCell id="1oM3fDYYuMg9m5w1nJq4-8" value="" style="shape=image;verticalLabelPosition=bottom;labelBackgroundColor=default;verticalAlign=top;aspect=fixed;imageAspect=0;image=data:image/png,iVBORw0KGgoAAAANSUhEUgAAAOYAAACYCAYAAADwQpUKAAAOw0lEQVR4nO3dfUzUd4LH8TfOOAwy4MDwKCiDQhWwJzYW7LWeutVtqvTOqLduNNnT9jbeRdvtVVP/2F4vu/Uu243Nudve7TW5Vi9Z2rrpg82BSaP18ZpFtg/cVhwroFhBHkdHQRgGRu4PhikosvRA+WI/r4Q483v8Dvrx+/D7/n4TUXepobetzcskJiMi4+sG3cTEuLC+/cG/8/K/7KK1vvOuFmDnkdl39XwiE4HDmkpB9z8QkZAW1Xu3QwkKpsjtOKypTBqPUIrI7bX3NDBpvAshIrdSMEUMpGCKGEjBFDGQgiliIAVTxEAKpoiBrMOt3Hb4CruWOm+/wZk3iMj52zEszk42L1lLwm3X11BxdCWt88pZFhdJ/cV57K0Zw9N/K31ldfhe5pWKPeNVCLlHDRvMLyo+x5OY2vfGmUlOuh1az+Np9Pctqzo/xsUp5mNPGZEA5PFg9ibSug+yv/aj0Po2vEBGbwBCW9379B/Ad9GwwTz83KPk9r958zS9m3Lwfflv5H7vlTtUHA/VTZ7Q60Tys4Heq1Q2lQzaqvGPj3DyDpVAxATDBnNEsrZQ/MFOVs9xYrcCPT7On3iDrd/bzoHRl29IC+aV81gc1FYXUFwHhfnlLHMGaGyzkRITC0CP/xhHz50ja+Z63Pa+2tXfVsyHn71Edeg4KRmv8lfpy0kI3Vjj76rgVM12PmquA9JZkPM6ixNnYQ/1xP0dx/jfms0c8g4oTOQTbFm0A6cF6L1Ga/Ov2OcpxgdAOnn37WJZcj4OC9Dbhb/zOGWep/mkLbR/zN+xJudJ5kzpKzc9rdQ3/4L9Z0vwpe9lW9ZC7ADOHfx0yQ78/TWnawcbstfgtof2C7bS2Pob3gufWyayUQ/+7Hp7F+vnOqHVg+eUh/PtTjKXbqP48LaxKN+QLBFDLU0gwXqaioZ3OdN2Dat9MctyN5HQfZyKhnep7ezCHrOBR+ek922e8jrrMpfjvFHBmfpiPm2poGdyPgvu20khQMYuHk2eBZ3HqKgvpqKlgh77YgqzduEecFZ7VDo9V9+louEYrcFYEpKfZ1VG3zpn1q8pmpaP1R86xpU6mLKcJTk7Q8dYy7r7n2WOPUB9SzGf1h+kPhhD2rQXWZkOeP+DUs9BfID/2h72e7ZTWnsQWMiqrE24bf37lVDtt5Ey4NwysY2yxnyIVKcdaOTAc7mseRvI2knpB6vJ9NnHonzfQh3VZzdSegWghg2P7MBNGWWfPd3X7I2bypZ5y3HYlwN7WJA8Hwd1VFb8kP2hefwncw6xJTmXrDQ4aY/BShetl1+itKYOgPyZu3BbKwedtefaW7z+x919bzr2sm3WQqbGFgElPByXi7WnjKN/2Bxuerfml7PMOZ88oDatiHQb+Jp+yF5PXehj7GJLYREprg1QV8yZziIW5wA3mgc06RcTbQW6v+B/KkMtgLhNPJaSR1fXHfjVyl03ymD+njf++/esePohVr/Vy5VfevB8eZj3nlnJK0fGemDoT+nCf+WmRYG6b/qiV67SM2BVsi0WiCWv8Ax5N+3mcABfv0t13LNkTT/EjpQ6mtqO4fl6N/t9dYO27blx9Zs3vX1/WC2JwAacNsC6kGVLzrDspnM40wBHInbAnnyInybftIEtZ5jPWszJ5jWkTFvOusXltHec5oK3hDLPdhqH2UsmjlH3MQ8/9+fEvfUUO59Zz+qlD/DQ41t46PGneGrPGnKfvFO9zNHr6gWo44xnN2duXtcBdO5hX9lB3KlryU9eTsbUDSzLX8tC727+68s9I+jHXaWnF+ip4GTVb2kYfAauXwOi+qo3X8t2jrbetHvP8NeBqqtW80rjYh5OWU+2az55MxaSN209n3pW85F32F1lAhhlH3M9/3niNKf3rKDzR4+SOz2OiPXv04idnCe2sWVsynhHNHS1AnasESVUNoV+rsHk3gqq24CMV9n84D/i9u1mf8VKfnViGZWdkTjin2DBiM5QgjcAWGxYrg04R4+dyR0Hqe0E2lpoB6wW+zfrmyogAuq9nmGOXcTK+aVsTEvkk6rN7C0r4J9ryvBbc5kzrWjUvxsZf6NuyvocmeTMzWHnlXNsqPNjT88hBaDOc8dGZcdCZd1RHolbS1ZWKevivqD9RiLpiYtJsNSQ1rWSUmsazuhcCue9g8tbSbstj4xIoLuFmyu32znUWMa8rIXk57+D43I1fmsWblc+zmARkZ9s5GTTHqpnLCQ//nk2/9lC6rr8OGK/T1Z0LK1T63j9qwqgla4gJDieYNXMAKdaiqluA7t9Fmmxz7PZlk9tJzidudiBRn/FnfulyV0zymCeZ/tfbyf17RdYkZ9Jzlygx4/v1Pu88OOt3KleZrB3DA5y5QX2VdtZl7mcrORZAPR011BZtZnSq8DVZ/jY9mseduUzJy0f6Luc8mnNS4z4n37dRj6M3MtjqQuZkxo6hr+Mk1UbQ33fMkpP/ZLJc3/C7LgiEiKAG9dobXqJfV/1n2U3nitFuFy55M3IJdlWTPWZEt47m8e6WWtwx61lQXxov9bdlFbVDVkUmVgiCA9Z3F165o/I7WkSu4iBFEwRAymYIgZSMEUMpGCKGEjBFDGQgiliIAVTxEBWXegXMY9qTBEDKZgiBlIwRQykYIoYSMEUMZCCKWIgBVPEQAqmiIEUTBEDKZgiBlIwRQykYIoYSMEUMZCCKWIgBVPEQAqmiIEUTBEDKZgiBlIwRQykYIoYSMEUMZCCKWIgBVPEQAqmiIEUTBEDKZgiBlIwRQxkHe8CyLeX7VpChrOQGc4CANoDzVzwlVPZVEp7oHmcSydjIWLnkdm9410IGRmbJZoVs39GfFTmkOsDweucvLiHKu+Ru1wyGWuqMSeIm0NZ7T3CBV85geB1UmLmku1aisOWyCL3VgLB61zwlY9ziWU0FMwJIi+5iPioTLqDHRyq+QUNbZXhdQ1tlVQ2lfAX7q3McBawyL2Vhi//nkDw+jiWWEZDgz8TRF7SSgA+v7QvHMq5yX/JQzN+TGxkKoHgdY7XvkZ3sAObJZps19LxLK6MkmpMg9gs0WQ4H8RhSxq03BGZhM0SDRDuP86Me5iC9L8BIC5qOge+ejHUhD1Jlmsp2QlLsFmmDDpOIHidxvbTeDvO34VPI6OhYBrCYUtixeyf3RLKgdoDLeHmaUSEJbx8UsQ3f43ejlqyXBAflXnbQaITta9pgMhwCqYhFk7fhMOWRHewA2/n0DVaZVNJ+HXN5eNMtacSG5nKl00fhpdXeY/gmuLGEXlrwG2WaOKj3H190LZKXVoxmIJpiJSYPACO17464hHVzy/tu2VZf1/zdlblvkJ8lJvUmDyqvAqmqTT4Y4j+PuSdHkntP/5QNaqYQ8EUMZCCKWIgBfM75nJHLQCNbafGuSQyHA3+fMeUXXyTzy/t06wgwymYhou0Olic+RPSYvNpbv/qlvWJ0dnUX6vg6Ll/pfuGf0THVCjNp2AaLsNZSHrsAwAkO3KG3Gb61AXMcBZQc/n4EPsXEB/lxmaNxmaJpr2rOXSb2B8UUIMpmIY72/oxvb29TLZE3nabQLDzllDOn7aOvKSV4cswN1tE32SELy79ThMNDKRgTgBV3sMj3tZhS2JZ1vODpuM1tleGJ767otykxsxlsmUK2a6lZDgLOFH7mm4TM4yCeQ9x2JJYlbsLmyWa7mAHp5pLqGwqGbLJmuEsoHD6kzhsiTw6a4fmzxpGwZwApsXcj2WSbdCyq/5LXOtqGLRsWdaOcCgPnH1x2LtILvjKaWirDN/DWTh9E5c7a3XniSEUTMPNjHuYJTOfG3Ldbyt+FK4N509bR3yU+7ahnD9tHa4oN8drXwvv0z+vdsXsnxMf5aYwfSMHzv7Tnf1AMiKaYGC41o5z+PwX6ej2hn8Azl0+MaiJOjepCIBTzSVD1nrzU3/ADGcBrinuQcsDwescqn4ZgJSYuaSGJtPL+FKNabhrXQ28X/nssNtkOAuYHLopeuCtYSPVHmjma185M5wFZDgLBz22RMaHasx7QPyUvhHYxvbK//e1yf5R2fibalQZH6ox7wExtkSAEdV0j9/38/DrxrZT4T5l/7XMFIeasiZQMA0XbXOxdOZzTJ70zfN7YiOTqb58jE8uvA5w20kEA7UHWnCEAtzPNWXm2BZWxoyCabjUmLkkRc+5ZfnshO/zWf07+Huu4u2sZYazIFxzDmX/6W23DPy0dbWEX/eH+3Jn7RiVXEZDwTRctfcYPcGuIa5j1uPvuQpAe1eoGTrMiGogeH3Ypm5G/9ctdGl6ngkUzAmg1lc27PoLvnIW0TfzJzUm71uPqtos0eHvQdHUPDNoVPYeEAhepzo0nW6Re+uI+pwDPTBtXXjGkIJpBgXzHvH5pd/RHezAYUuicPqmEe+X7VpKbugp72UX39StYIZQMO8R7YFmyi6+CfSFbVXurmEfHm2zRFM4fROL3FuBvi8p0iR2c6iPaYjLnbXER7nJci3l23wvYntXS/gaZNWA5mx8VCY/uP83fO0r54LvJG2BvhFYmyWa1Jg8sl1Lw03eau+RYZ9FK3efvh/TEHlJRd+qCTrQh57tg+bHuqZkUjh905+cLNAd7KDs4puqKQ2kGtMQlc19c1zzkotumQgwnO5gB109g/uF3o7zHPjqRTKcBX2PFpmSSXxU3zXM9kALlzvOc8FXHv5+TTGPakwRA2nwR8RACqaIgRRMEQMpmCIGUjBFDKRgihhIwRQxkIIpYiAFU8RACqaIgRRMEQMpmCIGUjBFDKRgihhIwRQxkIIpYiAFU8RACqaIgRRMEQMpmCIGUjBFDKRgihhIwRQxkIIpYiAFU8RACqaIgRRMEQMpmCIGUjBFDKRgihhIwRQxkIIpYiAFU8RACqaIgRRMEQMpmCIGUjBFDKRgihhIwRQxkIIpYiAFU8RACqaIgRRMEQMpmCIGUjBFDKRgihhIwRQxkIIpYiAFU8RACqaIgRRMEQMpmCIGUjBFDKRgihhoksOaOt5lEJEBHNZUJj0Y9ywKp4gZHNZUHox7lohztbW9/q42LNjGu0wi33lBAtgjY/g/V7bokbyzRA8AAAAASUVORK5CYII=;" parent="1" vertex="1">
          <mxGeometry x="410" y="261.01" width="140" height="92.53" as="geometry" />
        </mxCell>
        <mxCell id="1oM3fDYYuMg9m5w1nJq4-9" value="" style="shape=image;verticalLabelPosition=bottom;labelBackgroundColor=default;verticalAlign=top;aspect=fixed;imageAspect=0;image=data:image/png,iVBORw0KGgoAAAANSUhEUgAAAOgAAACWCAYAAADUgcTJAAATzElEQVR4nO3df1DU953H8Sfusiyy4PJLFllkEawI5lwrAW5sqjZae5G78yLTZOTmqm3vzE1+1DY23pzRmzbmJklJay/ptM5cxJspudghHZ1A7hxtFVN7QDXBxBVUEAyL/MYFVtiFJdwfuyy/ESPKh/T9mGGG+X6/+/1+9vPltZ/P9/P97JeAn/xi3+Cr/55HW0MvD9KB08se6PGEmEsM2lgywr9PQFRc8OCDDidIQIW4E4M2lnmzEU4hxJ05PY3Mm+1CCCEmJwEVQmESUCEUJgEVQmESUCEUJgEVQmESUCEUpp181X9yefA7LJ90vYPf/yCcR382g6VJKWavKWny9T2FvFxeQ+6aPVg0FZSdfZJTM3j4u5JSzF5TNHXVGRTYZ6sQ90+mtZwNxlYqzmym+PPuY2U5G8KDaKhfyZGa6bxihxrndqzwA+x8KIeovpMcK30W2wM89BQBreSj85WgB9ATm5KIUeui6VIttwBwUNs2w6VpeI1jt0K9vxv+nm/EW3G17ubM0HE8NUAWnsEZPq7K5vIHwWAfEHRXL7nrczvD9TMTH0wzaYqAvk7uw6/7fn+e393K42vGWoofSuW796s03SXYun2/B+bwDcAzUISteeRGlRz9Y/79KoGYQWUff4Wyu3pFvprn9taLHDr74qwceoqATlP60xTkH+DxFCN6LeBxUPvBW7z4T7t5u/reCzheLrlr9mEJKOXUH7ZTxtCnXh9N3TpMoWEAeFwlnLl+neQl27DovZ/iru4Cjl94CW+xzKR9KY8NMVYMGmDQjav3LKWVz3Ku27s+ffkh1kYnofddqbt6SrhYs5NT7cOlMZpOsSfJjDYA6K/BVruTYzd9H+XB2WxK+ResYVHe9Z910dZxmOOXfkXT0A5Cn2Lr8m+TMt9bbjxtNLS8wrGrRSyzlrPB6F1uSa5ib3KXv6VITjrCptgsjL4z6HFf5sqN54aPPYJxUR5bEzZiCvK1Zv01VNl38+6NSt8WY97rgJ2mvpF72EHuV/ZgGbhM07xUTIHe+nJ0HORMz1rWLcrCqAEGu2i6+UPeulYCQPrKcjaFM9y6+Vo7h7MLQ8hEdTb+3BK5h9ylW7HoffUz0EZT2y95t7Jgivo5wM51ORhuV+DUW4nSgLP9RX7+SSHJSYd41LSWqMChequgomY3J1rsbM6owjofIAzruiqs1PhaUu/+onoKebncF9TgXLas+B7L5od534fHTl3jSxTUlPjqzFeG3su4dKn++mlr+TlHKwtwjDtLE7vHQaKvUfDfb7JthRG9s5bKS5XUOo0krn+et/L33tuuJ6WDgImWRxGlvUxFYyFV3V1o9WvZkLqDqP6zVDQWUtfrRh+ay6MpZgCMyf9B9iIrWlcJFQ0FVNyyw/yNrFt+AAtAQh6PxiRBr299awUe/Voyk/O86wEIw6h3U9dUSEVHDa7AJNKS8lgDgJkNaS+TvkCH41Yh5xsKqe6FqKhd/G1Klu/1OTzx0C5S9H00tBZwvuEkDQOhxC3az2YzXKnby7FWO9BFQ/1ujlXu5Vw7EJ7HpvgsDAMVVDUUcL65BIcmdcSxRwjew9bkbEyB3cPH+MxMSuIbbAn3bmJM9L5XbX8FVY2F2Jx6ooLDxldxUBJ6ZyEVjSdp8gRhjNzDFnMyro5CKhpLcQyGYYp7gc3B3s01E56nqeps7LnNYkvyDiy6ofopotqlwxTzAlsSpqgfH33IEuj01v3F1kIwHWJz/FqiAmqobizgfGMJDo2V9GXe41+o2U1ZVxdgp6pyN8cqX+PCRG+BtWxduY+0EHDc8tZHw0A0lvifkBtvHrWlPtiMp7OQisYS2gbCiPKVfbrusQXVc/n027x9DWqfy+XFaiC5gOvXtpG44ms8z8u8fsd9zBQ71Ve3U3wLoMb7iU8ppRee9X4Shy/g6ZUbMeg3AvmsCU9F6ynlzJ92+rthbdZyNhhXkQbU6UPR4qat4yWKa7ytknVJHhbtyCECNw0NmzlaO/L1ZswxQPNTJBmCcDkOcujjoW6br1yh2UApxGVj1oGj+UmOVPpaPnseT2dmY4rMxWEvwGHaxRag3z2iqx8RhR5wdf+Sd32tlSV+H1ZDN7fH1UsJF+yhxPQXcaK+1LvIdYTnk7KIiQFuQXqkFS12bFVPcuwWQBZbs46Qoh+zK9dZii++SB1Aj3cfdL7FWzbv+7NoT5EbHY0xEpj0enCqOhu7bRIhWqD/I/5g8/V8wnewyZSG2w0Ox8mJ68fH0/U2hz4+OLwg9G3ON3QT2L2bM74ujHHeKZ6OWYLFDOfsRSTE7wfcuJqLJh8MitmGWQ/Ojtc49HGhd1nwPr6TkYvF9BTUD3eHR5XBV2cLwrKBosn2Pso9BvR93v4ol+K/e5xt1wa5X23m9Lhx3RqzqM8+fA10qxOPf0UuRh2gzWLDuio2jHmZMQ74tJDq8F0kx59ij8lOc3cJlZ8e5Jhj5F+em/7+seXQoQ0E4swYAL1xD3vX7Rm9yaCZdOC8IRo9oI85xd6YsbuZfPychnwumVJJjzrE3q+00eYs5UrTWxyrrBy/ba+dfm0qK8w5pI8ZIHcCkE2kDvDYafTXXyl2V9f4gH7W6Q0ngG8wx+kavmasG3BPXma/KepsnALKWrZiWrSRJ9aW4+y5zI32Ikordw9fIkzB81nn6AXdLZBoZfWiKtakjFzRNY29jRDuPbdtfYXDy3pP4nDnYgoykwn+v7tRZfDVmVYTPe1D3WNA83j3p9tYrgeXvZJaB0A4iStMjD23aun0jhZ6Kii79msaR61zc7sL6M3naOlJLLE5WGM2krAglw3WHLLaD/Jfn+Tf+RrC48YDuLry+d+GMZ/Fn7XRAOD7g3aMHKn2v36q+xIlnLiQwcXIp1gZt47k0GzWpGSz2lzA8fND19g+5gN8Y1EqWncFtub3uHa70z9CPhdUX3uc15vWssa0jaWRq0hbnEXaom2cr3ycE+13fv1IlpQ81kWYcd0u4Xzze9jdQNQutkRP0J2fygO8i3Bv16DfX0WiHrD/lq3xqaQ+lErqv/5x2hfAs6eI9j5Ao0PTVYSt2ffj0RPYc5K6XiDhDXY+vA+L4yDHKjbz8w82YOsNwhDx16RP5xDN13EOgn6ejobm4WO4A/S0t5Z666i7FSeg1eiHy9BcAQHQ0D5Bazgk5gDbH36H1YG/4sTHT/KLcymccnShN2xi9diW2BCNni7s9U9y7HoBtuYiGubpRnyA+upCayY2fGhZFmb9Xf7R3hfZbF5VzPa4aM5d28mR0gxerinFpU0lZVH2Xe8tRh8N1FD1p52c+NRb34Gaz9GUOOw4Ab0uZ3hZ8EaMQYDbfpcj11O7txb0vVoafwpG8+MU1F6m0em7XzpDhbufTjWVsjI5C6v1HQwd1bi0yVgirRgHsgk6t50ybRzGkFQyV75DZLsNpy6NhCCgv5Xp3f59lUuOrZjCc/jWqoVU93Sin59F8gIznphQXr+YD835VC/OwhrxAjv/Igu724Uh7Oskh4TRtsDOoSsV4O7GQxImUx7rBt+jqqGEJhawIMRKXHIxhgWlODBjMYTB4GUcY3tr/W48hGGOO8Lm4BoIXkWyMXV0XbRWsNpgZVnKO2xps4FhE8mKdIH0+iTiwl5gp85KXS8YjanogSZXhXeDCetnYk5PH5BEyuo38HS1YAhZi8UYxcgubnN/F5CExbqPNQ0nsQ19mI406rxZsbsXEB3xVUwBbhrafjWj7//eWtDq77L7J7+n1glGy3KWp4Rz6+T/UTtDhZtY38x0MezbOV5filNjJSU2B2u0FX1fKWVVvuH9muf4XfNlXForKXG5pEdb0fZXcL76JSqmeYiyiz+kzNGKNmwj1tgcUsLCcDryOX5x6LqtlOJLr2G7DcbwbKyxOSQHQ1vzSxy94jtK7QmqXV3oDdmsWfoCqwGan6W4voS2QTPJsbmkx67FOFhDVd1eTox9QEbNXv7QYcejz8Ial4t1wUI6Oy/jGrnNjd0U3byMJ9BKWlwuaQYXbb13eV02gYG7Pk9jz20R717Np7oXjOE5pMf56qftIMXXfGMBE9XPJGw1r3C+uwutYSPpcbmkhLip6xw9mlV38yQN/W6MxlzWLXuKiR/MM/K85WCN3UicppW6+uc4Ujuzs0kCeKA96mHyTCIh7kwmywuhMAmoEAqTgAqhMAmoEAqTgAqhMAmoEAqTgAqhMAmoEArTyoQBIdQlLagQCpOACqEwCagQCpOACqEwCagQCpOACqEwCagQCpOACqEwCagQCpOACqEwCagQCpOACqEwCagQCpOACqEwCagQCpOACqEwCagQCpOACqEwCagQCpOACqEwCagQCpOACqEwCagQCpOACqEwCagQCpOACqEwCagQCtPOdgHE57M0ch0JxkwWGzMAcPa1cMNRjq25GGdfyyyXTsyUgAOnlw3OdiHE9Ok0ITy27EdEBCdOuL5v4DZl9flcaz/9gEsm7gdpQeeQseGsbj/NDUc5fQO3MYWuYGnkegy6aB6xPEPfwG1uOMpnucTiXklA55C0mGwighPpH+jhVM0rNHbb/Osau23Ymov4quUZFhszeMTyDI2f/DN9A7dnscTiXskg0RyStnAzAB/ePOoP54qYv+EvF/8jYUGx9A3c5mzdm/QP9KDThLA0cv1sFlfMAGlBFaPThJBgfBiDbuGo5Yagheg0IQD+68sl4WvIMH8LgPDgeN6/st/XtS0jOXI9S6PWodPMH7WfvoHbNDkv095T+wDejbhXElCFGHQLeWzZj8aFcyRnX6u/2xoQoPEvnxcwfCrbe+pIjoSI4MRJB5M+qHtTBpLmAAmoQrLid2DQLaR/oIf23olbOFtzkf/3mo6zLNDHEhYUyyfNx/3Lr7WfJnK+BUPQ+KDrNCFEBFu816jdNrklozgJqEJMoWkAnK17Y9ojsB/ePDpu2dC16GS2pL5ORLCF2NA0rrVLQFUmg0QKGbrGvN8jr0P7n6iFFWqRgAqhMAmoEAqTgP4Z6uipA6Cp+9Isl0TciQwS/RkqrT/MhzePyiyjOUACOgcEaQ2sTfwecWFWWpxXxq2PDllKQ1cFZ67/jP7PXNPap4RzbpCAzgEJxkzMYV8GIMawfMJt4heks9iYQU3H2Qlen0FEsAWdNgSdJgSnu8X39bQ/SVAVJwGdA662/Y7BwUECNUGTbtM30DsunKsWPUHaws3+2zdjPYJ3UsNHN38jExYUJQGdI661/37a2xp0C9mQ/MKoaX5NTpt/gn1ksIXY0BUEauazNHI9CcYMPqh7U76epiAJ6BeMQbeQLal56DQh9A/0cKmlCFtz0YRd2QRjBpnx38agi+bRpD0yP1dBEtA5YlHoQ2jm6UYt63TdpMvdOGrZhuQ9/nC+f3X/lN9aueEop7Hb5v8OaWb8Djp66+SbLgqRgM4BS8LXsG7JDyZc9+uKf/C3jqsWPUFEsGVa4RwyNG/3sWU/JiLYQqZ5O+9f/bcZLb/4/GSiwhzQ1nMdh6uenv52/w/A9Y4PRnVdVyzMBuBSS9G0whkbmkaCMYO+gducqn4VAFPoCmJ9k/bF7JMWdA7ocjfyW9uuKbdJMGYQ6Pty9sivpE0mNjSNv/rSjwE4fGErzr4WPnWUs9iYQYIxc9TjVMTskRb0CyJivnfEtslpu+O9TZ0mhEeT9vi3HzI0ihsx33KfSinulgT0CyJUFw0wrZZv5EDSUNcW8N8LNRmki6sK6eLOASG6SNYv+QGB84afLxQWFEN1RwnnbhwCmHAywlctz6DThHC27s1RA0lDATxV84rMJFKctKBzQGzoChaGpBAevNj/o5kXxLKor6PXLgCgvdf7DZWhlhTwP3n+sWU/QqcJITY0jVWx3wTgo8bfjGtth0Le4duXmH3Sgs4B1e0leAbcE9wHbcDl6QTA6fZ1T0eMwJbWH+YRyzNEBCeOehhZk9PGRxM8KiVh6N9IuGXanyokoHNEnaN0yvU3HOU8gncmUWxoGo3dNv+soKGQAuOuO4foNCH+//MiU/7UIV3cL4i+gdtUjwjkyGfo/s/V/TQ5bXzqKOf9q/snvO788qIn/ANHElB1SAv6BfLhzd+QYMzEoFtIZvwOPvA92a+x20bjlf2Tvm5p5HpSfU+tL60/LANHCpEW9AvE2ddCaf1hwBu6Lal5Uz4EW6cJITN+B49YngG8/4xJJsurRVpQhXT01hERbCE5cj138z8hne5W/z3Msded33zol3zqKOeGo4zuvlYA/4ju0sj1/q5wdfvpKZ+lK2aH/H9QhaQtzCYzfsfneu3xyt2j5t9Gzk8kM37HHScd9A/0UFp/WFpORUkLqhBbi3cObVpMNoYR9zPvpH+gB7dn9HVje08t71/ZT4Ixw/vIk/mJRAR7p/A5+1rp6KnlhqPc//9FhZqkBRVCYTJIJITCJKBCKEwCKoTCJKBCKEwCKoTCJKBCKEwCKoTCJKBCKEwCKoTCJKBCKEwCKoTCJKBCKEwCKoTCJKBCKEwCKoTCJKBCKEwCKoTCJKBCKEwCKoTCJKBCKEwCKoTCJKBCKEwCKoTCJKBCKEwCKoTCJKBCKEwCKoTCJKBCKEwCKoTCJKBCKEwCKoTCJKBCKEwCKoTCJKBCKEwCKoTCJKBCKEwCKoTCJKBCKEwCKoTCJKBCKEwCKoTCJKBCKEwCKoTCJKBCKEwCKoTCJKBCKEwCKoTCJKBCKEwCKoTCJKBCKEwCKoTCJKBCKEwCKoTCJKBCKGyeQRs722UQQkzAoI1l3sPhu5CQCqEWgzaWh8N38f/3eVqjKgmS4QAAAABJRU5ErkJggg==;" parent="1" vertex="1">
          <mxGeometry x="230" y="261.01" width="143.33" height="92.67" as="geometry" />
        </mxCell>
        <mxCell id="H21GpFEVwCO9OEEZ7Sbb-6" style="edgeStyle=orthogonalEdgeStyle;rounded=0;orthogonalLoop=1;jettySize=auto;html=1;exitX=1;exitY=0.5;exitDx=0;exitDy=0;strokeWidth=2;" edge="1" parent="1" source="1oM3fDYYuMg9m5w1nJq4-17" target="1oM3fDYYuMg9m5w1nJq4-9">
          <mxGeometry relative="1" as="geometry" />
        </mxCell>
        <mxCell id="1oM3fDYYuMg9m5w1nJq4-17" value="" style="shape=image;verticalLabelPosition=bottom;labelBackgroundColor=default;verticalAlign=top;aspect=fixed;imageAspect=0;image=data:image/png,iVBORw0KGgoAAAANSUhEUgAAAmUAAAJhCAYAAAAAHscxAAAAAXNSR0IArs4c6QAAAARnQU1BAACxjwv8YQUAAAAJcEhZcwAADsMAAA7DAcdvqGQAAP+lSURBVHhe7J0HgGxleb9/3+lTt95+uXRsBNFYg6KJvcbYYovGRE3i34jGGqMJdmNsiGLvFQQFG2AFBEQQpPdLuf1u32mnn+//vmdmYLly6+7end19n8th2tmZM2e+837P1yEIgiAIgiAIgiAIgiAIgiAIgiAIgiAIgiAIgiAIgiAIgiAIQu+gOreCIAiLiulmS2dZBq01lGqHsu59wzDQVypKfBMEYVEhQUsQhHmnVm/qhh/QbQO1RgtBFGNTI0Mr8DFdb6LebKHR8tHyQ/i0hXGEaT9Gmqb5/TAMkSQJUpKwLo1WApYy3mZKGQsZb5WSmz/HmMqAaZqwbRsObXx/sOzAtR0UCi6KtJWLBfqbIvoqJRS9AjaUDXiOjWq5iGqljHLBo9uSxExBEOYNCTCCIBwwE5N1PTZVw0itgbHpOrZNTmHbjlGM16awaTxD029hkp5n6WoFIYIwRhyniFMSqiTtvMv9Y5rt8MTC1ZWumfdZvPYEyxrDosbbrvfTdM/hz7AUbNMikTPhuTaJmptL20BfBaVCEYcOGhjs68f6VSuwerAfw/T8cLWM4YEqhvsrElsFQdhvJHAIgrBbdjQzvXN8AltHxrF5dCfu2rYdm3fuxMTUNDbtjNFstDBVb6BJwhWlLDssShZtGlUryAUoozBjKBOGbcG0HJIqk57TtOeew4/W90pbV8SY7n2uRdsTXBvGdCWMmXmfj2NPdI+RjyNNImQxiSTdN+h5PoZa7PGb0J4JvXEGhySOxa2PxIzlbcMqG4P9fThk1SoctnYNDlmxCutWDmHV0CBWlwyJvYIg/BkSGARhmTPuh3qyFmDb6Dg2btqG2+++GyN0/9otEyRcNUxMTKHeaCCveDIs8hDSEoocjmeRbLFw0a1hwCTJaQuTAYPcJ9HJPRLEAsT3un3A+L260rR77m2qZGYKFbOvNWVdZordvpCSZPJH8N/xZ/Ffd0WRn7PoezOZan+nlF7jz0w73zsKEig6ZE3ChizJ36tSLmNwsB/9lSqOXduPlSuGcOSGDbStzWvcBqoehouexGVBWKbIxS8Iy4i7xlN9+6bN2LJtBFfefDNGJ8axaesObN05ismGjyAmGcmli8TKcXNxciwbDgmIyWKSaeg0I9nQCKygLSwURrrykWsS7cOEaEsav3avELX7f/G2t5quXaVrVym79z3vn73tv6u07Qp/d36P9vu0jyV/TG/Dty46x2+otj52jpdr2Ph1L/FoX/quJp1P2of7w0UkbFHS7iun44h2TmHSefNsYLBSxDoSsw3rVmPF4BD+8oEPxLo1K3DUhkNw2FCnLVcQhCWNXOiCsES5YaKp79q0BX+6/mbccOuduGvHKHZONDA2WUfdb0FnJnmEBcuijQTMdh0SCyuXChaWvjhhkyH14FogEgoSCBaSdjOkBSOlfWm/LEvyfUhV8s81OhVgjtmuSWJB4f1Y5rimqStls6UtS7tnr5+h9ixlZFL5Z/DGNX0sV3mNWed9o5TOD0GnJcegk8Ov8Tnl/TKTzkuS5M2eLKYOnZh8wAGHXXrPOp3v/Fzw16BzmEQkayRqcczSFtN5zFApFDHUX8aqwTIOW70CDz76MBz/kAfg8EMPwbFD5dmfREEQegq5qAVhkVOLEj3RjHDntjFce9NtuPqGW3D31h24dvNonsFHUZTXzHDND48+5C1vOrSLHVlKcwnI7YJEJRcLCg1xp6mOyeWBokVXSFhU7KBT60WyAtr4JRa6hN6TPy/R7ZoyFpS8Ni3/23tFaG9S1Zah+w9Ru3t+V3b3GXt67y73fb0taF1h5fumkcIi0bK6osZfjcUzl0+N2LtX4Pgx/ZffdrE7fev4/VgA2WZN06bb9t+ZWZifx11/Q8dx8t/w+ENXYT2J2kMffEwuakcdsgob+qTpUxAWM3IBC8IiY6Kp9VQjw6//eAnu2rQZ19x4G269czNGphpocp9zw4Vh2Sg4pVyI2JkMloKMa2zaHdWZpu4IGG/sVRQNcvGg/fg2KHl5cyVvJnmDReGCbzVLBIlH5rm0b/tvurKR9x3riIi9S01Ud7/utmvz5J64ryC16X7m7jiQv5kJyxK/x8xtJjGLFMHvyeeV6confzUVhm1ZpQcpPaazmt9yUyZvRT/qvG9bXunT6L3azZz82cX8MZ2rvDmZJJoljvajU5+/HsQtJBF9Rhqg4hhYM9SHYw4/BMc96CgctuEQPOH4R6O/bGNFdZcDFwShZ5GLVRAWAdffuVn/4YZbcNm1t+DKW+7Epp1jGPedvJaLcvR8yoa8BqyT/+ZioLujHwkSiIxfyjP2dq2PR36Sv04ZPDdLtgXh3pBghlEuTiwE3X5U+XuRULBIxKqZ78/Ncfw4fzHvT9Zuout2gOeNn6OdZrw/H8O9NXEHwsxjvT/an3vg5N+p/Y3b75W/372i1v4OLE3d5/jVtP0cbSZKdEvfkc4J61u+D70FCxyf88Sx+a3vgf+mK3W8BZ2vZ7A88+eyIBv3vleK9jxsfJ+PMggChEGUP2c6DgbcAIetWYlHPPAIPPIhR+HhxxyBo9auRqUsk+oKQq8iF6cg9BitKNTbt2/HOTeO4/qbbsUfr7kRm7btQMOP8ow7nzfLcfPMWBD2BE/Sy02fTNF1cOi6VXjk8Q/BcQ9+MJ774H6sWbMGRceVhCQIPYJcjILQA2yZDvWl192Ki6+6CVdcfwtu3ng3dDiNiJsJDRdOoZx3xmcp475fLGT5fUHYDe30YcC02wMP4jBA2KoDSQjb0DALA3jgkYfikcc+ACc87IE44bgHYH2fCJogLCRyAQrCAnHxTVv1ZX+8CpdccSVuuH0TNo9NI1QO7GIV2rTQb0aUp5r5lqn2SEfu7K146gml0W7IEoT7xzJNJJReuPGTm2K5nxvPFmcqnrpEYyw0oNIEcasGJwtxyHAfHnLUBjzuUY/AYx7xcDzuQeskfxCEg4xcdIJwkNgynujLb9qI8y79A/54/Q249u4pJH4ThmWiUinBoVuWLZauhGeQpyw0447fXDlGQsa1Yzz6jjvkcy8ifk0QdkcSh+Tzdj7o457+b3kftzQfrOHS0zzakwcScFqKkhT1ejNf/soulnHsIVU84tiH4Ol/9Wg86kFHkrTZkuAEYZ6Ri0wQ5pEbt47pi/50HS646joSsduwZfsk5YkmPK8Eu8Cz47enjOAasO60BzxvWHfiUn6921SZ78sj+Lj2I5/H6r4dxQVhJvngAMOitKPytUb5ltOVZbXnW+N0xFuS8GoDBlzXzW/b8qYRtWIEARUazBTr1wyQoB2JJz78oTjxYX+BB68blrxDEOYBubAEYY65YsuovvjqP+HMn16BzTu2YdvO8Xx0XKFYzkdI5uRTTcR50yRngDxflWU6ea1GN6PsChtv+QhJyljz50zkk5Am+VqTgrAbKF1Rguk8MNrzyREz0xenxzx98SoDlB7z0aH0PNfWaoPSaj7SViGKA/hNEjTaYe3KFThkzWq85G8fj0c88AF47GFrJB8RhDlCLiZBmANu3trSP7vwUvz80ktx3d13YaQ2DauwOp/bqwATLk8rkVFmmIVIeLIvU5FkOXCsds0Ez+TONRv5bO+U8bF0tdIsn5w0n+iVyHSSZ6i8P2ekPBmFIOwOTiOcXrpN33maoVuuMaP/8mWieKUG+i9fkYH7KJo2FQxovyjJqIAQQidUWEhN2FRg4OlUQtrT15SOKY0mje1YMzSMhxyyAU9+xCPw7CeegGMPrUqeIgizQC4gQThAtm6d1D8jCTv74stx+e13Y6wWwnP70G+XkTYDKDtARhlcoiwknQyRZctIEiChzNJM27UUlCnm4+Q6fX94RnyDZMxW7RoNsrcZGWq7Vk2ETNgbnFbyNEdph/7L5Swh2eK0xqKfGQ5JW9JZkaBdMOhOJMz7GillD1xza7UnrOX+aBY9b/FAE349KyGlJDsR1uh9Wlg5UMQjjlyP5z72UXj2CY/F+vXSxCkI+4tcNIKwH4w0Y/3zS67COb+8CL+9ZiPCMMwzMF76hjcmb2rsZIiCsFTppnEuMDDcJ5I3fsz90/76oUfjb5/yODzzhIdjZUkGCQjCviAXiiDshZof6UuuuRk/OP9i/Prya7F1OkRiOBgsmnlNFmdO3Dm/XeslQiYsH2aKWbsmrt1Xja+HiRbXrEVY1+fiSY/6C7zoaY/HCccfg6on63MKwu6Qi0MQdsO1W8f0D8/9Dc4+/xJsHJlGangwbAs2d7TPe+G0MyLOhHjjDIr78DCcKfFrgrBUYRHLm9cJbg7tXgO88WucuaT0/5hn4UhimGmII1f24XlPOwHPf/qTcdz6Qcl/BGEX5KIQhBlsb2r900uvwI9+8Sv89vLbEKYKhluE65WgsxhGWEPRiOCZKWq6kv/NTCnrSlreZ0ekTFjCsHjdZ+DJDCljqqqJgK6fVuYgc6tQpoXQbyELW3BNhb9+1JH4u6c+Gc/+q0diTYn+WBAEkTJBYK64ZZM+/Ze/xU9+dzlu2TFJz9gYLrOItS8R7h6d8hQUpgGDO+4nCSzcu6A2Z0gMZ0jd+4KwHJiZ5rtCxiTgOdGsfNQwjxQwScTy+rPOAu5jjSbtFeMBqwfwnMc/Cn//lL/GIx+wQS4eYVkjF4CwbGnmtWKX4Vu/uhAX3HgbGvUIBbuMIdOBG2lMWH6+DI1l8GhIAwnlN5lRQGIVEKcGiqBSf3ZvH7KZGZPImbDU2VO65+ulpQr5GptW4sNIw/w64uuFryNeRmwgKiJyDYynEfy4gVLZxhMffDRe+ZQn4tl/9RiUpPZMWIZIoheWHRfdvlNf8Psr8M1fnY+tW0bgNzNUSsMokGylYQBDp/AcA03XQxIFlIPEMClzUTzhq+KZxNrTWMBqT0vBGVEXzpBmZk6CsFTppvFumu9yT7pPeNWJe68HTc+nvB9dQxZdW0U/RBjT84YFw3HRiltoNMdQKJtYt34lXvnkZ+CJj30kTjxqhVxIwrJBEruwbLjoyuv0t3/yG/zi8mtx91gdheJKOKaBIpXWFYlXEIdILAOpbSOmDKQUxvmagNqy7unUzwP7bcpYeJmjRLX70XQREROWK7umfX5s8fx6pkXXkomYrqN25/8UKo3oagLqtgWX/sbirgBJRteijQwWXYdATAWgVnMUhw5V8NRHH4tXPOdvcOJf/oVcXMKSRxK5sKTZGWj9i8tvwDfOPg+/u/L6PNhXS0VYlPJ5QkxBEHoTXhWKR2/Wmq38en38Xx6LVz3v6XjKIx+M1QVD8i5hSSIJW1iSjIxO6W+cexHOu+BiXHrNjUidMqpDq0jKUug4gGNZJGWS/AWhV+HeAWEcw3AKJGUGauM7YYR1nHD8Q/D0Jz4Or37m32B4uCwXsbCkkAQtLCmuvnun/tY5v8R5F12KW+4eQ7lSgV0oIsk0Ep3B5gWWeQ3KKIRhe52/EgSh18io8GQ5LrRh5jXcLGYWXb+x30KjXsfR64fx9Cc8Bv/wt0/Dww9fJXmZsCSQhCwsaoLI155TUDfeulV/+Yyf4KyLrsCWEEi9ElaX+9Bs1pFQcHdtEwY3h8TtyS5t275noldBEHoPnusvjuP2fZsnY+brPYHtFFAqVbCjVYcTtrDeBV5w4iPxzy96Nh541BrJ04RFjSRgYVFzxc1366/9+Dyc9etLsLMWwq0MomgXYWmFml8nGbOodM1j8NuTXCqDgjsle55l3DGkU5kg9Co8cbNj8VhnDZ21l2/ikZtJphBS4arslhAjgZ+EiOsTWFF18YInnYB/fPYz8JhjD5O8TViUSMIVFh3jrVTvHBnDe790Ji78wx+xY4zka9UaFAoFIPbhRDxreANGcZhELCUR48lfact03rlfmQ4My4amfQVB6E2UXciXZ9JplHf6NwwWNIIKXDw1jfbHYbhlRE4RoH1934e/czvWDvXhCY/+S7z91c/F4RvWoN+WIdHC4kESq7Co+NWNW/W3zvwJzvrpuWiWh1AqlOEoCzqMobKMBCyGaYE2jTg0wH35eSoLnpGfZ+LnYfmagjo/x82ZgiD0JtxcydcrF6m4lptXBjA709Bw5bflpEhiurZTEjRNG13fcCzEOkPTb6IcTOGZf/MEvPblL8RTHrJW8jphUSAJVVgU/O6GW/TXzvgpzv7t5ZhIbFRXHIJCOIU4pZI0xWKeupI7AxvKha08xBGvxxfA4CFcVMzOUt4nhUmRnmcdU7TF7XK3IAg9CM9zxtXcCV2tCYsYF6p4vuaURCxJSdoc2A69hpCeivI5B8nOoGIF23RQ96pojW1DvwrwvCf+JV730ufjrx5ylOR5Qk8jCVToaS6+aav+4g9+gh/95veoU6m42jdA0kUl54xkLBOpEgTh/jFMXj3AytfgnJ6aQMU28Hd/81i89oXPxuMfvF7yPqEnkYQp9CQbb9+iP/GD8/DTX/0W2yYbGFx3GGJtIOKRlFRajv0mTKfU2VsQBOG+ZHELlldEyIN6bC8vzI1vuRNrB8p4zlP+Bv/xoqfjyKNEzoTeQhKk0FPs2NHQp/3kZzjlh2eiPmpgcHgllXSzfCh8uVKEoTOErWY+qjKWyV8FQdgNvBg6j9J0iyVkykCj3oLnWLBgYGJsBOXhFCc9/4V4/XOehTVrKhJMhJ5AEqLQE9QmI/3ln5+PT57xE2zePo3C8Dp4JF7ISMkS7uCr6X6KIAhgKIVKpYIgDDt/LQiCcF8810W9XkemNTzP4/ZMpLwGp0VxxbDgRzGC8W04ZE0f3vzi5+A1z3waqgOO5InCgiIJUFhwvv3T3+mPfPW7uH7HOKyh1aiiALtFAuZECP0mXMcgKVO5kJVKVVi2i4nJGooFCq6CIAj3Q8tPMDhQRRKHaDZruZilJGhRrOF4RXiRg7hoogYfyfgOHLt6CO/8p5fhFc9+vOSLwoIhiU9YMM79w0b94a9/DRddeyOs/jXoS11YzQDKTeGbMXSoUSoX21Na0GbaNsIoRZRoErISBdtW550EQRDui2UXScya+QS0rmMi5XU0DSPfWk0f2qY4kjkUZ0ySMxfTZoh0egdOPO7B+M9/fDWe8egjJX8UDjqS6ISDxnQr1H1FV11617Q+9Qtfw/cuvQKO4aDiVGDCQJLEMF0ezp6RfDXpmVJ7AfF8jiINGAqWYebzFPEcRoqbNAVBEO4Hno+QYwTHj1RTwMinzFG5lPE6mqlukKxRjEkNZBFJnGUjRYZ6VEdET7zksY/AG//1n/BXh/WpbuzqvLUgzBuSyIR5x2/VdKFYVeNBpj/51dPxue/+BC1VRF+llM/YnaQRMirNko3R/YxXRIJnurl48aSvFEVzIeMXeDFx7uzPS6+kpHKCIAj3h6ETaJIv7uTPi5rzEk0sZhxYDMr6WNiCNMyftnk+w5hiS6JhmQ49Z2Gq0UQRPl7/0ufgza9+MYYLpgoa09or90m+KcwbkriEeWck1vpHv70Kn/ryd3Hz3dvQN7Qyf16RjAmCIPQimWHntfLT4yN4wIY1eNNrXoYXPOkvscKiJwVhnpDEJcwLUdjQjltWv7l2oz7tG2fgZxf9AWahD8VqH8IwhGVZeT8xQRCEXqTdTSKD67poTk8haU3hOU98LF7/qhfjr//iCMk7hXlBEpYwL2xtNvUHvvwz/OgnP8N4zceaDUeg0fIRtJooFmzEYQDD9jp7C4Ig9BZp5MMt8GCBOL8tFTzs3HIXhqoFPO/Zz8Q7/uEpOGxwQPJQYU6RBCXMOV/+2R/0J7/9Pdy+eQJeocQrByNOk7w/h839NwwNiyd2TCT5CYLQm7gWDxAw8kmqw5hXR1dwLBtIIvitBo5Y14+3/eM/4J+f+SgJZMKcIYlJmDVxrantakldf/eIPvkzX8WPL74KWbEffbbFawfnnW15wkZuDkiiAJoEzbJ58WBZu1IQhN6EhxKliabYZdPm5KM4eZCA0rTxKE0qZGaNcTz3scfjv1//j3jYUeskPxVmjSQiYdaM17X+0o9+gdN+cDa21OrwvCKqbhFJ4Oev82pIFNrykZQsZrzxsPQsSfPXBUEQeg1ltguN3K+MhYxn4DHofwbd5oLmOGhSITONI6yvVvBvL/xbvO6FT0F/UQYCCAeOJB5hVvzmmrv0x772PZx/+bWAW0GpUICtE6gkgjZtCl5pLmH5XGOsZsqCplSXJEk+55ggCEIvwl0uHBIv7naRZjFMZdwTy0jP6B8VKnn6DLuA8ckJZI1JPO2Eh+Nt//QyPPlhMhBAODAk4QgHzNtP+aH+9rk/xrbpGgbXHgIzyJDWAwpSFlJTgdQMrm3mc5FxadN26D7dspDZts1LWQqCIPQkyiAZS1OYZnvC6jhK81Hj3JzphzEcywCCGDbJGgoU8zwD4yPbsdJ18IpnPw8f/JdnoVAoSB4r7BeSYIR9YkpHupC0SLL61bmX3qbf88Uzcd3Gm/Ph4ixYeU0Y97eQmntBEJYR7Zoz5F0ymDiOEUURjj3iAfjAv7wIz/iro1WUTOum4WHAkFUBhD0jCUTYZ8Ymtf7Q987CV394NpJGE6o03C45UjDqShkjYiYIwlKnK2MM3+c4mPeV7bQGZI1R2JUy/vkFf4d3vfT5GOqXwCjsHUkkwj7xm8uu0e/5/Jm45No74A6XUa1qpI32iEqGAxEHJhEyQRCWE10549jXrS3j58xygnrdQDDWwOOOOwLvfd3z8aTHHi8BUtgjkkCEPTLd1PrTp/8YH/3+6WjEJlZXhhD4EXxLo8QrUFLw6QYlZqaUzXxeEARhKbFrrOONn+s+31IahUTBKzjYUR9H2U7x9pf8Pf79xc9Ff3nGHwvCDCRhCLvlT9fdod/6pW/h13+8BVaxH2WVQhkRLLuAqKFhuPctJYqQCYKw3OjGva6YMfxcGmi4FQNx1KIXXTS0icSfxpMf8QB87LX/gOOPPVzyX+HPkEQh3C+nfvN0/Z5vnoNWZsD2+lC2itBBCGQRlG0gURmytDs8/N5OrrsGJkEQhKXIzDjH266xzzA1zIyejzMo04XyXDRTH3EwjQIVcP/75c/Gf7z6ZRIkhfsgCUK4D9ePBPo/P/QJ/O6P1yBYsQ6FZgt2miAg59JwUKEtMzNMoIEyvHtGXHYFTDr7C4KwXJgZ/3ibGf+aKsQgRUmVKNQRwTQSuKlGbFrwS0XYo1vwhEc9DB96x5tw3CqZOkNoIwlBQBQ2teOW1Nm/+b1+9ylfxU0jEeyhtag260hcIKVgYqYZDMNEoDnwAAWD5EyHecmwG5C6JUW+z3P78Bw/giAIS5HuSMuZMXCmlJmGh1Ya0n1N8ZJr1jIkBj2fWTADjVq1D9H4NjxgwMD7Tno1XvyUx0t+LIiUCcD2UOsPfvlMfPG7Z8Nwyyh6HhUBUwoiIlWCIAjzA5kaFXT9MEQWNvC6lz0P737tC7HaIaMTli3y4y9zrrprTL/1/R/F76/biNLwGgoQEUmZiyj0KV7Ynb0EQRCEuYQXNXfcApp+ANe20Bzbjkc/5HD837vfhkceuUry5mWK/PDLmE/85Cr9sU+dgukwhleuIkopSPAiu7VprBweQr0VdvYUBEEQ5pKia2FkbBzlvv58FQCPxCxs1tHn2njrm07Cm54lc5otR+RHX4aMJlq/+0On4au/vBKVSil/Lk3jfIFw01J5XzDf9+E6hfw1QRAEYW6JkxCe5+X9b5M4yxdAN832knX1ehOvedoj8YF3vR4rLGnOXE7Ij73MuHn7hH7duz+J392wCX2D/dAkY5qDAXdvMAwk3JcMBpRlw5CO+oIgCPODbSOLI1AAzgvEPEggSXXez8ywHNQmp/H4h2zAFz/wZjxwzaDk1csE+aGXEadfeKV+w8mfxHTqwq30wUwaea2Y5/AQywwRyxkFA02pQlNgUEnS+UtBEARhLkmUgqEzKPIwnSVwqSDMpeOQRI1rz2KjiKhRQ9UI8JmT34y/f8JfSn69DGjP+CksWRpRpCfCVJ/8pTP1P77jf+HbfSiWy7DS5j1Dui3bRUJ+nqQqX2Bck6AlQbPzDoIgCMJcY2TtLiPchMmxNyY5U4aFMAzzwrKdtVAolfKY/aq3fwQcwzmWc0zvvIWwBBHzXuJsmazrN3zoyzj7giswuGo1dOxTsSzJ+y1YbgFxnObzjtmWQ6lBI6VSmqHSfDRQmMi1LwiCMB84JhDGCTJtwuLWCs0F4zif18xxLCQhxWpCw4ThFDGxYzv+9omPxGf/67VYP1CRvHuJIj/sEuZHN03pd5/8Ptx+9xaU+gYQZwqua+cjfXg4tqKLXRAEQeg9OEZnJGomFZCjKIFjK7SmJnH4hrV433+/Gy98sPQzW4rIj7pE+fSPL9T/97lvodZskZAN5kLGpTJeojIKQpQrRcSRdOQXBEHoRQyl4QcRCqVi3pphUm5tIoVfn0J/XwVved3LcdJznyB5+BJDftAlyFtOO12fcs4v4ZKQFUplaGXBj+K87wJLWeA38879aXtFEEEQBKHH4BHxQRTCK5RyKeO+Zp5jQ2UxWo06Iq+Ak17wNHz89X8v+fgSQn7MJcSd4y399g+fih9e9Ee4K1ai37LQ8kPwKGubh1/TlZ1lCWzTykf78NQXgiAIQu/BUsYxmkdjGoaVT+ydJAmU5pUAqKAdJKhNjuJvn/QofPwdb8BRA0XJz5cAkisvEa7YOKpf9rb34ezLrsHKNevhtiJMN3zEnVn6eYuiCFmS5vdlsXBBEITehWvGOFabqj1KnkfLMxHF8JYfwwlirF53CM75/dV4yVvfi6tuHZGRWUsAMeslwA8v3aTf8v6PYjRowHJNhK0Yg+WViEySMLqY8479PCcO/dz5LU8Sy891LnJBEASht+DYzS0cPFKe76c6y++zqPFUGm5iY7Q5AqtkIw0SrLRL+OS7346/O/EwydcXMfLjLXI++p3z9P999SyQjqHomTDSGEmmYZgFug3zOceUoWEadntCQpIxrgJ3XTe/0AVBEITeg4Ws2WzPJ8kixgXqTCdIk7akmW4RZuzDoFw8M200ohQlleLtr34+3vnyZ0jevkiRqpJFzDs/f47+yBe/ihaaKFYsNMMUsKowbA9BXMv7JEBlead+HsnDHfwNurDbzZdS0y0IgtCrBFGcF545XsdRgIwK3NyUyf2BPZeELa1RvHdho0KxPYXXZ6NutfCRz38F/3XqjyTAL1LEphchtVjrV37kCzj3F7/PL1guUTHdmi8uUfHGVd2CIAjC0qMb47txvtvnjFtDuP/w3zz5BHzvna9Bv8t1acJiQX6sRcbt2yb1v37iVPzxD7cisb18WSRulmQh616cfLEKgiAIS5+ZcZ/FjAdxcRcVJ5jC8Y95OE59yxvwkHVVyRQWCfJDLSJu3NbUr3rnB3H1xs0oFAq5jHVLRyJlgiAIy49dpYzh/ID7F9daGR509CH4zkfejL9Y0y8ZwyJAfqRFwuU3362f8a73o95w0K9dZG6GLInz1/ii5I0vyplC1r1YBUEQhKXFrrF+1zxAu2V4foh6FqBQAs753/fgrx64XvL8Hkc6+i8Cfn7pjfrpb34P/KYBmy64wE6hmn5+EXZryO5zMXYuUEEQBGFpMjPOd+M/P+7mCbrWQNMMKJPX8BsmnkF5yDmXXS0ZQ48jUtbjnHHRH/Vz3/U+NOISqkYJBcQwdAAUrM4e94UvyJlNmYIgCMLSoytgvN0fnhNDZSa0xdMlKUSxiZe97RM448JrJHPoYUTKepgvf/83+iXv+hAMbxD9posw9fNFab1UoUYXYrdmbGYpqStj3dcEQRCEpUc3xnfjfjcfYPi2oTRcyg4cKr9HWYgBs0iF+UG85F0fxOd/8AsRsx5Fcu4eZDrS+lvf+z7e8O3fYCh1UXBdNIwAcauGcqEIny6nTNtwcG8piTt4dktOfEF2R2QKgiAIS4/uSEuO+3yf4/7M/MA3PHioo5QlmG6SvFWq9DhF6seY1AqnvPJxeNXLXyZTZvQY8mP0IP/9lXP0+77yMwxUzM4zgiAIgjB3TDZj/Nc/PQf/+fJnoexa4gI9guT6PcbbP3u6/tBpX8ealQNIpIJZEARBmAf6i8C5v7wIEVxc+vMfvLfztLDAiB33EK//8Bf0F865EKVqHypmhFbmdF4RBEEQhLmjaAWYTjy0Jmt47fOegC+863XiAz2A/Ag9wHiQ6X//8Jdw+vkXYnh4ENxXsxZmcJVUlQmCIAhzT4gUFduB1gqjYxN46TMeh1Pf+c8Y8hzxggVERl8uMNyp/80f+iy++9ML0L9iNbIoQBAEiJTb2UMQBEEQ5pbYKCIMQ+g4xODK1fjuzy7Ef3zkC3me1NlFWABEyhaQehjqf3v/Z/DNn1+GdRvWA/4U/DSDdkqoSMulIAiCME9UbOR5TSsmB/OnsfaQdfjGzy/Bv1KeNB3yk8JCINWUCwSXRk768Kn4Ll0E3tBqGHELtkmObBfQ9EO4iABTzEwQBEGYe1QWItIuPLcAlbTofgptuWhNjeBlTzsRp/7n/0Of05n4TDhoyOjLBWKilZ78lQtuwcrBCjwdINQ2QuXCogvFjFpwvRJSqUUWBEEQ5oGiY0OHLbIzC004UEaGimqhUCjhkuu3YuKWP+LK318kozIPMmLBC8DL3/1J/Z3f3oCBst15RhAEQRB6h8lmgpef+CB850P/IZ5wEJE+ZQeZF7/rU/qMX12GVX1SSSkIgiD0JiuKGmf85g942XtOlSabg4hI2UHkJe/8uD7jgj+hMLgaFtLOs4IgCILQW1g24FJe9d1fXZHnXZ2nhXlGpOwg8cr3fVGfcdHVWLNqCDpqoAHpxC8IgiD0Ji3lUl5Vx6qVg/j+BVfhHz/wZRGzg4BI2UHgjf/3Jf3dc3+L1WvXozGxAyqNkSmRMkEQBKE3CTMDhk4R1MexfsNh+NZPf4U3fPjzImbzjEjZPPPOz/1Af+b0X2D1yhVoTWyBcoqwK4PtKS8EQRAEoQcpIYFTGgAsD83xzVizaiVOO+vXeNdpPxAxm0dEyuaRD33nfP2/n/smhlatRaPlw/YqgF2CadgIatOdvQRBEASht0ibDRjKQqJcGHYRrSDEyvUb8KEvfBPv/+bPRczmCRnqOg9MB5n+4Y9/jFd/6lysrRp0khNMZjZSq4SCkSDzayg4LqJM0rUgCILQe9jQiOIYRrkfrdSEiuoYMGJkho0ddY2v/vvT8Pzn/S36XUM8Yg6RkzkPfOfc3+mX/9+3MWBLRaQgCIKw9JiMUnzn7a/Cy59xgnjEHCInc4756Z9u1i/8f/+JQmUtPcraTwqCIAjCksKCX9+GMz/7YTz7YceIS8wRciLnkEuvvlU/450fQ2BVUInrSGUVK0EQBGEJYpM9TFtFOGEd5330LTjhYQ8Qn5gD5CTOEdds3q7/9l/fgSk9jFQZQDYNK7M6rwqCIAjC0iGzMmhVhUoyDBjjOOcLH8ZDD1kjTjFLpNPTHLBpLND/8K5PYXtcghnV4fhjkD78giAIwlIlSQGnNQE7aWJ7UsAr/vMU3DXSkpxvloiUzZLxMNT/+D8fxi1bfXhWBWFCUlZUKMDr7CEIgiAIS4sCHNgFjSiroWBXcfOWBjgvHAsCEbNZIJ2eZsl2e8XJP/v9dbBtDzYSeGUPQURFiESR8kpNriAIgrD00EmKmG69chVZFEPDwB3btmLrtu249oLz3tveS9hfpKZsFrzpc9/XZ537B1RLQ7CcCKYTo1nXyNISzILd2UsQBEEQlhZW0UGaeqhPx3neZ3sh+ssrwXniGz/zPaktO0BEyg6QL575C/25754Ls1SiR0neqT8JAdvSsMwEGTe4C4IgCMISJI0p36O8zrEpB6S8z0xNnm4WVrmML5x+Hj77vZ+JmB0AImUHwA8vvFa/5/PfgG3bME0TSilofd/0t+tjQRAEQVgq3F+ex3kh54mcN77/q9/D6b+6UjLC/USkbD+5+o5R/Z5PfA4joXWPlAmCIAiCgHukjPPI9376S7jyth0iZvuB9ETfD7Y0tH72v72NxGw7Vg+uRRQ38+e5hNAtJfDWRWrLBEEQhKXIrnndrnmg51awc3I7Hrh2AD/93Cdx+ICMfNsXpJpnP7i94Zx84c1b0D+8ElltHNq07hGvmYlRZEwQBEFYDuya992TJ4ZN6GIFW0ensXnjbbjp97+SEZn7gDRf7iNv/sRp+id/uArD/avhxpTw3M4Lu5BlWb6JmAmCIAhLFc7juvnd/REgRCFVWDm0Dpx3vuVTn5dMcR8QKdsHPv2D3+rPnvkrDK5ah6Q5iahVh2GV7ikddEsK9ykldF4TBEEQhKXGrrVj3XyQyW+NAowsRtyYQKl/GJ//0W/xmbMuFDHbCyJle+FHl1+n/+cbZ8GtHoG41kSxRAnPM5GE965r2RWxLpwgDUNOrSAIgrA04TyuK2FdZuaFJkqIjRSFIpA2fKTWarznaz/AT/90s4jZHpDqnD1w+bjWr3zt/8PWKZ+kv4osycj8M1hmCo2EEqBMECsIgiAIu6JUTIJhIUlNZCRwhmUg82tY11/AN7/0WTxqaBejE3KkOmc31GKtT/7gxzBea8BybOgsgWOZJGIpYpIz09pNpzJBEARBWOZwHsl5JeeZed5JeSjnpZynct7KeWxnV2EGMvpyNyRrH3byd374czjlKrSh8hn6bbpV0FBk/ZHOyGhF9AVBEARhVziPtJQBk/JNk7LKJImh+I6ycOONtyGEg0t/drqMyNwFqSm7H755/u/1J75xBior1sL2ykhibrJUSMKgnchsB0kqki8IgiAI9wfnkZxXcp6Z552ch1Jeynkq562cx37jvEslI90FkbJduOj6u/TJn/0mvFIZhuOgFUTISO55huL28N8EaRzljwVBEARB+HM4j+S8kvNMzjvzPJTyUs5TOW/lPJbz2guvu1PEbAYiZTPY2Yj0Oz/xZWyZClAuuQj9FjTSfNkIbhu3LCu/HwQBTDlzgiAIgnC/cB6Z55WUZ3LemffFpvucp3LeWil72Dod4j8/+ZU87+382bJH+pTNYKyw/uRfXn4TCpVqPheZayjYFtk9J6OMExklLtrSLIahOA2JmQmCIAjCn6ETniMDju0iVQrcr9+gPNWlPNTMEgRhALdYxeZtY9gxOoarf/tT6V9GiFV0+MLZF+ivn3MBXBIyHQdwPI+MNUWaRPncK2z6SaYRxBFKBS8fSSIIgiAIwp/DeSTnlZxnct7JeSjnpZynct7qFgp5XutV+8B5L+fBnT9d1sjwQeLiG8f0C17/VoTlKkJKSCqOUSab51lWBEEQBEGYW1JLQ0UapjZgOQ6SsIZvf+5/8cxjVi7rjHfZ15Rtmgr1/5xyCppk8irWKGQGbDotEe5/PS9BEARBEGaHTnlWAzNfGSBNNYIkw0c/dgo2Ty/v/mXLvk+ZWnXkyd/95QWwSgPwYMGmhKKMDLGlYGipKRMEQRCEucag7NVQChkJmeKmTbq/ceNtbGv4/XlnL9v+Zcu6puyrv/iT/ty3z8TqdYfDsl0kihdPSvPXTJmHTBAEQRDmh0zDoGw2U1k+mM6wHKygvJjz5C/+8qplmwEvWym7duNm/f4vfAWpVYaNAnSUItIxYsfI51Kx4s6OgiAIgiDMLSkLGfIVctI0RpKkUFYBqVPB/572FVx3x5ZlKWbLUsp2xlq/77Rv486tO7Bq3SGoT07l7biGpcjYebFxXhpCJocVBEEQhHnBsPK8NtMJTLO9FNM05cUr16zHxi07wHk059WdvZcNy1LKvnzGL3HWBVdixfAqtPwQmQVYjoJLP7+VZHRWFAJbpnATBEEQhHnBMMHdtrnxkuf9dC0Fh/Jen/Lk4dWr8zz6S6f/orPz8mHZSdllN2zUp37p6yiuOhxWmCIIWlBF7k+WIvMDFGGC54VtyehLQRAEQZgX0kxDk4QZtoUoCmHqDK7tIKQ8OUmSPI/+zJe/gd9ff/uyqi1bVlI2Hvr6Lad8GeOphzLPKEwJwnEcGGEExZMPux5aSuUT3JWzdod/QRAEQRDmFtOgPDZOYSQGLNNFSJIWIYFl21CZgWISYQolnPTxz2MiCpaNmC2rNrpo+IiTf/CryzG0Yg0Sv8GpovOKIAiCIAi9gpGlsIpF3LV1O1rNBv5w/o+XxTQZy8ZKfvyHm/SXfnwxvMG1CMOQm7MFQRAEQehFVJbn1Zxnc9599u9vWBa1ZctCyqbCTP/Xp76CVuahyB344yYy0+q8KgiCIAhCL8Hz+jsqzhcvD1UJ7/n01zBSX/rNmMtCyv7n1K/jujt2oL9cQjK5HX0FC76WpktBEARB6EVCZaG/aCOb3pnn3dfdNYL3fvabnVeXLkveTM668I/6Cz88FwOr18JMffQXXMRxCqVUZw9BEARBEHoJy7LQaLSwoloGogb6V6zC13/2G5zxmz8s6dqyJS1lm6cTfep3zoFR6offmITKUvi6gGZkwlUyulIQBEEQehHOozmvbqYudBKjVZ/I8/JTvvWjPG/v7LbkWNLd3Y11x578vZ/9Gt7AEFxEZKA2WrpICm7D0wFPWdfZUxAEQRCEXsHWCVRhENyNrOgo2HaG2LCx8c5N4FlnLzvvzCU5GnPJtuFdcOVd+plveR9M08w3wzDy+cd446ZL3vi+IAiCIAi9BefPnG9373e7HPHEsnEc48cffRue8ugHLzmHWZJVRZOJ1v/zudPukbFd+4915UwQBEEQhN6jW3Eyc2M4T+e8/UNf+Tp2NJZeRr4kpeyL3/kFLrz++vzHmyllImKCIAiCsHi4PynjQQC/ve5WfPF7Z+fPLSWWXNXfxTfs1M99/TuQVYtQ0b1VnjN/VGbX2jNBEARBEHqDmTVl3ccz8+1QK5TSOn746Q/hcQ9ev2Qy9CVXU/b+b34bE3GGSlroPHNvDVn3R931xxUEQRAEoXe4v3y7K2m8VbMCJlLO85fW3GVLSsq+8KNf6/MvuQwDa1YhqjXz57o/rCAIgiAIi4+ZlSjdPN1MIniVfpx/8eX46k8uXTIZ/ZKRshu2BfoT3/0xbNsDWk0khXu/2v2JWZZlnXuCIAiCIPQa3VqxLt37LGlJge63QphGFR//7g9w7ZbakhCzJSNlH/v+D3DL9gmsrgxCBU0Ehd03T+76QwuCIAiC0Ft08+lunt19zFI2qZooKQNr+1bhhjvuxqfO/EH+2mJnSXSs+vU1O/Vz3vg2qFIfCjGZptLwrRT0nzCPGEbSrnHUBmzTpFsqvXRc11AWEnoqTdP8QuqOgu1eVPxYaisFQVgszBQC3rIwhEUxzjbpMbL89YTvKROU+8Cmx/zczL8T5o7QduD5NdiU1zTNMrK4gdM//nY852FHL+oTvSRSydP/5d360tu3IbUKcOixaQBxloI0oL2DMC8khtUOOFl7lCtXu/LjbtCysuiegMQSxrCIdWWs+5wgCEKvwXGqG8u6dOMbY/LyfX4LaUxyZln3FDQTCm/5pOU6yfdjZr6HMDekdI7tLAGdabQyBVMleNiGPlzwpf9d1Cd70aeUU8/6hX7bRz6NUv/6fCElTSUXj4ovcdOH4didvYT5QNnePZJF4SgPPPQL5I81P2e0S4n58x0B48czA5sgCEIv0o1TM2MVP9clTAw4jpMLGM8yz6+ZtGtea5akoGfu+dtd453EwNmT6Ri2U6L8BojDFhzXxPTOrfjEf52ENz7/yYv25C7qVHHLZKqf+U+vwWhLwUURmhJ5Q4dwqNTiBnRRWFITM68EPiy3HZRSneVNlRxoTMPKb31179JWM4MZC1q3VCkIgtCrzBSnXeNYiQqdQRSRHBiwbRsG7csLZ6sszuUsNFwRr3nEzCJEdjmvmXSzFizbQCvWWF0wcM6X/w/HrqgsypO/qFPM//v4d/WXz/4RzMoAvMSGR6WWibAOyzDRZzhoZfdWHwtzT9kyEaUJkpSEjATMtJ1cthK6SnhtsrLl5vtxIOvWqDEcqLqbIAhCLzJTwGbe78auIG3kNWXKcvKYl1DB1KKQxt1nuEtHpu+NbzOFrvv3M99T2H8KRoap1MorY8pWDJ0phHAQNybxyuc+EV982z+LlB1MLr7+bv38k96LmEooEZVUFImBS5KQUCnFJhlIYxIAKskI80emHdB1AD7LKf9LU2RJAiPVeX++xGzes/4os2uQEykTBKHXmRm3urX8vBWVk8c8P4wQRCGU4cAuFAGStIz+pqjje2Icv0f3fUTK5gaT8hntkhDrhPJ/ljIDmWHDNSlviqZx9qfejxOPPWzRZTKL7oBbrZYOCgW87p0fw48vuQ5FrwTHK6Ae1OAYijxZwSQpq8UR3I4MCPOEVaQSYgSdRnmVfdECDlk5hIc+4Gg84MgjcNyh6/Nqfe4E22VmQJLmS0EQepWuUM2En2Mh41t3xSrUalOYnJzElm1bcfnV1+PSP12P7VNNOIUyxUUqoHYErhvzZoqZMDuSWMHz6JwaGfxIw4SNkm0iTGLUggDPe8yD8cWPvBVu4KNUKC6aE74oU8YZl16rX/UfJ8MeWAM3ITumhB67GUkZeUIrRkQGnVTKMKn0IswfGZ3fNAmxbuUAnnLio/GcJz0ODz/mMKxw2hGnlsS6atkSfQRBWHI064EuVbz7xLfbxkN9xrm/xfd/+FNsnGjlLQVcKN1VyhgRs1lilpG2tsEtWAitPhipAbNZg+Ha8J0S9Ohd+PonTsaLTjhuUZ3oRZkqHvIP79N3brsdrlXqPCPMBylClIw+NJsxMipoGEYIO0rguGVsrwU4qtrAq17yQrzoGU/BA4fbnSqnmqEO6OKgSART+vQJgrBEYanijZswefQltwq4rkWP8xYdnHzaN/DNX18IVV0NXY8xSPLQjJpw7AJ0YCCz4847CfNBFPs4asMD8dsvvQOD9uIx4EUnZR89/Zf6Pad9B31FDzF3aBLmDa0VSMcwUK5iavsICv1V6JKBsY234+XPeBbecdI/Yt1KD0MUmSZbieZpMXhyDJ/b+ilpeTwESRAEYQnC3S+4aZJrv1jM+D7XivFjHuhkVBx886wL8f5Tvgij2oc0oee5Ka1UQprdt6+aMPdwG00jiPE///pivOMlTxUpmw/uGGnpJ7/hndi0cxKDbgWxkkQ9r1gektSH9hsYKg+jkWRoJnW86WXPxX+94nmIIuTzkoVhSAEmhVcq0hMKUZa2O/hn8vsIgrA06YoY15axoLFkdWvP8vumgSHPUN8852J90ic+DWNgFZJmAgspsqIBBFJonU88yp1G/GkcsWYlfvnpD+GwVfdtau5VFlWq+M8v/Vx/+KvfwaoVAwhbKSX6zgvCvOBT3CjGGYqOjSYS1CYm8Yl3/AdO+rtHq2YY6Cym5GNQiFG0I/3HqSmMYipCkqB5JHQ8gYwgCMISZKaEdR+znPFjlrWYCrNl2wH3O3vn507XH//WOagOrUMaNmnfJu1DhVhh3lDagGVrjE618I5XvQgfed2zFoXvcFa6KLhhy3b9lZ+cj4JbhREmiGwxsvnGycJcuhoJ0KjV8KG3vz4Xsp07xnUzihCpDIGO4KcxbRmilHbnKnzDhMkdKwRBEJYo3abLXedf7LJqsKqmIh87Gy39kX/7e/X4Y49Fo1GD5RXgJLLazHyTWCaMKEHJK+Mr55yHazZvXxRNN4tGyk79wbkYGR2nE+wgoww/zWfHEuYTN1ZIPQtTjXG87GlPwr8+50RM1hu6MFSBzSNfTApKpkXeRhJmcukQuZBxYApD6cQqCMLygOWM6TZn8uMdk742KyVoh1dkBv7nzf+GAgJoKsSaltSSzTe8zJUmXy47NkYnJnHaD87rvNLbLAopu+SmzfoH51+OUqUMQ4XIHBe2VMTMO4lRho4DHL6qjDe/+vnos5UyTBtNP0FCMcjMHBipCYsSvpEkSMMAKQUcRaKm3PYSI3vaBEEQFiszmy/5flfMGL5fKHlQEcXJBLmgPeFBA+pvT3gogukJ1LnLhzCvGEkG7bnIshbK1QrO/MUfcNGNd/d8bc6iSBmf/d4PMNXQKCsTcebz/FdU4pDmy/mmVehDMDKO1z33qTh+/YDaPD6hzcyGaxQQuioPNrzZWsGl34Yn72V4HcyoM7poT5sgCMJipdt/rFvAnNnZn+FZ/guw4cQadqeP+Uuf+ddwdYyQZ9oW5hV2hFaaIkqbuTtMNw189jtndF7tXXpeyn55ze365xdeicpgGZNRAJOEoAxea1Gax+aamaLEgcWI69gwXMDfPvmJGI+0LlQG0NIJnf0AhUQjtTJkts5HwVKBMF/iQlHi50GxtoyMFQRhCdPtU9YVMX7MdB9zLDRs7nebIslcjPtaP/hBD8SDjjwE2VQz36fLzNgrzA3sCG4Ww7LLmAh9lAcKOP/iq3On6OzSk/S8lH3j+2dRgjaQ8rJJbnuBa0r+bA35fWH+CJsNPPQvHow1q4aRJRRYqMTHgScPRjJHnCAIwm4xeWR62pkeiNdjJDmrlDwcfuh6qEz638w7LMYdxWF3YIdgl2Cn6GV6Wsp+fs0m/dPfXgbLK3KKztey5Cpi9oFscc3msSjJ4gCPOP6hGHCU4gTdLQGKkAmCIOwZrjfggZksZdzZRsdxHksffMzRMLSsdjLfsCPkrkA/Qr4ONjkEuwQ7BbtFZ7eeo6el7POn/wShUYBTKMKiI0158WuuLqbDTrWIwXzjUCRZs3o4v0/JGy79CEq3+03onk45giAICwsLWcqxUqdIU8616Ali7aphkbKDADsCn3XOr9gd2CHYJdgp2C16lZ7NWn99+dX6/N/9EW51IE/cbLntjpV0yMa97ffC/MHTXDiWiUYUaYvOO6Xt/Ddo96Xo7CQIgiD8GSwDXEvGt924ybiuDXo2vy/MH/n5JldgZ+Dz33YIOv/kFOwW7BidXXuKnjWbL5DJZoaZlzCyJM5ramzbzc2XT7CppE1+vuG1L7kzRNlxFEwDcZzkzZfdQCMIgiDcPzM7//Nt9z5nu5o7mQnzCjsCuwI7A7sDOwS7RO4UdP7ZMXqRnpSyH11+m/7llbegv1qGpUjAdJJLAM+RpbmmjIxXZzL6cr7JBbjTTMz9UlmDObBwQp85ckgQBEG4LxwidWdlE251uGfVOWXmC5IL80vuCOwK5Ay5O3DNJbkEOwW7BTsGu0Zn956hJ6Xs9HN+islYIWjWUPRsPrv5KJaYUjLX3nAhw5ApF+Ydw7LvWb+S5x6z7fbs/XEcU8LOnxYEQRDuB5ayJOG+Y1xLRvc7Iy7zuEqyIMwv7AjsCuwM7A7sEOwS7BTsFuwY7Bq9Rs9lrT/70x36BW/5GEpmklcxCgsD14Q1mz6+9sGT8LITj1fjjUinMDsyxiNgrbw6eE8UwxST/TbcWgwHNiZKDayJNepGBUOuVLUJgtDbjIdaV7I6ttsKg80yIsQIqzYGpmK03D3nT9zS0O7Qb7RXQEGKobKjvnvR1frV/3UKSqWCdANZQAyS5GZq4ayPvxXPetgRPZMf9VzG+NJ3f0qfeeG16K94SFJJsAvFXEhZnAaIiwVUWgmczMakF6IWtPDj0IQTN+GqUmdPQRCE3iLUTUR2Cc91U1S9IgYCF5ERo160YLd82KbX2fP+ESnrbSxTYaoe4IVPOA7f+8CbRMruj4tu3qaf+y/vgLZdmLYl82EtIHMhZb4RwTAsFEiurdRGYgHX+XW8fWIaSULClrUnAxYEQeg1bCOEZXn46GAf/qJQgUV+lZgxfMrMsyxBIWsvNL47RMp6G2VopDx4LQ7x4y/8L0584NqeEI6esp6Xvv/L+oxfXIqVfS5aPHt871XkLRvmQsqUaUDHKTI7Iwmzsaak1BXjvv7HHeMoGTaKe/5zQRCEBaNlAM0sxtdXD+GRQwW1vam1ZcUwYsqZbBN6L731Rcp6Gx6XWbQVRqZDvPipf4Xvvec1ImUzueq2u/XfvP5DiC0XXlJDahbyNRSFhWEupMzKKHglGZrFGFFk4tCyra4db+lX7xjDsF3GtGp19hQEQegt+nQRY3EDX1s9jOOGiuruRqwdJ0WpZUNbJFqGSNlihicWMFMfgVWFnYT4zWnvwsOPPnTBnahnpOz1//dVfdqPLsTAYB8QNJGZLiVlSbALxVxIWaINuCnt7ZGUxSZWl0z1x8lp/cqRcfRZHuxIfl9BEHqT2FGYTgJ8c+UQHjHQp3Y0U+3YKYzARmhSoVOJlC1meBkmIw0Br4TJiWm8/u+egNPe9k8iZcxVm8b1s19/MmpBBM+kRGqYiCgzN3tGGZcfcyFlIb0Hd4U1jRRpbMG1MvwpaOD1o1OgAieq6Z77ZAiCICwUNTNCRPJ12op+PMwrI0wMmHaCNDMR0OvuXoRKpKy34XGEvJQgT8IZpApVz8FPTzsZD98wtKDm0RPa84FvnKPf/eWfYWXVRtqagnYHSApMZFnU2UM42MxJTZlKaX8KTDyLcuZBkYnd5Ed4944a7DBFoygBSRCE3qTcUohdEx9YXcWDCg40GZppBMh4njGdwdIyJcZixjDoN6VcTYWTMIv9GKnF+MBrnoV3v+pvl7eUbQ+1fsLLT8L2egaVJjBJxEzXRUgJ2eKFqoQFYS6kjAofsCkaaTtFkjgomymuDQK8fmQCZSptyuBaQRB6FYN8qWGkOG3lII7zPDRSin9WBBWbiCkQcqPOnhAp620C8ouKYyENQ8SwoE0Lq0rAhd85FesKlAEuEAs+o/+PfvZL7Bgbz2c+tm07nzE+X7x1z4UQQRAEQRCEA8KyjfYs/4bK3YO9Y2Rikpzk/M4eC8OCS9mZPzkfMRUmePoEXuha0SFx6WFvw40FQRAEQRAOBJ7dIXcNUg1uGWIHSTMDZ/30F5hIF64Kc0Gl7KzLbtM33rkNhUolX+ia1wPjdapYznKDFQRBEARBmGO4ZsyyrNw52D3YO9hF2El+c/ltnb0OPgsqZd86+1y0UiNfwT1fzT1N8g6UPAu8KZOUCYIgCIIwDxhou0betzlL89Y5RY+bicK3zzmvvdMCsGBS9sdbt+qLr7weyi0giiI6kCQ3VWgDcZLkNWeCIAiCIAhzDTdZsmsomO2uUzpGGIa5k1xy1Q25o3R2PagsiPlMpVqfce5vMR2QiDluPorPUDq/5Q53cRznJ0oQBEEQBGHO4Qogcg1uwmT3MMmG+NZyPdTCFOwo7CqdvQ8aCyJl0y3g3AsugTLb7bmWRQKWZfecID4sqSkTBEEQBGE+YMdo+4eVuwc7iG23nYSnf2BHYVc52CyI+Zx/4cW4biRCyWUZS+k/BWXYtBkI44BOjIkskY7+wsKSUdo0sgRORoUFTRetiumCpRIVpVcvMhHZgG9qbniHm7pwtIdUGfn8bFy0mC3lsNPnQdO1kdowKWCYKoNOA4RGjEwF+aaMhGIIFegMLudxwY5HMttI6G+tiI4/SVCgY1QGHR8cepxBZbOPNqmh8+/KI5hUxlveEACe+JnnaNIqzfdJ6Nhigwpdqr0/NxvwOOvUNBFyP1L6TimdMN5HU3HVUS4Mf/YFVD4OnmJHWwox/Ut4DkSdwqOjc9MU2rbz41QZH7Wdn2v+Lvy7c1wSBGEJQzHLstrOYVAs0hQFKBxBUYwvOgauH43xi4su6ex88FgQKeO5yXiOEEHoZQySg8hw0aACQ0QyY2UebMNB6BoYLQGFKMXq0MBgnMFXIRokSLx8lJMaqPM461lSq7iIA58CRwTDS9BsNul9FezKMIbCItxsBVx/AEbNQdQA6nGKGv1dnSJLoxkCiYdmicTDjrHdnMBINo1SZiEplxE7xfaHzAIWGJMFiwIab1y5TaqTP88bkhIJrA2bZM0lQXNJHllWdeYizcr0nIkiyaOrTVh03oyUpI1KrBEJsFXkBbpmR0gClvgxbF+hpMpwvD767Yqo07H6JGCVRgiHS8gk2zFCpGmcTxjq0DHZtJ8gCMsXkwpzP/zpLzqPDh4H3YwuvnGTvuSaW1AoFDrPCEJvolVGEkZCYZMgmBaaWQw/8uFECVaQRHA19yTZxDQlZdNrS0mT9C2h2yGv2nmXAycir7LKHlQaIggbMMolVLMi9EgLW40AW7AdrfIUVqzOcMJaF69Y1YfXrKji+YMOTuhPUba3ohqH2ExSWU2rON4somlPoD4xgULQ3/mUA4drx/JR0x0JawtZSk/pvDbMdqZIwnzYkQmvVc03vk9nkgplE0iDiC0ufx/u1eHSOTboNqHzHJk8E/rsoLcDWR9iz0BMoprWApi02RkdQ8lDrWggKNFr9Lqy6RjIyEz6vWP6Wiy2giAsX9hRLr76ZvzuhrtnX22/Hxx0Kfv6j34OX3nwHLfzjCD0JuU0ghW3oMMmzCRCVZmomDYUSUeDnjfNEqVlE/UohvZjlLRBAucgNTL4zUbnXQ4cy3FQnArBfU1VqYzBloU4itCqhjjGjvHW/io+vfYQnLl+nfr4qhXqbcNV9Zqyif9Zs0p9+rDD1A8POwrvWH0InoZ+1Mk0bg4a6E9NDFRLmLb9zqccOA4vtcVSlqT5VDZ57RihSG54RY44c+n8GKg5PsZL9XybdgO0KOqE2qLzRE5H4sR/m9B7mLSvw/1LSe5iErPZYpFAG/S7qTQm94vpfJL4FS3oLEJ9aoJEzUAaKaggRRrSHnQcqUmPSSgdNjNBEJYtjmXnrsLOcjA5qFK2o+7rX192NUyvjFRKokKPs7Wg4FsWSrBRIgGJbQs1z4LvujDsMlokY0Opi9VGNe/DlaYZyJdQSoE6SdNssWIfUdmFjl24UwZaNolOycdjyhonH3ko/mXNGvXoos2z7NxD2S3d87hqO+oxlRSfPbpPfe7w9VhVqeK6JEMrSzGcckPn7OCOsiwwPM9P3k/M5AE6JDUsZxlJWmLDyRyUswLJoIs+krQq3ffo1kicXMjg2UhcE74mKeKlPUjyWM4OdKBPt9aOt0R7+efYJIA2WWJqaUTI8mbTlUaRjsnDUOyhmnigvRDR8fsk1LxGYZVrAQVBWLZw31J2FXaW7bXWQQsIB1XKzvrNZdgxWYfjWkiioPOsIPQmq6N+FNICGkmCkaSJyXAKLb+O2G8gCZokFXWMYxKjqo7QMfKO640kRJymGHRn3zxfpqCwBSEFhgqUZWJMj+D5A304de3h6i+4w8M+EBgRduhJ/biyUl+vrsDTB4uYjhuom6XOHgcOz4jNtVwsZCxjnSeBJCWRTBAaPloqxHQaY8QPMeZHqGcRQjOic+UjDVqIIx+ZSYHIsZBHPfpzkxsxDyAEdmvquhTtATRJlkfoHExb9LlpA7XWOLZkk7itL8JWdxojbgstJ4NlOiSLNrjVlGvMAqnIF4RlDTsKuwo7yw9/+4fOs/PPQZOycYqY3//5BUgpgHtWe31LQehlammAEbOBVrWF44YtvG3NGnx17ZH4wobD8f5DD8XLVw3gwSXK0NNJJCRrnKKjEjfZaWS12Y9unE5aWE/yVLNC+E4Nrx0cxjuHB/dJxrqsVBW1Wg3kf7N2UKk3rijhLwZLCP3ZX/osZIym78ujyFnSeNQ0zznokUSuUgb+pq+Ct68fxhePWo0vHbka/7l+JZ5areAQg163HNhhTCctygcKsHh2Q1KWzj4+TISj6M/qeJyl8W/lCj629nB848hj8ZVVD8Ap5ioc5yYYIKFu0u9Xy1r5qNpCYpNktmslBUFY3hSpsJgZBthd2GE6T88rB03K/nTTFtx89468RIo0pA8WKRN6m5ZZw1MKFXxm4Gh8fc2h6pVDFfWoAaUe1afU0/oM9abBIfXpDUfjpA3HYoPjoeE34GYWqsUK6h63zc0OFptQJQhI+B5vOHjzyhX7JWT3x3F2Rf2Huw595WbnmQOHF/DlKSfylTgIjlmKhcx2UCmV8ZX1a/F/ZIIv7S+ox5Zd9eiyo15QddX7V/err61fh2PXbsAw1yhGSS5zXMnGgwQykqK8U9osObSa4V8O2YAvHHmo+pfVQ+oJfbbaUPbx+CFTPWdtQX3/kKPUSQOH4hjPQWJnCOgn48kxnNiEFc5+9KwgCIsXk6MtuYptubm7sMMcDA6alJ173qUYDRooUODjYe+wZMi5sGe80CW5sZFQmol4SgVlw2kZiJ0S0oSyz1RDm1SSCTUcysR9K0Fi8n5GnsHvDe4zwHOMJXRbRYoJL4EdeSRDfRhPWnh+OcW/r+rHCSRgnT/5M4aUUq8om+pDh1fwQMdHGFBxI3ARq9l39G/ZRZhTCisrMf5jzexHS3ZZPwD8u5NhPPORWf2ww7agmaoK3wxRSEiMLCo87QWPLKaYGpi2JlFPfLh6VT5K9GkrW/jRIf1qTXn3TazlglLv6WvgU8MrAZeELrRRICHjZs2mEaGfft+9wfOiFSwKYZRAmraBcuSjiDLuSmL8pefj7EOPUC+u3PcYhlTxPo+fM1xSX6ZjOLIUQjdS6ILGiDMKJ5t9864gCIsYcpTQb8I1E4xSjPzpzy/svDC/HBQpG58K9W8v+z1MKu1bXoFK12xm0tFf2DPKbMGNm/B0BMOMkTohsgJt5jQUZbqJxZONZiRp7YlJncyEiihjp8ydJyfdG1zL4yjatIUGOYBDcmeQzY2G43hMoYznrj0GR7p5eWmvPNCqqn9feyy9ZxMhAvSp2WfqBRLLgETzcd4KrC1W9uk49oX1JJIPWrEah+SDE2LEubfwd0/zDvY8tcW+TJ7KIxonjRQFUqGVmYcxNYVnrlyLZ/Qd3tljz2SwMVg08Zb+I5GRFAVZQqJsYDhzMU1yvVcyjWbA6UGhnFqUDkxMpjU8utKHF64+orPT3ilXK+rNww/AmoLCVNDEYFZESmlLEITli6bCnWm7sL0yFVhtXHDZ5RibDOa9ie+gSNmvr74W12+8C4OlAbQo0+NRahZlooKwJxKjCDsowI2qMMIykqhA0lWAV3fg+S6chGfW17C1gkoyVChjdlKFhKRC2XtvPsxUBoP+ziCF800TxdQElRuohOTjRcOr8QhD7ZcIndCv1FP7eC6wOixuC5slJlf3OQmeWxjqPDN3PKhQVMd7JB9ZgIgHcBp0zkjQWGZjergv3SdCK0XG87jFPJcaUCUhfUH/IB6s9k1kK8pTFVepv1+p1AOLQEvF9FvSb8xr0pHs7Q2egJpXCADJdYHSgW/R35HIP6fahxML+3YMXR5nG+pZg3309ylcEswonn1NpyAIixeTRx0R7CwDxX7cdNdm/Oaa6/Ln5pODImU//O3vkFEGUKAcz0/anYJ5RXZB2BOJ04JlJaCcGhlllj5ChIUUMclA5NLFYtngcktEQhFwFmy0l8rhpYayfUhf7clP23NTsQM4PK0pvfeRRQ/P7Ns/IevyuuoQaU0LST7fw+xoZDFW2CYeUzmwY9kbDy8WSL5IrLgJkAQVdJ8FlZeKMjoBaU+kToYy9/0KLYwaCR5XLOGhB3iszy+U6XfQFCOKmEQEL7etPcNC6HAzK/3+OtaUOgysLbn4a+/AwtpLBgoYth20KC3YnUEMgiAsT9hRFBXWW3ECT9nQhVLuMvPNvEpZM2nqbVub+ndX3wSnXIbfauYTsnHHOb0PzSPC8sbnpjXKmxuUVswkg50viZPms79DW3BJIHikn0uWzxMqtLIEkUVSkdLtPqztyBVhLCXkFHApU9eZwphu4Xi73Nlj/1lXVWqDNqDnYHLkmkpwpDN/K18cQ/JpGhk5jZ03BZKe5re8MuW+BIa8hY+k1qTv27AUSVml/cJ+Usum9AleBSUSrDws6CSfZmNv8JxjvORnEvvQdIdHbB7jlnBY8cDEsOoo9SCjgDr9ucfr8gqCsGzJKB/hgYkO+Uqr0YRN8Y1dZvOmmm6l8zdv2bxKWckqqbMv/QN2TLVg05dLkiCfuDGOqUS+b9MsCcuYsu6HMspoUvIfoPSz1uDFqgOShgBhQhkxxpHa05TOWigZCQlVI58vrGg4qNCFtDcMlieTNpIfh96V+1NxRn+4NTsRekChgiCZfU1wStfKIBVi5os+pz1RqxO3w0BskZAlJFuKFXfvhSYvtdGAD9O1UKBz1554Y/+pGv1qlWerQfoVmlmAQTqmYPdjK+6BxY2cOq8V1UUr74+2kpcJOEDqWUsfabtIKU3EqdSUCcJyxrQthGGcOwvHGMs0sX2ihXN+/0cUzfsOGJpL5lXKmNN/dzEF/iIFenpA+YsVxSRnFPmN2TfvCEubUNcpc56mC2AaL1tdxacOXYuvbFiLnxxxBH5z2Aact+YBOGPDg/Dl1cfgTX0bcIhu1/CkQYJasnep0Dx6k5KhovSYkJBYJBalzM5rimaDYVOmTgWQ2cIz4Qfz2Myf6YjExoQX0XnjllwSWtA54WkhuAZxb2SKSpEkL7GKUUgyhNwEOgtsEirup5YaFABJsPaGm9Fx0i17a0RSzrVs5myaHTWlB1vnE+Em0d6/vyAISxduuuQKJDtOoLgAyzmDUcCZl/y+s8f8MK9SdsstW/WVt29EwSlSsE8QUynYpsDneUUESdTZSxDun764CiO28wxyretiQ8lSw3aMfkepSkmpUlWpohVjQ0WpoQI3czbzUZhF7aJq7L0JkjN0nmvLjiP4Nk98GqOUKIyHs1sXcmtUh+vNvvmrmliYysLOo7knpPfm2kIzrykzkHYmdebgwxPB7o0G146RuzTSJlRKd6zZfed88lnXwJgd0Hffe2hSFDBjbsKkj43jkI5dQdl7n8pjd1TMktpq8PQgGcqzrC0VBGFxE2UJXMp3HIqNmUrz0ZhFt4Q/3bkRN9+8ZXE2X37ryluBSR+ualEBPINllSmQ8ySREZVopaZM2DMt24dnaCRUOrHids1Tn+q/T7XxkHLyxwGlsQzDKEYRapUI8T5MucISgogy84IHp2nDIpmLnATXxuOdPfafrTrTjVaKaBbNaF1GnUmMJbNfo3J3jPoDmDLGMF1K0OfbMPmclTSayTRsa+8jPi01TddymQS4D9uTOm6bPvDawV82Uj1lRHAjC8PTfQjs6c4ru4elzCqQuFouvMBG0bFxWW3vf7cnJkcDTBp+3nQsCMLyReUxPEFdcYuCC6143VxymbEGvn3Vbe2d5oF5lbLfXXo5lGkhyaj0bdj3KX13ZwEXhIWCa4mMjBfQJkEzWf4yEjsDo6nGJXWtG+n+z0lzVjCNm+m9Vqez7wt2SDqMW80MG4N9mJ/iALjGpwDDs+eTnHIfLp7fjaejyBcaJ+HZG1bmYpRl2VZYVaji58EOTEcHdqxXNEZIQBv0VhqW7aK+D5PXNj0DYRxhuJHCoePn496Zxjir2TigYzi3nuo7gxAPtElWMfsVDwRBWLzMdBR2F3YYdhl2Gnab+WLepOyKm+/WV117AwrlPmTKyifq5I/jKQu4ieQgLSMlCLuFm7sMEjDuT5VaJGUkQJaysSPW+PHkOMqmp8Z0pEf1vsnZJpKnq+6sY8AvYawyBx394YI8Bb8MJzrPzC2XNsdJgjy6Knk1BL4mVT4CleXG4H6feyGmIMUL9vKcXpY2MZoY+OLkWOfVfeeqhta/bIyj3ywi0j4adgpzH6Q2syykFCzLiUZEv51DAdMnqTyjMYqav/8B5ocTU9jseQj8JirzOMBCEITep+sp7Cy5u5DDsMuw07DbsOO095xb5k3Kzr/wCrQoczPdIjJQKZwyPx4tZVEg5S+6L31WBGE+4VoiTRu3f6aUSjPuQ6AthNrBFX6An0xN6yi0sUJ5+zTS5lsjNfwh7yBvodKafUf/OpoYjgr4cWOq88zcce5EU9+e+ChmFkySmsRUMEnIcjHjkY88DHMv+HTW+hwXWRTlE0J7uh/fq0/g3Dpd+PvIZhKyD05vxvbEAi+jVaTPnuIVEei87w2H4wuVZnme3qYV0yHH6EcJt9UTfGNk/xaE//COaX3VZA2HFKto0Hsh3KefXBCEJQo7CrsKOwu7CzsMuww7DbsNO858MG9S9psrroNXLKEV+PkXy0dc8lfqjI7i0rggLCTcR0Dzkl95MyZ5BAkVT1rqooApeu5/tt2Bn03vvdP/7aOZfuvWcf2NaAKlUl++RI/m6rdZUlAtGLaH2wIDX9l6YE1y98dUovXnx3lQhIMyryEax/k8bzz/W15govu63VVvj3h0TfskdiXTgmMXMUHv0JcM470778JZo9Fej/ePda3fuWMTbq5pDGAFxoMAVSqVOjyMch+kkH8zDyZaPJUHyVlIv59NJVk7dHBmcwynTo7oK8Jwj8cx1sz027ffrX8YNlCyC0BQRx+vCqG8zh6CICxHuo7SdpYsdxiOj+w07DbsOPPBvJjRpbds19fctQ0F10PMAd8yqETb6buTpvTF6L5MiSEsNCRl3JeMrjNY7AGcfeedORUcZVOGvxKnTG7B8+7cqM8YaeipXZrEbqzV9fumd+h3Nnbg/IkGzMhGldK7yQMISFRmi7ZjOHRcblLEGc1x/GqaZ2ybPR+dGMdm30CJ16KleBOD52njPmL0mSRmvGRVtg/zCPL41jBL6C8stPgrU/DyYpKkwMZnJnfgvXds1r8cb+ix6L41Z7+rRfpjm0f0x0a24+ogQn9UQMlyScw8jCYtDGonb8LcG/m8anGa+1vZsBHSF6jTd+nXLsYNhS/eMY1Ttk3hy5NNfXUr1LWIirrENEnpHc1Unz4+oV87dRvOrrdQrZGg0t/UUh9NkkLLEykThOUMOwq7CjsL5w3sMOwy7DTsNuw47Dqd3eeMeZGy8393CcZbPOUFZXC2lU9QafIndeYxkuZLoRfg0YY8eSzPk2prA8o2EJi8cmZMekDCRhfegNGHkUDhf8c34cnbb8STt9yuX7DpDv2Sjbfrt27fgq/fuQ3bYgPrKsPoK7oIa3VUGzxn1+ylzCdp4muFa27GlIlP7dyGKxtaT5JUdHbZb04db+nTp8ZQpu/p0Xf2jRShk9E12i4wGRaPwtRIckPdM7w8la0c8HS+cRajn+xoRE3gaKcfd1EwO7tZwJtHa3jOlu143qZN+vmbNusT79qq37xjCmdNO7gsbOAQewCWSecra6LsuWjyyg0kWDzVxd7gmj3ei+eVa096y2th8l+mKFsWDjOKuMv38enJ7fiXkS34BzqOl9+6U7/y9p141aZt+CA9d8uUicP0SrR0k2JWDaudYcSFIsJwsv0hgiAsS7rNlznkLpxVsMuw07DbsOOw68w18yJlf7ruesrliohCHzaZJd9mCZWoc9s082rBdplVEBYOa0bBgCdM5SkyfCNBpCMSkxSOHwAR1wR58NQQ3GAIwWQZW6ZLuCnuw1i8Gg8qPRAhXbhTE9sxWPPhVctoFm0SldlfWk7oYbRqwElCeKGBkbCAt0xtwY0765099p2dYaD/c+t2/c2tkzgqXoG6O0FxRuffN8gXP+A+dXQ+6NrkpYvuCUZ7oJ4vGm4hIYlarU3UjDqKhRTbwnEclZVgFRsYMCkUhC52TLvYRiKmGiZKaYTMnsCRZj/qSROGQ4+zFm5WNayz+hAZZl5zuTeKFERiEsPEtdCKInpfhQLJa5OlOtHY1sddwyxUWxUUWwOY9B3cGrawNasjdUJUkpU4wjkUk40mnKKJbKhMvykJds2Cbc6+T6AgCIsXdhR2FXYWdhd2mJlOw46Tu84cM+dSdsnd4/qCW8YpGIcwqbQaU8nXtKjET5keKGB2+5aZnVozQdgTXGulM5vSztzPbJ9xE3qS5v2/ePQeYh7JZ8NRDkJ6jqfSy2f8pyuSsn4olhA7hW0nqCCCY7UwnU6iwHPwFQuoOSbCvHk+JUGYg+O1MhSaJE3cHOoqCgZ0iJMp3tts4cVbm/rOeqInsz3b01ayqy82I/2au0dx3hgdc7GE2HPgNfvziXYdbaM/cODTuyiu1Q4jRC4p6t67dKGQWHTuUrqyAxKhBG5ahI6LMG0PvvLhxna+akKmElh0znhLecZ+Rd9FuySzvOAvxYiMp6t1sCp1UVMRwiyCTSXSvdE06LzTX9oRxRMKnLw8Eg844No+PvxCxKdN0XlMEBtUMDRjKuXSdzeKMOICfd8UU+kI3BL9bUIl4ICbrn0S1ogCcrH9IXtA2QEKjQjKKpO8O/SbO6BTkse2fDLdeYZ/v0zzAA0S95QTB923PHBjMa/UYNDVs5w3RamSrmxKYyqvRbU5bfBKH4bK18gVhD3RdpR2XzJ2F3YYdpm201i547DrsPO0/2JumHMpu/iyK1CvN+DMwYLMgrCcYVXh9dYMyj9MkgtefYCzGj8MMVmbxgs334A3bt6Cz4029cWTWt86pfUtDa0vndb6x2OBfvuOnfpNt2/E1zZuxI6MhLPgwYgaCKJRGOX5WylguRBrD2GJhNb2SURDOFR2yOIECVlRSud6vuE55fLxGJR5tCySWYekl6TW4iZpEuWYMpLlvEXoJ7muIItcxCmJuulC23Qx0bVgRbKijDA72HHYddh55pI5l7KLLr0SOkuh56CjsyAsZ7g5UfFIxKzdB5OHZRu2BU23fhyhYmzA7b6HL06M47U7b8dzR27Di7bdiZO2b8KHduzAL+oRbogtNK0yXKuEImmexQtt05ZQCVCYHaZvo0glZ5W0MG7UMW5HKCYWKpGdr8M537C0tyd0IQlUcV6Ta0QBCiRrPGjDTtNlvbVH5wIWT1OTkrAaPLCHCjZa03OS/oXZwY7DrsPOM5fMqZTdunNK33T3VhTK5XxSR0EQZkE+51mbbqdT7uNg2TaUZcFHTC8kKMcm1mYlHJJVMaQL4NXaQLJQbSZYZboYcl0gidGKQsrJPTjWAKyov/POwoHC06fwsAIrzlDNXBipSxk/bSTOFp/reYZHhsUk6Dw0pZBZKGc2jJg1zYGrSiQgPBhj+W4eGnStNGF4LWjHp8yORI1+M7DIGjI5sDA72HHYddh52H06T8+aOZWy3/zhGmwbr8F126PGBEE4cFSnkymLWN7RtCNmKWXCPMFryYjhGgkJWorQTNBSEVo6RKhiKsVxPzcHQRZiOqrnr0XkZpHBtW6gbJtyLWFWaC/DBJ3fTLtYgSEUfRNTKsW2UkRSPP9VZQaV0kOVITHMfGUGRXLeoPsj5ByTpgGXRHE5b77pYIqkeUIl8Pk8ZQqmpmuK/s3B0rTCModjMbsOOw+7z1wxp0nz91ffgJBKbFlKmYJImSDMijhLkMyYbJnrQLpixrUkdXq9RbbG/Wd4+Q9oG3Zqw0sUPPKC1PBgKBdFyrArhkMippCqAKFRR2jt/whO4b60zBDVzIRF5/cWs4mRdByrSY7dvP5s/uOfQb+9SemA+xqydLSyGEWHpCOp0adPYaduLutNZRWgacL1qQBDksYDIjKyMXIzaDpXgjAbOA6z67DzsPvMFVyXOyeMTtb0U9/wPlw/4qNopBSouCvMnL29cJDh/kvNpo+vffAkvOzE49V4I9I8zq49p2iWS0B7lqjdwy0FdkICYadIEgdlM8W1QYDXj0ygTJkZB8c9wZPiZ0aMZmzj1A0VPK5a3e1fXFBv6Hfc1YTlUIGA/tBKqHCQj55ZvKSd5kvWMZYypl3YIT2j38ems8HnOMo0yRu/Rs8ZCgWuYaNfp15romA7cC0zl7tIx+3VBsjf8hGldF6FAyektLnCd9Gi0zhRauGJysYxTj9+MjWKRlKAsuZXzOgSQjHhufU0pulYBoMQz1p9KMzpUURV+n0znt53+aJ1AWZjChXbQs1xcVXDxx1RmNc+uyRl6V4mMOf406C87LSVgzjO89BIKf5ZUV4jGVMg5Klj9gSPATU0jwM28uvTRIqhsqO+e9HV+tX/dQpKpULnehYWI1wo4t+1RRfisSsL+MVn/hsrBnafR+0rs36DLpdcfqV+2kn/i3RgPbysSRkGTyg5Z28vHGREyhYew6XvECd57RiLGcNNj3mHfxKvJAtgGXZeW8Ink8M715rE9C9KE7hFAynXmFG+wIvq8vQT+QLsSdKeyZ+n8RcOHNdEMBWiaht46qoq3rmiT92RaP3KW2+AmW0gAZ7f2sgGXU9rAzoGsoOtXgvHpQZOOepIrOUEImBKp7qf58MgtpD9fG77OM6frlGhxEN/ZuTLcu0JkTJhT9iUQGL6/QKjBHNyC84/5R044VF/Oetrb86aL8/80zY04KBPB3lpPAokLgjCbMhCCugkT10hY7jCjGu5eC40U9l0i7yjd8Ijy2hLKBNQJGkud2SmDNsk+XV4Mlbax0xjEmnam6e0EiFDaNF5pDDFnePNhOTWKFAhwEZEJz0hoTeUg9S04edzoPHEtPRHUYwWlTbCwiA2N3bgxHVF/O/R5VzI+D1dM0HqUoav9m9B9ANhUFcwRQli0lMYCHjetxLK7ABCDve+7LKeRLVJhZiErqVyxnPlyZQYwuxgx2HXYedh92EHmgvmTMquueYamIVCXoqPI8oweNIeQRCEHsUJeV1eE0lJoWn4CKM6rCRCgaSrkFFopDzdTiP0JyHcWKOWuiS7fVhBL6jWzfjy6ofiTZVhPNIduKcEalFI7Tc8Erj5t96kFeRTPnBfwcxMSSR9VLmJQsgZUPddVb+Qevk6shlt9VjWNhVmBzsOuw47D7sPO9BcMCdSdtvWaX3tjTeh5LntfmRUuufFOwVBEHoVg8TLiGPYYQSev7/gWjBdGyndBg43b7XgxCl0xM3gFCodE9u9aRzdp3H24cfjKSuU2lC4rwSxlPVlFpJg/juSazvJVyzgKTkyEjNern5Ch9IethtiM6L8yYfF6746cpqE2ZE7DoUGdh52H3YgdqHOywfMrKVsOk71xdfcBD9oL40SJDE826MDlXp0QRB6GNdDqnlEHokXxdeQImwt8hG2QtgByY5r5ouTR14FO1QTBXMUHxoaxmfWb1BrvfuvkRqiYvMAxb+6Pf9SVvcyxEYGIwL60hIG4yoGlSul4d0QpzECHdJv3oKZNTvPCsKBwY7DrsPOw+7DDsQuxE7U2eWAmLWU9dmm+sUfr4LlFaDThIKbQaVFXvNSpEwQhN4ljTNElo1msYC6QwJGpV5ez7OiXFTNAsUwE2Opj2mM4yV9ffjRmqPxvIHyXqWnbGr47vzPU2amCpmhSMwAXyVo2RkmuOexcL8YbgVGsQ+mqqIQLe+RqcLsYcdh12HnYfdhB2IXYifq7HJAzFrKJjKt/3jLxnzJAUUHpmwHmkfczehkKQiC0GuYcQpbKzipgXJgYkXiot8pwPcy3GJPIA4jPJJk7ROr1uHktSvUwG5qx3ZlUJuweOHreaYcOTANB4lHUqYbCJ0WWtb8DzBYrCju6B/7CKImSazMUybMjnwab3Iddh52H3YgdiF2os4uB8SspeyGm3fg7rEpmLZNR9mebZwjl0ElOEEQhF7FLBpwKZiWmym8SOdTJEzFDWRhHcNJgH9e3Yf3HrIWT+nfe+3YTIZI7Ir64Ax0aqQBLBJLFsqBtIidzQQjndqyKR3p5bxNN1v5eRihTHJnSrmnYaFq2qA8FHFFKhSF2cGOw4GBnYfdhx2IXYidaDbM2pw++e1z9Zu//B2s7l+BpFZDzXK5XwMCg2dUlqVcFis8okTmKROWMq1ijGIDcFIHrZKDEctHwW/i6dYQXrBiGH9V3beasV35ymigTx2lNM4JeB4pKRPjSROmQzE38rDdMXFsuhNjRh+VtmOKv25nz+VJQtlPYpXhh9vwF4aD61IXMYlrNfXRtENYxp7zJ5mnTNgTmtKGl5V4cA2qCaWnahU7pkbxyde8HG9+xTMOKHYws64pu+D6G+joXKRUQitaDmzKROtOBoMSriAIwkIxM8PjQgZvXfi1yqQH0y0gczMEzSmsaWV4+9AD8PEjV6jjKpOdPfefo+0gn+uMV1XY1ct4QEF3my1NKiZ5pgebSj91M0SJBO1OXUY9TTGdGhjT0bLeGkmMIJiE0gVcT0LFc/Q5Zg0BFdxMNeusT1jmsOOw67DzsPuwA7EL5U40C2aVMkcn6vqOTVth2TYFGZ64MssXTuYaFJ7gUhAEYaHYVcJ2lTRd0GgGwJSv8dThIXz7yEPwquH2H5XV4AFrk20a+RJYC41lGMt6E4T5JF+qjl2Hwgq7DzsQuxA7EbtRZ7f9ZlYp96atI9h45yYUCiU6IF7suNO5NaODFSkTBKGH2aJaOKzg433r+/HRNQPqcF44dA4oWFY+fxj3Ndm1iX4+w+JMCWV4AfvlvHVrR3e3CcJsyB2HXIdh92EHYhdiJ2I3OlBmJWVX3nInWn6SL/DKlphSSZRLKDwSId1LfyNBEIT5ZGbGe381Zf9TLuPMIw5Tzx2qzGkOXTYtFHb5vJlwLJ8vOZspHYoLx8t4E4T5hB2HXYedh92HHYhdiJ2I3ehAmZWUXXb9rTALZWQJlwnZFOkNtUmbVB0LgtDbVErzM1dVwVIoUkTcVQSZ3YmaIAiLD3Yddp68nyhrGrkQOxG70YFywPY02Qj01bfcjlKpD1kUI8vogOjAFB0kb5ApMQRBWEB2rRnjrQu/dvLUBF555xb98221OTWldYatSsqgcjSXnv/8swVBWALwlBgd32H3yR2IXIidiN2IHamz535xwFJ2252bsGXnBCzThpVlFHkyGNy5MgVM1TZHQRCEXsWt+bi1ZeG/d9bxutt36Ivq/pzJWdG6d/T5rrGQm9bmebaMnDyjWMabIMwnfF2z67Dz5O7DHf3JhdiJ2I3YkQ6EA5ayW++4E34YcpETjmnlQ4zzvmUUbNolwwN+a0EQhFmzt5qyglOBshMUCxqXKo1/2DmKN94+qm+vx7NWJsfgWHgQzGs3SM2cIMwv7Dh8nfFlzu7DDsQuxE+wG7EjHQgHbE7n3zxOB+AiyQKkBi9Z4SCKqIRiJkh1CFmPXBCEhWRXCdtV0rLEp3hlw1YWyn6E/kxjc5pg0J39YtUrSfZ4rjLuAMyd+rlmLD8GOiTdmQl8tmSpAdsqwcwc2BR/kyRDYilENhCpuNPfZfluMBrItE+ZnM7njFM6g5Fl+dJadnZwVlwQli7sOOw67DzsPuxA7ELsROxG59+8M99vfzkgKQuDht54x115lV3bFBeuRCgIgnAgOEaJgmoLMS+1ZFKhMrHxkkMKGHT6Z+1MpnfvW8xXU6V2fKTxJLKshsyKYNsmSoHCQNPCQFREaobLerOzQRRoc+lcqNSl51yEngXfyhAi6JxFQZg72IXYidiNNt55F4JWuN9X/wFJ2eaJOu7YtBmWZd1TGu0eTPexIAhCL5NqM18GTJkpJhMDD3Vs/H1x9kLGrDHK9xsL74mX+f9nh6NsGCm9E1lfkyQjtGOEVFL3jQR1I0Wm3WW9TagYLTtDYCYIdYhYpfnSb4wp+ZQwR3S9p1s5xffZje64eyu2Te9/rfsBSdl1G7ei1mrl7agzD0YQBGGx4KsQZRSR2gbqOsU/Dc/dWpFuoT1PYzfzn48YqaMSSQbJn1WBFVm0UYZA3yX2gMhJYWfGst4cg9cFbcIo+DCsEIU0RSlUcGOTXpPmS2Hu6VZOsRtNN31cf+fmziv7zgFJ2R9vuRtRZ8TB7qSMnxcEQehVDMUL62tMBQYeM2Dhqf27X/B+d4z7929bg2hQcL3/t5urkelJlqFFx5/CQiX1UIkc2KmNNKKSemohUdGy3ipREWZI5ylJ8yZkKyZRi9snPzBlcnNhdtyf43SljN0oTDS50sbOK/vOAUnZDXdsQ9qJLLsrAYqUCYLQyxQyA1O6DttX+Jchp/PsvrMz0/pbtRrOGK/riSi6TyA8qjlwTwzsxkgOmawC/PxcTNlQ8AKYqoUYPgIXpIEZ4ozX8/TRVCl4go/lvE3DxViQgQfThoYJ+pnRpBwvthRC+icIs2F3jtO93jNt4LqNd+f394f9Dg2t5pR+5L98DLdvHUXJbQ/77toh0z0gNsXufWHxwb9ns+njax88CS878Xg13oh0ChMUzwiuYbAo8ey5tMn9N7jPjrZTKq06KJsprg0CvH5kAuXM3GvGxKXbzIjRjG2cuqGCx1V3X5NxQb2h33FXE5YTQ9MfWolF7y+lYWH3uKnGdiPEU5wKTjly5V5S459zxvg2/YEd3NnewTMGbLy4bwCP6nfz97mlrvU/bN0Ch8q9nI45FqZcBKa4yDc6zXYb1PcVi64rOzJyGat7CuUgwhP6V8NoTCIctOA2rM6ey5PII1NtTqPoWggcF7dM+9gWpbAsA04W01nbcxMm/24NI8VpKwdxnOehkVL8syKo2MzFztxL9qbz356nITBAYZCiZ4qhsqO+e9HV+tX/dQpKpYLkkYuYvHDFc7R27jNdF+KtQQWCI9cVceUXPohiubDPF/t+R4Vbb7leP+oNpyIzXUqUlAHuImF8kHxA3KbaPWBh8cG/oUiZsJSx4xQTbhGfPNzF39j7v/7lK27bpG9KCyjoDGPWBFxdxKOtCl7ZZ+KwwQwvuLkBm+dv5HQ8D1I2RVfgEVmRZCHAaMHHQ7IUnzj8SKy1Z/nGS5BNlDl9aesYfjNZR2pTLKLgE/APsQdEyoQ9wc6Tpmn+G3a7cs2UtEwVkcUjuPrz78eRRx+2z9fkXpLln3PppgDNpIWu9/GH8zZTzmYenCAIvYmhLRJnCiwssVTA4toDzkq4mc3MDBLwiLaEMh+6tpOUAgxd02m7NMj7cdBpkRiEWUhvFkBRhsX7W/S3qTF3neYPmCQhqafYRGHOpBICj1bkgoJOI3gUn8Y8A08shQckZJ+dDPTNYUbnyadCQIKhrIpirHB9s453jzbxz3dluZAx+WfScXAfM4MXyqaNY+Rs4aWcxg0f026McmigoSrY/0bY5cEGOuENJKjZFmVaKRqOTIkhzI5uBRQ7D8NxkR93r21PhfBTjd/dNZY/3lf2W8o2b92W22FMmyAIi5fQaKKMDH2phUjbaICnuCGBoa1pJ2iRZATazOd2iiousooHXXRgWCbJBQWhbBSr4xQVkoEkG4Dh9yNLi2g6PElnvfMpC4fJK42wA9H/lKWQULTLohRl5WHCVajqEM8srOrsve9sjrW+bHIMrm3DooCcB2P6nG5ATilYRzEL7vxi0ncpkug5dAyZRTFZ+RiWWrLd4sUOSlERXlKGEVc6zwrC/BDzWpgUCzZt2dp5Zt/Ybym76daNMHi9J2kaEoRFTcUsYCqNsV23kLhA0SPhShV0olHQHkpWBQW4sFox9HQNQW0MzdYUGmmIupmB9sDWogmfDG2AymiJm6FhJXDDDJZa+DqbJK+Z4mXBE5JO3lJYJJkKNqaSGI8p2njaYLtBfn/4URDh+kYrl9d8hGXW7lebl5jN9uLEUcrNVvOLZWu4dAxWzN/RQEtn2KkPbBHk5UBshCTMLRLpCC5JrCDMN+xKN992R+fRvrFfUjYZaX3rnVvg2UUuFnaeFQRhMTIZAZ7pYcApkqakCGKfxCVCRJJRj1PcmDYwokI4toXDvTIeVhjC8U4/jjGLWE9Kxv1tvCBGkgSYMJowEh9eliBx2AsWvtDGK1hy86Wb8qjEFIo8yS4UMWYEWBtpvHRgRWfPfWfC1/rs6SkYdN54YXHeuuQ1ZSRlFInnbNqLPdFwEgQkyAhTVLMSVsR9WKVmLCUg3IeY0muTxKypfPhY+JpcYYlD8cCzPdx211ZMJ3mfj31iv6Rs69g0toxOwLIcpFQqEwRh8bLSMJCkJGNhhmLLhZvYiMwUrhfhQbR9atjBp1eX8IUNfTjjmDXqa0evVF8/eoX60qFD+OIhffjAhmH8+8p+PKzsou4mGDE1Siign94nSP289qi7LQTKMpFaFBhj5AsFc1NmYmlMGg08p7QCjyjt+4ioLt+vTWHrtI8Bw72n36yl2v1oZ37Pbr+S+cSMDaRUEo/oe/pknLx80FS8QCd7EaCcKsziIGyzimIqzZfC/JIiIVfyyJnGsGVsqvPs3tkvKbt18xbU/JiCEHeWFCkThMXMJP2zKXAUlIeaYaNuAod6Fv51YBBfWH8IXrpqjXpS34A62ivexzCqjqnWFF31tEJRvWJFn/rioavVV4Y24HH9NrYaExgNEwxn6zt7t1kIMbNMM5dO/myPvp/OFJphHRuMDH+3qtzZa9/ZRm/07ckd6Nc88rzd/NVtsmT4c7qidjC+byX0SDxtxCUTzbRGctYk6cxXRhbuByNuAH4Dutmi+9J8Kcw/7ErTrRi33L3v/cr2S8puueMuhBTYFJXOtDRfCsKihjvos7jsNCfQKI3ihUMV/PCwDeplQ32q6u7fBf7YPlN9ZdVq9fGVh2PdigJuzsY7rywc+XQsJEkNW8GOFSKSTiMN8bzSII4p7X8AO2u8idHMRcm2EYCnXlH5NhPuY5Z3+j8YDmpqtHSSL+U0EFkYiD1MyZyof8akTvR4GtFPZaFKEms4GkFp/vv8CcsbdiR2pZDKaTdvvLPz7N7Zr8D075/4iv7MDy7EYN9KRKjlnWaFpQk3v8g8ZUubGP2opyN4mJfhdcOr8YS+0n7Fg93xe0or35q4A9c071sbdTCa9GbipBZCK4bvKKyoWxgrmejXTXxx9QYcWd6/g7k7S/QrrrsFunQ4Yj0NlbToWvDy78S1Yt2ase7w+O5w+fmkTPF3Z9aCWS6iPJWh5rh4nFvHdlVGShHaySdGW8bQ5Z+4JTSjrXigWcBVaQGttIJiUqdz5aOU7XlyXZmnTJgNqZHB1iWMT+3EG1701/jMW16zTwFhv6LGk95wsr7omk0YqPQjoqB0sIOscPAQKVv8RCpGQReRcPaQ1SmTpkzGoQzbsFHJIoSxi6Izjg8dcjgeVdj/UYh74yWbrtN3TaxAWblIrDHUiw4KzQwFSlstt5/EptnZc37gqSJ2phGOhIMRpTGOEK8f8PDmVWv2+7u+feuE/vG4jWPQwo4qpd/aECJKawtJVwiZrhjOfMy/+3Kmuxg8w+equ93zeC+nR6RMmA382zpWEZP1KZz40A349WdO3qe4s89FqZ21WE9O1WCaqp1ZLvMLXhB6HUe15xNL6ZrNLAvacfJmvD5tYIzkIrbH8MZVR82LkNWTUL9pxYNx6LCDCcuHY5d4FjQ4EZDYHpJ4foWMaakU6wwP25MAjlY4xLPw7KHVaGSt/QpeVwW+vi70MWiEmLITFPwSmvbCtxPOzNC7wsE1dd2N51FbzhuvKtPduudkppgJwnyST1RDlyg7E7sTO1TnpT2yz1K2fWQS28bGqaTAoVWETBAWAyrNkFFpnUv2ibJgJBlsnp1fh3hZXxnP7ZufHIonbH1MwVSv8AowvAhT9LmF2IDvUmaZ2FDm/HdITzMKiornTCtgZ+bjlYU+HG0pVTbuO3Bhb/xkrIa7owSOSSLrUMYeeojd3usoPlPKWES6ArJct+656G78nCAcTNiV2JnYndih9oV9lrLNO8YwXg/yD9BpuNemJ0EQFpZMGfl8WXaUgZdT4tZcbZgYRwMPdT28efXaebuK+zrzZT1nuKCeRTK0Q/swMgo3bgF+AhR26SA/H9iZiQbJJzwbqwsOXuTt/zQI19Uz/at6C0WY+RxXnmEhVpqn1O3s0Tv8mXTwHGrLeMubJ/f0nCDMI+xI7ErsTOxO7FD7wj5L2R3bRhBnVl4Vl6VRe5JEQRB6FhYybZsokgzxPPZclQ6P5MLy8fz+te2dDgL/XOpHtUQykyYoxwo1K7nPpKvzhck1RmmKndY0Xtu3DqUDqBU8a6yO0dREH0mkIhVLuXOQE8ONe2+QEzdnztyWO7s7B92aNEGYT9iR2JXYmdid2KH2hX02q9t5ng270H6QpRTwZeSlIPQyWarzoRgZUphxlo8ITFSMdY6Jvy4fvAXDN5AMPbXQD8OPEekYA5Qf8jqb8w1nvGmU4jAzxTM6oWt/uKwZ6fOaUyRkBTqHMSrwuK8cHDODJrnsRUTK9kxXyETKhPkmdyRypRxyp9yh9oH9lDIPmgP83oatCIKw4Bh5c41G09L5+ogJ9yuLAzzJ7sfQQV64+pluOZ9jtWnHKGUxRZH5l0KtU2SGideU12KouH/fdzqN9ZmjNdSNFMX8vHGoTEFvR6VeE9rgUXW9x0zZmCloy3HbFREx4WDDrsTOxO4051I2OjZBext5YqcbGX0pCD2Oo628D03L4SW4KTQ4dOEmMR5vD3X2OHgc6VlISw48ik+TRgsVXgF9nmH16y9W8bKB/Zt/bSIK9NjUJH5Va2KYjjtEAoeOt07HPWC5aKUmDKt3p1u5pyaI++0t442b62du3bVKd12zVBDmg3z0JYXcvIBAd3KH2gf2Scpu3D6ptzcaGDBD+iSNaasMN+3NkqIgCG2MLM1HQbpJhtDxkCQJXcMlHN5/8OfXOtxTahXljM3MQclaiSgbhUn/NFujkcHVCYokjHaakQIptCwLlnLyxdEjO0NaoFsVIqW4w89bKKKcGvC0gSRLoG2bcl0XaWgCJE6BrTHhj+A9K4c7R7DvDDqeendNoWSbSEIDij4zcGI4qYcgilE0U/rMhe++oWM+F3R8Jq+BCQRmRgJOv7mbIFM+iYi9rLfMbCAxAiQWT+TJWVdKMpZRqiNkpJowz5SSFGNeBVaYYoCuyU31Gu7cXttraWCfpIzn2Gj6rftUC99f9bAgCL0DZ0R8ldqUAfGFzhl3wbRQ4Ta4BWC47MJLWohIcpRbQZA1YHPNO2WTk4bCuKlI0iz0ccf6gI48jeCRlBVJjIpNA6XYgUN782z1odXAdqeFzCKZo2+ZRQGyNERVKVSCmAJhjCcOrsK6A6iQ++l4Q4/4tc6j3iWtukhINDjo24lCOXJQnbJQmC7CDQeopO4v681MBmEHFdhNB2ZMCcF0qHBCwm8mSHu4plNYGtzHl9IUvu9jYmo6f7wn9knKdoxNotEKwWuH8SzJ3DdE2ucFobfJSHRSKBIfumZTTVKWkpSZqFj2gly8JSfChDmKHXocOtEY8sqo6wxTsSZRHMSQuwKhzYLWgmn7iB2SLcdEpA3aLBheEWbBQ2zECHk1AOW0516zPApkRj457nRBYUTF0JaFFwyuxIb9XMOT+eZkA02SnZ4n5gEHCej0ILbpfpHuuCa0ayH0TFiwl/XG5yApmEjJxzKbNwPcvsNrxhvSL1qYZ3hdXIubMCmm8UXqU2Fx8869T4uxT1K2decokjTLJyRkKcuFTEZfCkJvQ0GBS2oOl9i4WZAEaCELU/83dIj6wbrj8cqhlXDMBm4ONEppCRu0jTQcxbi/JV9T0jVIrqwCgiCi72CQe5GUGSmaSYSWH8IMDfSjDwNBH/zQQpCaKIYmPMpx64qXDIjwUFXEYzzKifeT86d8fSNXMTpe55k2vVgILUQkpIrOnWcgTJsIdR2R1UBs1oB0AgEd8nLe0nCM8sIatFmn66AOO4xQigwUKb04dN4EYV4hRzKpAMCxg6IYkkxj0869T4uxT1K2ZTu9kUHOlwd3KpklKd2nVC8IQs/CDTTcoZknjOWOzhZdszzx6UJyXL+t3rNyQP1w7ZH433IfjvLq2GiPYapgod8dRiErI40yeGGCslWGlym4lJm6sQ9XpbBtl2JREVlWhIMImdFCy5xC06AM2JrAai/AX/YbePrKCvqs/Tepz06OomBShp1aeTDtbr0IF5LJSaksbpKgOSg1LFixTfGZzplRgE0Svpy3vrgMV5Ncm9ypjG54HmESMs4s63ph1y0Vlj4phVoVp3RLzsTNmMrCXTvmSMo28Rs5xfYDlbU/YN/+VBCEBYKvU+7sn9ClylXplE1jmlTtjrCxsGZGDJaVetGGovrYkYfhtNVH4Snc3yeawjR3UHdcyjddkq0UQZbkC2tzbVnqKARWRALmYzqrIXS34HF9Gm9btQqfOfrBOP3wY/Dr9UepLx56hHp+H+28n/xobFJvDOiz6BicHpwcdlcCFeaDN1LyC9vuo7NUomMvY4qOfcSyECTZst4mSd4nYoUGCVlIAusrAwEJWmZxc/jCr10qLG14njJetJ60rD2RtV3AltG9N1/uNXC1olA/6/99ABfeMYUBJ4NDidnPHGhK3EYmpY2lCtcONJs+vvbBk/CyE49X441IU9JCe+nqDBlZv8rrYnYPdyy3Ew1tkxgkDsqUyV4bBHj9yATKmbnXAVBcu5MZMZpU+j91QwWPq1Z3+xcX1Bv6HXc1YTkxCYiGlVDw5XWFljE8stGgTClxNOyUz3eGJj330fU2nlJatddr/2BzW9LUP6u3cNFYhE2TKWKvCccqwCmUENFxN5s1lBMfDyoXcGSlD/9aGcbKwtxUY23xtX7z9u3YRnl1SNJXTosks72dfmI6vgIdb2raqNkaVSqVP6LYh6g5iVolhZcdwIy5SwhNMcYIGygWTMS2hzvrESZSA5ZLsSsL6fU9Vyxw/GkYKU5bOYjjPI/kjuIfFQoUSS+vJcsZ7p7gISyG5l5sBnghCJMy56Gyo7570dX61f91CkqlQqeCQ1iKZJYDJ6JCpeVTvlnEpK/w2AcN4nenvXePMWuvAW2q1dJPfNV/4tpxjYoZomAk90iZmSc4YSkiUrYEoDzHjhQaHhWmYsqM6HTcjQDvXavwqoHD93rtLxRb01RvDCbxjWkD26abGKFjD20HVcQ4oWjjxUN9eCRlbp3d54TP7BzT3x3lGsU6CpSyfYviW49Pm+BT/N1A4lWja+Rup4bjqDT+iUOPwWFGj7a3LiAbyX6+vnUCvx6fJIl1UaaLg5t+94RImTAbYstGKUwpnbW4gwGmAhMPogLx5Z99P4p9u587ca9tkJvrCjuCFCV6Y4MyudgoUsZn5x1yBUHoXWz6l+g4n9m/6ZrwjBKGKL/+USPq7NGbrDNNdWJpWH1l7aA65YjVeMFqFw8oTOLvBg28a83wnAsZ8+NmHeN2DNMsUDDV6K8HnVd6l77UwIRDckYhv69VRD0tYkD39m+7UBxJpcyALCuwiuCxx7G1CEbXCosaM2wiobhrqjKyLEbR8TE2HWFjsJca2s7tbpmu1RCGIQweBUUBnc0+TdO8k6kgCL1LrDNoU4HybdhxQtdtDB4HNJFkOH+cJwLrfY5xbfWulcPq62uPxttWrVYDztzXAn18+1Y93UpQNV3oJERsO5jq6+u82rv4RoIICQV9A2XTQYl+6T7TlVqy3aAzugagkdH50jyYQxDmEXYkdiV2JnYndih2KXaqPbFXKds5Ng7fD/I5ypiulBkLNAGlIAj7Bs9RpikY8ISrLl2zmUrz6SZqsYEzG6OdvRYHlXmQsS6bTAN+nMExNJyYMm3aWtYiyLRt/n3peDXJBgl4SLF5JIqkPWw3pJRJcj5mGzZdEeKuwvzCjtSVsvwxpT12KXaqPbFXKRsZHUecJrnlMWx8giD0PkZKGTbXDLCeUeadmimJhwkrdXFNlOD06XHJwIlXl1bj6JKLKAvo/BTghEAx9Duv9i6KO22yePMDncKm33mlM/dNu0sFN7byfpVpHCGIer95WlgadJ2JHYpdip1qT+y9pmx8CsrgTtPtWjJ+Y4Mec8lMEITehbNn7qzOdSeJqRCbOl+gvJJ6SLSHj0+M4trpTjFuGXN8SakXDg+T5IQILSefC62km51XexcvNvNF53m6E5/XvbQSjGctEe3dQYUS7k/mmgYK9l56+QvCLGFHYldiZ2J3Yodil2Kn2hN7lbLRsXEoy0bGC7mS8fGbc1tpt0pOEITehGvHTCiEHBRU+1KPdAzu41zILEStfnx8fCv+FPDYsLllitvSFhEvHSyrox0T04gRU4Yd0L9ex8pHQHNhmf5PZWSlqcDc6WYi/DlR6iOKW0iSLF/oXhDmk5muxO7EDsUuxU61J/YuZROT+S2/MRtfkkR5dZw0YwpCbxPyDPgGBQW6zM3EgJtQxmRQhmQl+Zps69UgLg3GcFdS7/zF3LCNhOyTk2P4+NZJfXlz8cjZM/uGKNA1eYQEWsYBrGR+kGlYMYIkzKed6dcuypEH1KSv7+4w7BKcQgWGZ+UTEQvCfNL1JHambm0Z03Wq3bHXlPnMN3xQn3ftRpSKHkp0vddbIbxiBTqN7vkQYenBiUnmKVvctFSCYRQxYWYoBRq8XvUOL4FDv4mdGairClboHfjWEUdjzRx1pL9hoq4/Pz2On0YhKrqMIknOQ0s2njs8hGcVd//7LTRB5Osx28M/3LQRTjqI8UIML+nteRgdkm5erJ2HcvBC7hNpgJNKCbbARuBEcOJqZ8/lCdcaZqEBIx3HYYUizmzG2J45WIUYUVqHMkqdPe8fmadMmA25lJkOglYdlaKLZgo0WwGeftyR+Pln/mu3sXCvQfIRr/uwvvmWm+BSoo4NhzJZH9ry8s6SbH/C0kSkbPGTZhGKdB4afVSIqrVQdU2M2SQbfowyZeRjcYYnr7XwsRVr9hoH7o9pPa37VF/+txtrWn87aeG85jgafobBxM2Xd+LMiFsyKVvCWsfAiZUSnlvpwwOLxgF95nzzxq2b9W8nFfp5rV/KkHsZbprmTJ2neeBbHtSRdm4ls+coxemuXVvBt9yExNOHMPzc3hApE2YDN1calk2FgpDSSwEW91n1W3jgAx6ECz/7VpR3Myhnj1Y12qjrZvPeDq+cgDgx522j+5CoBUFYQCwSX3YfkjObBJUXJ7ejDA73J6OnHSfD47zhzs77T5RU8etaoP97xzb9xonb8JORTQgmA1TD9jQcjmqiYoQYUBouxYutSYKzahN464478cq77tAXTGV6WxT3VK601vCQz/azCFoBcxGj3zGXDiog82abJm0WHMoMCrazzDcXLt3yuXB4hQaeEqNzniT/Euabbhrj26478eb7Pvxo92uv7lHKuKptqt6gMkZ7t7aMtUthkqgFobdRsPISvY4jmHQJcwbuRgZc7aBJGdMaB3hehcej7TtjvtZvvHuLfs3Wu/QL7r4D79ixCedMNTEZFLBSD2K9OZBnhHUnxYSd0udQzDA0CooySe0hTgvYGnq4wbfxLyNTeN3WUXx3Z01P0Pt2PmJBORwFGIqnEOn9WtaZNc3c178rHFZ3oyeX9ZZfAe0trzGjFMZ5V3cThPmEHSmvLePY26nIMpSJyVodLf+ApSxEo+nDsClZs4R1RqyIlAnCIoBb3+gKN5KYMu00b+YylZVPj8HrJj6msP8LVv+6FePi6QSX+AGitAo7G0AZ/fTOHnZQrrdZUczIYripxkA4hEJUgorbo7cNet2jCFUhQ+wzbRwRFrHTt/C+kR34m2234y3bRvU1da0nY1839NSC5JqrtE3xLUNC36HXIe+4Z2PhyOMzbTw/XT5HHZ3z5bzx8mJcO9zdBOFgwo50j/x30p+yzNypGs3dj+7eo5TVOfAmKSyLF2ohuAmk8xkiZYLQ2xhZu1mL68K4fx83FKa2gZaZoKhjPLky0Nlz3/ltMImhpIojogG4YQwrimGmKQoUDwZNC4O2S/HCAq8zaKUmCYON2AQCK0NopYhI2gIdwo9pM+9EwW5hhVVAQQ/iokngZZvvwL9uvRtl1b8gAWYxx7W8sEzBv1sTxPOXLeeN4f/nG/2u3AePb7ubIMwn96QxvibzEjJyl2KnYrfaHXuUsul6i0qMdKFTYL+ndozFTBK0IPQ83KmZOyObdP2meR26yjvfB4aP4yg4PHI/my5vjbW+JJ7GpB1jJwJYJYWsCDTdGFNGC/W0hTQKUA4zDIQKk14NdbtOQhbQcWgUyQyrqYNS5qGoCphUJipWKZ+qYyqZIqvIUDYHsDm0cdko/cECMGLw6iUmLGPxrI04s6DcbcLkDSwmy3hr51edjeDm3nuEdWGSl7CM6DoTCxnfcu0tuxQ71VRt95NT71HKpqbrJHmcoI38DS1eyLXzQfxYEITehTv5Z1QqA8kP96xxE4vCQwpbh3h6Zaiz175z3lQNKnRgehRcql5e2jOjFAOJiaq26GMMNByFaU+RqBmopBlKqYYXA3ZEcSMCUnqckHy1zBSVZCWmApveM8V628ZwgV43UozAx5hJOy8Ad9JnazpXWu8xNPYELGNdIWP4V57JTAFZjluSZ4f3bpxnzXxdEOYTTmN5wYDI54vM0xy5FDnVdK2RP39/7DHyNFpNKry22+f5Dbn01f0gSdSC0NukRoY0bg/JZzFzMyPvZ8PzWz227LV32g9+FzSwOizBa/moNGOYbgGJZSMgGdC5fCkSMQM2eWDCc3ylHlJdQGwXEBY8RK6J1KYM0Y7pcAKkThOBy7cpxg0fo2GAQd/DQFTC3dnCSNl2EtaMWxrarQ09DU/ZMHPjmDxTQkwqNy/nbVc435q5CcJ8k9dYd275+uxuTb+VP39/7FHKdjbowqZgyWPEPQrqSeojMErt9dYWQUdYQVjOJCqEWSzBDy30mRo1dwdadNk+yTkah5T3L1f6Taj1zRQPlEVCZYdooZD3JTNygyH5o3fL5yUjGWC46TQhKYRKaD8SOJ7VmvflzDK1YCQ8aQav35gi8Yoox1W4FGNa5hTKJHs/abJMHlzG01RvoxNUowMrp72/9iU3x+26zeT+Xp/LTdPvqE0Lkc1N4jHXRcGmzUEExwju928O5lbMknxeTTOfEoZHo7pQqUt5l533rxSE+SRL6TogV+JYqfma0FQYoOvFVC3sqN9PqaHDHqWs1WrdU0vGzCxhSElDEHobUh+yJBIhnvmd5Mek4GCRqD28tP9LCF0xPc2Negh4ZKJJmRvp12zpTlPQjTHdmMK1bEEQYHOs9XjKy6kfHK4cj3FzHOAIysCb9B2FPWNYKRQVzu04g6F5VYECpt0yJs0KxrmzIUn2Qm4jjo0619A6FgIzg2/6iMwWLKuJit37a5sKi5uuL810JY5zKRVmea6y3bFHKas3mhSG29Vtu75x3plSEISehUtmmpzMyJsxU9KoAtY7wGPLnR32kR2B1r+bnoRL0SKmOJBaJTKp3QeVfYWb3PKpCtJ7pYxHzXGfsyCOcMZkHUPmwVuk8OxmgAzFvEUgxf437y43QhIyFmiW6yJthTBC0Q9RJV/v56lFVLCgWzUpoi8uouDbsFoKdupRtuUiSi2EIYmbIMwjFH7/rFKrfV/nbrU79ihlDR62SSUOTSVHJn9DCqIcNLsfJAhCb6JJdmKlYZDXGIYFXnb8hGIJq70ZJax94PIg4Vor2DxwgDYzc+nN5677QrfAx7c86zoPGOBC31mNCYzWDk6guXIi1ddFAYZIOMfMGBY3vQp7pGh7ULaNzKI8ghzHQEhbHYldQ+DWodLCgm5JVkdkBgidiI4pzdOWa3gwVQmJtf9z9AnC/sKulE+J0QljuUuRU+VutRv2KGV+EOVrNzEzR/rwB/CwcUEQepcMJFFmp5abS2nw8eRqf+fVfec3zWnYupCX+rh2yyEf43UEZwvHET62rpTx43ZsMfIMtJFk+PT4aP7afPPhqbthtwKkWYiKqgCW9JndG7zgfZrovNI0DTMSdhvacvL+grbvUBohEVrAzY1iSq9hvvauQaKNcJoytSmkuoHQnn1NryDsCUUC1pWxmf6kyKkOeEb//A95Yd5OsOzOUcYflpdmBUHoWRKSG8UltVQjoAz0GFvjEZX9aw7cWNf62lYTRXov7gvBo7G54742OhNKz5KulHF8YenjjUuWvPUrBz/36zh9ZH5n9//4jp36CouDZQI7juEG/HEHf6DBYiNRMcpeARWnTPlBAQ3PxbhjYxoO/Y7VvHlzIbegsALTcQGtyEHKna2NAgy7CM/x4KnFMw+dsDhhR8pdiQud5E73eBQ51YFLWRjeEzAZvj9zaKcgCL1Lail43OcnNuCTcDyzWu28su+c77dQTxQyyoCV5gBD174Rk/DNPlPL546ieMVbF55rq9vXLMssFDMPp45sxyWh1jvmMOhM6ViP0ft9fdzX3x9tYk3Wh0bBgkvfsWmQkCWSae8Nux4jJuEfz3ySn0mUszrWqSZWWFOolmooeNaCbuVCC8O6gcN1inUmZ4wJakmMKDRgTu1X2UQQDggOWexMMwueDLvV7thjynzS//ugvuCWO1GkUlBZR/A5WBllIKJwakUUPKUJc6nCiajZ9PG1D56El514vBpvRBTaTFA+T2SUkfIyv3vud8PTJNgJZeJ2iiRxUDZTXBsEeP3IBAVw8z6Z8f3BmXNGAtCMbZy6oYLHVau7/YsL6g39jruasByuxdGwEovef8/Ht9QJbRODtSYSq4rt1cb/Z+89ACQrqv3/b93cYfJsZJecJEowoAQFFTFnxIAooigKGAAFfaAowSyK+ZkTP7O+51+fWZ/hGRExSw6bJne6uf7nVHcvw7gzG2Zmp2fmfKC2053ue+tWnfM9FfH1letwYGHnVvF/7p0b9W01bnWro5D7ZkwZL3swzhuM57Pr4qPY0ZSzrc369JwXqGbDxa1yNfqNNfR6iD4L4hG8e8/VOKavZ6fOfyY+O3S7ftuohcF0Jdz6CEa7ctg8IaI/QDBkU7md3nAKQDG1Md4VYDwcxyF5hhevXo3H9RXN/RlJtO536YYuIONZpP1GiqBcUn9jAb5hI35SmaBgpUznbjXH+8wA25+qleEDK/txRBCgmpH9I7+nEtts9M+7ZcwEuWP6Dm5x5d/igCPDQNlTn//pjfqFl70XpVJBGjeWMLnKYGU+qNjAsUI4kUboFlGJqzj5AfvhB9dfts36MWNL2XCYmUjbQYrY9qgA8Tov9NrjAiuCTFjccPNyStIypVrDUsN2ScjROzk5GB7TFGUeMouEiEPVhCqY4m47Kv91bh0gW9uIi6iRUKkoG2NkcEd0iEoeITZrd9GfOAnKDaqQsYOSWzDDlBopCY/AR6zGzTGzIffJqSRk+lOfgqQCnSuJHAqccldjQiXor7qoFrpxa3EcTyAHurOC7P+qWv8jHiYHpDHQ6KE8sqnexxhPQhLYs3cmFD9uFWQMO6iE8o5b0ED3xteU3/TokWO8ix4v3jSCT25s6C3p7DzZjWmm3zlyl/7AZhtd5Jwjkn21koZHUYJtO/DHUxFkO0BCUZcb1dBHxeouBBS83yfSF1qQMT22r1iQ8fODSfGnjo86esg50rm36qggzBck4cnIpWbv4cQIeZ9sWW401dgM8eyMosxEsa26xQZzcmo3wwnCYiWIMqQkOPIgh82tPvUQBe2gQAFINSVR49bJgNeQVDPUYg8xCbRVgcLj+zUuWe/izetCXLMOuGZ1EZcN9uDs3n4c392DAd/FRBbhlqSIcNBGIajjzsYYGvS9ZTfDpmQUa+KVrbPYdaphhJJfRJm7EmsTyJIqEvrPjVysbazErYUQVR2hN0zwwJVrWn+14/yuWkOaW2bGUN3JSLA2HRkLVmt2jWQ7ROBauCsbR0b35ih3kH7dwzXj/8Dr7v0XfjFiBn7tNN8fy/QHb9uCD9/Gc1GFWUHCPCeRnsYJcgoOFNWdTiaP6DzjiPwXD/yffVAhCDPBOmkq7fdm0k/TirJGGGvuQmjT/jIRZMJSIfFgBnaXkgyO1RwMn2Qk0DjG8bgVjBedzNBbjPGEFYHpPvvqfnuqK9esV2f1rFSP71+jTu0eVKf1dKszBnvUa9b0qStX9+PqPVbjqtWr8XRPYWh8FLfSbw14AdwifbdXwp7VIkbnYHbf3vlKjGACw85GBAUF3x2AHfUgS2NsKt2DY7wEp3YX8ZxiP050ds5hDuW5/nFlhCq8S743p3wgh2aRPeAuRjPDrnXgPNNrOaYF8DbUUFc2VulV+GfdxQVbbscLb/+r/vDomL59Oy1n9w5p/YV7a/rpt92uz773r/hZFOHAnr23BpzCruE5NlzbgUtly/IcaK+zx+GxZvS4JZSXxti5RmNB2GlYK7XTVFvD6/vVG9E27da0oowFWRzHRoBN/uL2oDV+FITFTGTzptlUnrMU4w4JpqAIRzmoU4VJshh3x+M4pbsf79tjH1y5ulc9rLR9L97vKPXAQKknDBTVFXt143UD++BA1Y+wkUJTpJ6GEVISgnEw+8DmXqtK8rE5kHSUHM0Ij/dyMjypt4Av7LU3PrRqPd62R7+6aJ9Val1h5xTI78aq+FscoZyRmCQtljnN+p+BvoZnFG1vQOAcUKFf8+l3enLLLFxr0e97OoClywjzMv4UlvC+TUN40m3/wKPvuFWfu3lIXzE8oa/cPKrfeO9m/cJ//UM/4Z9/108c+ifeOjGMu5MS9nVWYxU55tHw3tavNHsEhJ2nQuI2oqTjFG5M9YfKdyfD50gRi/FrlZosiSHsHlg7tfVSW0cl5AMmN3pNZlplxWKMC+9klTd5FoEgLHayiHfv91F1HVRJ3BS1b/byq6OBlWEdH9p3Hc5d04ODd0CMbYsBx1fPWxOotw2UcHy5B2PkEKKsinylh3QXfQLXvXbyrToG0YOJegFqooFXey6+dNAqXLznoDrYc1Vvgaec7Rq/CSkocwKUcxdOkoOHCDmaN1fSvMIG9K5lyU5hZTZi+k2eidlL/t5KY2ymOxXnCfbLCiTSiujLurGy0YNkwsfvttTwtc0j+NrQOP5nuI6b415MYADdVjcdB9hxDVHeQOjQdfil1q8Iu0pAQYzHLcC8ZiX9n1FA0NG4JOptD77rw/fk/gvzC2ultnZq66Z2LyOLsul6HKcVZe0vaAsxZvIX86MgLGZS20aDakCQWViReIjTBPdgHOvLFi7cY288ttyt9p6DVVIf0O+oS/Yt4fGDReQOCTLN6zjFrU93nKl1LtD9uDHahIf3OPjuvvvj7D17lKdqGNH1WVXOv8da/6A+ioJFggy8HEZOv2XBpqR53cIs3y0OuD/1zPi1MS/HJvDWORorXA+up3AHxkiOJrDdFPVCZiYjlHIL/YmLgvKQ+R4sL0REf1dXGUISrHFQQKpcqNRCkDTtWtu2CTsP7xaRpDlSno3Ps6xVZ0/+oupNzjBDSlFFvMxnZgu7D7bbk+0Ma6rpWsmYGUUZf9Hk1rG2U5j6I4KwGLEdhZqOQT4dBXLoNXLg+7gWTu/pw2MHdr2VaVusUY66rH8FTvRLGNsyjHJp9nsrbsxTPKGvB69b14vBnmaF7FFl1a+ayxLsCvWkpicqDVTqFXjQqJPwCV2q71T104T+cUiosT/bDU6Nu0xDnRlb0+uW4JNIHE9iNHSK7kIBE0kVGb0OyNF6ZKeSkoN6WSGlE3QocLR1FXYawqfz7kkCDIQ+eiMbxTiBl8mG1LMlVhRYUF57ngfPCehpsfVJZ6KoRDu8ioBDZYWEuiDsDtq6qQ0HmlPfm8y0xntsvKKPOvsKDI+OUWQamAiDlwzglbZzcgaO40zb/CYsftgRLvV1ygJy1hXSRrynI4+P8W0L5/WswwtWN69yPvh7o6Hfdufd+I3Vh27uP90Jplbko12bBNlq7LGTe1nuCFcNhfprWzbDznI0SOP1Jx6SMEfSW4BfqUHZmu7v/LaM1K0cBa3gUuJF/lVmU3mi5y6dB28ooCniNN2pzfts0wOPO7PoNZctIxLslGRlhCxvUJmm7+CWSiq7PLyoLH55Vnh0U7SXIaJycEfDwvP7M+xBectdzCW3BxbV24Uk8iNYsQsrH8deFAx9fjTBnVRwVlLZTXRI5WbmyS9sf2SdMmG2ZBn5I89FnnKASfebPGl3uYSbPnkleropipzCtMZ8bLymj3jRFRgbI1HGm86SAFMUjba7NKUwLW2WgyhL6Bp9p0KVZQDVOnB87xjev8/+2zmr2fOrIa1fOHQzBrGq9U4TkhetxyZ1EhADtRqSco6JLMOqtAd118JwNIzDgiLes89KrLHnbxrZG7bco7+2qYo9rNXI4jGM9KToqwfQysW43UCxw5dAEOYXUz+p9LEv4IWAExbD9Ghe0/u8+t9CwoKdz4FtmUWPbLH40bxunftMiCgTZguXta2aqfXI48l6e3tx08evQG9Pcx29yUzbfSkISx1ugckyF+WExFl3hqf0r299Mr+sLwOn9Q0iycaaSY+blIEEmKohpZRZdfTmJGa5m4UEcC9KqJOZv9Max0Ahx5nF/nkVZMypPWtxbLEbm7NxshTkyHgpDHIt3H1YpHMSljfscIzAIUfDXTK8PIbnuPBdDwUqK75Nzxcw8Tnw+fB5OZZtzpNT+7wFoRMRUSYsWxSJHisNkMQhDu5WeFSPv1ssNXc3nt7di95iL3oKPej2ulB2u8mJlBFYZfiqBA9FhFmI8SxBpZ4gmUihqzG6Mo2jS714/NrCvJ/rCZ5Sj+8eQOrWkZClUCl3V1LUr7QRtMLyhluiuKXHtPbkGjwnhlujOjHxuZmeI27Fy/PtbrEkCAuFiDJh2aKo9HskgCbQwOOC2Q+83xkeUiio7+yzUn1331Xqf/Zbrb6//yr11fUrYdK61fjSulX44D7r8ZmDDsDHHrA3rj10D1x94Epct3oFzuzdfWN1TuhycWipiEilsCKNBs/EtKyt47iE5UtbkG1NWX6/hAVOU8+nfZ6C0MmIKBOWLTzoMrI9FEsuTiws/LpFvb6lBgJLDRaVWlW0zCK0h9HzoynMPzxo4PheVz2yu0sdHfTvtmaqNb5SJ/tlpHYKL7PM8hJlrXiBitYRwnKl3R3Y7hLk8VuTU24vbJp6Pu2u1nYShE5ESqawbNF5ivGsgQOKJaxxyIp3MN2zWOZitjzEKaFMTozH5cDKoPLcLLIrLG8mt5KZ15bamtrjthY6TT4nc45TzlkQOg0RZcKyhWeH6jTEnh2+6OVCs77Lw2rLRaQT+CTOQl60VYvpWO5MFTjt5yTZzbhDs47JAiY+Bz6XbZ1j+7UgdBpiWYVli/J99GiFLhkfNSMDrlIDcFHPQpRJwIaWhp12dMOisBtod1tyYnjux+T5H7ykxEKmNpPPS7ovhU5n+pKpUjM7jcfd5BxVcFMwFezmemUUaYDXXxGExUtfrYS6rsPtLbfeEaaj3J2QLCtjVPnozjLElqy8utixc49suYfMdsmaK1i5hpvlcNIEjs6QW/aMKVPW/V7zNkuTE29jtpAp4MU64wiKyqtLrs7htRVzOjdeI1Ev7MK2wtKHNRJrJdZMJiggDcVaijWV0VbTaKhpRVk7mpjazNuOiuhZ61EQFicjqMH1LLOVjzAzXfAQkx/zkgyRa8GV7p9Fj3JrJMQqJMJq5DxShAULlbKLStFDldf2SkigLeI0XHARFQOknoPIzlFHA6GqkoOsIrDqrVwQhPmiqZHu00xNWFPN1Fo7oyjjrZQmi7L2c+mPF5YCcaARqRzV8YnWO8J0+JmL1MrhkrOLXLu5/6WwqIkTG2nqwFI+fE2pYaFYtdDb8NATuSTaokWdukMH5chDoWbDrgFu7sFWAXJNAQYvvCcI88y2NBM/Z22106LMrNBMEcZUAWZUnwzyFZYAPmzEuUYllK747TGW8kK7KdmDDJkZpCOti4udwOoCnAIS20fOsxN1Ap03zK4SdaeGKC8s6pSgitRpIPJjs18qO0LfKsKxi8ichV8CR1gGkFbaVksZayvWWNtiWnVV8APFu/9rHgStcvPF/GVbf0CEmbDYaaToQhG3ewqbpkYfwv24PYlRSHOkvoKbWsg6ewURYQeo2xNI0gnkjVHkcQXKzmAHGrajUVS8Qj+9XsSplJMQs3JYdE0WiTIVVc21xsk4anTtgjCvtDTS/bQTaSnWVKytgiDYphGdUVm5rm2+rI02o9VkM3JhacDNx33ax43ROL4zMdp6V5jKbYnW96YU3fEWCA7gsyiTZcoWPbnjoByU0OOUSLx0oeaWsRklDKUlROiHneWLOlW9QQzFRVTCAhJdRGYVYbsBinTNReW1ckEQ5o+mVmLNdJ/+4vdYW03HjKKsPaas3To2+bkgLHZUYCHOYnhUYZza7u3CvDXbtcimkdZ3e0T0q0oNY7kiIWbBymGWw8hsCcwWO27VQpI6GCcBk1A9GKT3VmcJytkEiZcaNAnvxZxsr4auZBxr0hireKZonqLC1xpb8CvS0yPsHtotZZOfs7aajhkV1sPPf7v+/Y03oVAqUSmnCkwFmnfc5y/lsSUi0JYufG9rtQY+8dYL8JwTH6iGqzHdcRuOueU5cp5eTo8zwYuzuimVFTdDmnoo2xluCkO8fPMIyjwtfTvFh9cayq0EtcTF+/bswvHd3dP+xY8rVX3J7TU4XkJFlQo9OZtcbef87ARRAzh87Uq81yugt3v3FejrN96uf1TjUW0UNVkKAf00L8zq06NHry3K3bJyKRMUbPIfvP14d55hLR2zD9XHA4q7r//wkttu1d8OAzh0Ot2kXb1QYbg7QpGnYwqLFo9K2bgfI04qeFhQxtkr98KDqSAOT4R6vKQRpLt3P9i5JlchfIphVvQW1R8oCPrMhnvx88oYcq+EYuKZDdVngu1P1crwgZX9OCIIUM3I/jkxVGIjIUO4vbhEU/5amoM9C2QGqa5nGCh76vM/vVG/8LL3olQqbHXWwtKj2YhlG1+aZClpJzLk5JMatRqOfuAR+Pl1F23Ths8YLqx2NRpOETrz6LsaZmCaRZ42QTztzAFB6BQSN4SdOyg3AoQkbob9BJ5fQBbToxVixCnhMBKKV7j+bhVkf25o/cnNCe6KU9wWpfhHI8EfaxH+b6KOn4xV8b2RCr4zPI5vbqzhK0MVfGpkDB/fXMN7tzTwqqF78IXKxtY3zT9/CbX+XhTCC1zsU/cRJhFqARkY+K0jhMUKB0WlBgkNCpicuNsIMn5/oDtQ+9oFtZYihMWc1nkFxYKMr+koWymPghyd9qDQ4PXVEn5bEOYN1khGK5FmYu3EGoq1FGsq1lbTMaOyCrym4ZUWMWExopISia8GxrrGEZAHWpl1YWRkI1aRMLtbFXBANoFL9tkX+/TsvlaneyOtX3H3zbCDMkVO9tbkOY5Jvktyh1LgUSBUAnxfo2iT86RTLFouHBXgjjjDbyey3RJiXz90K5zEQrGRYciNUQ5I1NK5+A2J8Bc7GTmLXHN7N4uUpR9k8wK5nHJtIculUUHY/bS1VFtbbYsZS2apwH/Isy/vb4B5vK8gdDpu5qLuUnlFRBY5hF1N0FPswb30eh/t4aLeFTi0uHsjjvcPjcCKBqlK8Syc+9crjqwmJ7oAOBRrFfMEPjLTtWnTNd1Sz/D5SnNiwrBO5k0dfXNM6x9MjKIU9ECRBqzaKfIs4XZ5BNb0YyKExUHKsQjdR4vT7tH4CwrvWMBOkTfT1xQICcJ8829ayWipvKWtts2M8qpcKlLNvW89IlOgTT8pPZKTEIROJrdIjKEILynBsnPkdoKGV4SlMrysrwsnDU4/Rm0+uGbDsP7OWEIyy4Od1ukEqYLOkMxSYJRYEHF9U1YGVyuMxxq/rNXxlU2b6MD5EUd3Tmj9kU13YXU+iNQhcUuCrAwbtTSGR+eUSWC26LE4MKBylVNaDisc8VhTRnHFmtLQIAhzjbHZkzTTVkhTGW01DTOLsmKBnAMVYHIQ5st5gUGo5mav7DgEoaPJUIocRFaBym4JUZeHuLoZL+0ZwFNW+LtVkF125yZ9w8YRFGyFIb9KArFg6tTkNBUvpWie9+hTPlIKuXi/yYDe4laqiA7/4MYIP6rGraPnjn/Wtb5o0x34Z5pjQPWgHidm5lpZ29DFAJrOJYrn/neF3YujuOOSh7tzoLD0F1BOKBjja1V0za4sfizMN6SRmnFAUzsZG28CbhJlrK2mYUZR1l0mNTd5luWkxdAEodMpZy7GrSpsnaMak6hpNPCiFV144ard10L284lQP/1fd+uvjisEbgm2O4a9fQ923D1jPeLoyiYRlCmHEne1KMTkTLjGluh1IbewiWeGbdyAj26ZmLMI6edjkT5v6Hb8LVZY4ZSxASG8LEc/CcM6CTGbBGFo85plrT8QFi2ZWRScF4m1ECyDprJAO+ZaeUZzKi1lwm5gm9qJNJXRVtMwY03sLpfoW3ibgGYBZkfRbooTXSZ0OhwRN0hA6DxFj53gUZ6F89eu3eWSO9ygwr8D3Blp/afxSL/q3tv1G+6+E/+qKKyxA3TR7ydxhrGJGlyK2LkuMe16NTkxuYpJAJEQowrtpgo5RVkhrwhNV+DkCt1dPqqJg4/dNYxLbx/RtyTNPxzO4h06z6lcvXFUv3z0LtSrNoqOgyLlYM2KUCAn5gYuKjy+NMzo3B0oT8aULXbSVCPlKZjKRW4t/cVUM9A1UnChKaDJeI0KQZhHWCOxVpps042WIk1ltNU0zOigPv3//Uqfdc0HMFDspYJcRWKVYUUZVIFSpsGzWISlCRemxb5OWWpX4OtBM7D/5GKGK9ftgcGtocvOcTsJsg9tvA33eDYOLfXiyNzBWqpcNmVITBVtPM9xF4mmf5Lo+kulgTsqNdRsGz1uN2w6nzFnBD7JmcF6GaFOUBmIUazMLGyUFWOCBFF34qOLrmfETcym4OWMF8KkvEkLsN06ZXKMepqgO/XxxN5VeMZKH+u9Hb/Ob4yO6M8MD2Fz0gOXfqumOB8jJLmLomWTA4uRlAJkdMP8aoag4NH11uFpGSy9mPHp/nId3ew0cABKuHgPD0P1KjLXQWQ7KIXTd7EsBsJiBXYYwM4qWBGU8b6REH+uWRigqmFbKaLtdGGy/ZF1yoRdxeIA2iZR1iBf59twSUMp0lDD9TF88nUvx5mnPXSbNnpGw/2dX/xBP/HSd6PL7yP3W6eAyidRlpKzI1GW++S4pV9+qbLYRNkfKqP6mSTK1gVdVPAjRNUx9Ltr8Ffcjkf0BLhq1f5Y5eyaIKuEWl+5eRhfq06YMVbVpIISGWvYvDfs/Vu3mq3IzWS2JZpHlEXCM01NPtpc+TM6J3pd8gvoLXfhGUGElV6A9a6LXrpbNiXe8W9jmmFLFOJr5JSHJiYwVK0ionN1fV5OVMHhmXj0XbkjomspY+oXlR0uuzzkP6XEj/yaR19xeVnMtK+B66Ip15T40bxuXftMiCgTZoPmMbjkixwqN7nvQCcRlYQiKtEovnXVq/DYhx21zRI4o9coFouwWw5msuNh+D1B6BQmyOT5RZ+ESQ2j9Ql0lVbiX3ojjnO7cUH3rgsy5g0TG/HjcBQHZD5iq4bVvd1U49z7rS82NfFn843FzsUsn9Gsj/yc3U4URRivTODyDRN47T1DOOeOTXjObXeb9KI7NuLCuzbj0g1juHPjRoxVeSNqB0VyOo5FLowdNDfD8ZcKSxouM+1yw4nvP+/Y4jkuCo4H33YXdeJr4Gvha+Jra19n+7oFYT6ZXMba+onfY03F2mo6ZrS8/T1lKsxUkPnLW7Mt218shVroJAqaAogwRpTVMegGuCduYG1PjpcN7okjuna9sH5gy5j+3kQNE9pDw0pRzmPkcQjQb0xmIeqETjMzXq7Zl8mDtsnBuo4RVGEcYxU5o26eKEAxe42q7wTV3UznZr2zXkuhQZ9kJB7NTh3cgpDl0JzoM0gr2ZInpbLAAtzYdG7JoXLBrUntxHvCLuY0+VpM4wJdI18rXzNfuyDMJ22fwGXOwLMxuY6RfWZtNR0zirKerjJ8HtDL3SIGjjLEWAudB3dFdDcslOBhLEgxgBjn9++Bh/dRLdhFbtiS6PeO34MVaRl75d0YccnYw0WlUgHvMsQChiuaGbs5KfF75rP5xnQoN51N27malgASZspxzNg67kJOqc6mtoeYUkifx1SFEyuHUy7D8nwSauSokhSKjQZ9zrPTuBtLWB5wuTGpLcpbicvUYk5Tr6d9nYKwO2lqppbUIi3Fmoq11XTMKMrKgY+uQkDf01oErfW+KditljNB6AQm7BDKK1CJtjGmR3DhyvV4SrG8y4Lsa/Ux/a6Nd6NH9TbFT5KgF2VULB8Fvwg7q22NhKZL840iAcWtXO2WLq6TxhlR/eTWMZ1Q9abkJS6KiY8SJT/xzJgYnTuI0wxxlpq/4eFv7e4d/vs4lZaEpU77fnPi8soCf3LiFtPFnKZeD1/j5GsWhHmFg/NWEMD/cvljLcWairXVdMxYMvvKgerr7kLKA9SoEEuUIXQq/anGXU4VY04dryyvx1MHySrvIj8f1fq64Xsx5gUYjD2EeYRxP6EohwRPbqPsFmDHCz/JJctTUyfbzoYf+XVTmNHleylpVK67IRwVwrMiEnCU3Bi2l4FXzrDoONt2zJSNlMRnOwDz6D1hacNlpZ3M60mChssAt5gu5mTqAz22k7nGKdcsCLsDLm9so1lLsaZibdX66N/YbrjQ39djujaaooy+xyyDsXtaAgRhRxjRifZJI/UgxqO7y7hgxYpdLpx/rGj9gS134N4JD+uDAkbiOnwEyDwbNVVHgQRaLUmo4nSZitbuKpmadofRZyGVkDDj32O4TjZbBJqDmtPMJ0HpULLo3HNUkaGeKyQpibDEQ8Fy4FueOZbOGGnOW+5wd6wFm94TljZtcdIuq+3npiyYPvHFnfga+Fq2dY3t14IwXzQ1UlMzsXYydpa0FGuqmdiu5S2VSvd1X7YKsggyoZPoV6661U5wkt+La1at2eXCuSnL9XvG/oZfxlUcYK3D6Pg96PGLUFaApJ6ixyLB4iUYV9zi1HW/qHybaZ7hJSyUzRW+KQJ5Cj9Xfh4bxuKslGoU6D2bl7Bxc5Nc3qqJPufPeGedPL2vdYwnCXBXKJOFso3SUoedRDsxJuaeVGy5PC3m1GbydU29ZkGYT9paie0zP2dby5pqJrZbMg8qUbRtxRRFB2Yz5MzPYIcpEofXXxGEzuBEr4A37bHri12O5lq/6a578cuJbuxt74Ex+y6U3V6EmsVJA2USWWnmQKceeuAiy0fh5Lyy/vSJ1zGaz4Q4o9/h2WVW8zULM9VMPA4utUmskU2wcxtu4pjEz/k9/gws1sh7mRlq9D0uVWk74+2dcrMo7tTfk7R7k48YKuN9R3lCB91DBHAyEuLc0kllcbao2KayEiC3XORUKBwS6l5C9z/jmbwmxl/UyadrsqlOsEPk1mRFZdzOqQ7nLtVlmbAmzC+skVgrsWZi7cQairUUa6qZ2K4o6+npMdEzRxbtbhKJMoROoy8oKE6tlzvNlbfdjT/VLfQoBxu9CoKkCxF5JkmSFirVqCwmHokIlx6tHLGuI1U1wKvDK4StkjsLvBoyPWZ2a4Ei8edZ0EWPHkm0kGvY1jktplQjMRZTMKVdG8qzkdspUqsOZVfh+nOQf4KwHdpaibUTP2ctxZpqJrarrlauGPi3BWT5yzWvQSAIS4DrNtypf5I00KBoxvdy9OQpHJXCtRJJkhYs+dqHn3mwErK3qULCIs3lngsPlXz2gXHdC5DaASy7ANsKENNvNKIMCBXsut7mOS2m5GsPbuLCish/Jby5v0vi1kUdDqriv4R5hjWS0Uot3cQairUUa6qZ2CFRBsUtZNykfd8AyXZfqSAsZv7znor+2D01eE4filSB4sRDV9iLiYy3LPIlSVqwFKMKTRLCI4FR0Dm6yMh3Zy4G4gIG6vdfvHhXKFdsFCcUylWgGGt4OoNrp/CCDIUg3eY5LaaU2pR/qg5bhyRuU5QTha64mX8rwulXVBeEueD+48lYN5GOIi01a1G2oq/P7HfI0+9NUxzPaOGmOBFlwiLnK8MN/dHGFgSDq+ElEXIy4o5VwUQ5BnknaCeTJGnBUsYDy1wF5ZLN9RJU7TpGMIZhZwITfr1VineduCdHo5yY75pw6ki8GCkJwDBroJ6F2zynxZXoIinvbJfcIeVfha5xxBrHqFNBJWg0M0EQ5gnWSGbIF4/zJe3EGoq1FGuqmdi+KOvvQ6kYmFlak5WfICxm/q+a6I9sqVK0YaMchnAjG4q0WG7V4KR1uEnBbDskSdJCJSdbjbzajWwiABoFeCjCd0rwlE+JlMZsqSXkJOh77CI5ghKCtA9e2AMn6Ufg77nNc1pMyUpXQNH15DW6vqgLgepGweuBZwdwIevwCfPP5J5F1lCspVhTzcR2m7uGa1ofd/arcc+mKjwz6FTDbWSIPA92a+C/sPTgQlSrNfCJt16A55z4QDVcjc2mPqz0uRk2Vzxnb+b7z1v8uKmmMpMhTT2U7Qw3kQB6+eYRlHPbbI00EzytPafIvZa4eN+eXTi+u3u75XVH+EFc0Vdt+hv+XluNQ8g431kZRlfvKuRxhMwJUUpt1FCg35doWlg40sCDE6bwSWA4rovEsRGSzVWphUA7ZhHg2aAjB1nZRyUPScCk6LVdZGEDE9xK1l2A31jc9j0tkL2KMvipguN4iDn/uCspBeWfRe8lrSO3DdufqpXhAyv7cUQQoEoBnOPEZnxa0pqdPBOapK6leZUCC7wCjY0MA2VPff6nN+oXXvZelEoFaeBYwmSWBT+OkVA5VIlCHKfYY1UZv/zPd2GgNH1X4w45uQed8wZ98z82wPddKJ8KeD1FSEbCkQK1ZFnKouyehtZ/rKboL9ZQD20Uy2VsUFWUMxcrqz7qXo66OwEvm/24HUHYZeIqfNeH9ku4O9P4zegIbhwZIxHlIij1IEpnFzT4vLSGnyOOJnBwwcdpa9djH6r3YWMUmUfiJZ95PaVOJ8/GKf+K0HYRt5ND/PXIKG6eqKJmUf4VehAnM3cBiygTZkNKdSlIEqRFhwIgjShKcNiBa/Cbj75lRj+2Q07uGa+9Vn/517eiN7DN2jmJFTTXfTGD14SlSCeIMjfLwZtq17MM161bg4f2Tr81hSAsda7dsEl/YShCn52Qww+QznICpkvmm+14RdVwnDeI6/cfXNL165I7N+ofjUUommUyNDIz6Gx6RJQJsyGn8mK5ITyqqLEqYiyu4BkPPhBfetslM9azHarWgwP9FDVlZrBa2w23x5cJwnxRJZtZtxUlILZn6YEEYZGT2x5i30foOah7sx9TVnNt+i5yGK6HtLWTw1Im4/Xe6Fob9FilJAjzSVsjceMDP2cNNbid8WTMDnm6vdavgc5T+mKe2mmTMGN1v7jHGwidDw/HDeDAzS2oVMqbsLyxM8BJNCULVjT7+mDzhvSRgpXS93KDzhLHSpqJr9uOxZ4I8wzpJVZKRpDxc9JQe63fo/nZDOyQKNtnjzWwdWaaWnmLFkbayYT5xuGN8NMMlplWLEZUWN5YFgkosrwu2eEAs2/ZKvBAZPpOl4y5ZS99i25RlrmKrlnZKCppKRPmF8tIMv63ufC+RaJs77Wrmx/OwA6Jsj1Wr4DvOWb8gaZCzc1xmkSaIMwnDQprIyenpE0ShOVMqFJEiusEPXqzt7+Rx3Uro++NzXcvdfgaG1Zs8i+kaxeE+YSFmNFKFA3wRuSsoVhLbY8dEmUrB3rR11UyX8yDF+lXWipQEOYPnkrAka1Hhdrb3qwAQVji+KmGo3PTcmzlsxdlOo6BNDGb0PNG5EudAulON+WdOlLoZHbLiQjC9rBbEyH5X27Q6usqkpaaed9LZodEWX93F1b29zWVX0uMycxLYb7xEhJkqQ0ns6Fz6W4QljeKwpRABSgoF0U9+4H+RdD3KA8F24dte613ly4WXatvUf7RdRf0Drk+Qdhl2hopp5rLoow1FGup7bHDzQ8nveJa/ds//wOu7yFTZBx0iHQ7U4qFxUsnLInhZA5yz8aGtIH/WNGLQwsZJtiYqgQJmdYgnzkw4CBCZgkLi5XMy6icWyg0NHp84D9HG/jWeI41VgyVedDW7FrLFFVAroNDdohDVRcu36uEiUaI3LERW2TjF3mPZuSlcGIPtq6hzyvj7VvG8LsJoFtRvlk55ezMwkyWxBBmg0MlILRz2LmLJEpx7GHr8ZP3vWG7DmmHPdYrrv2ofv83foX+3jKscBhpcZAKZ9T6VFhqdIIo479n2HBNTeb9HS69grD4aHdGNGdv3T8x2xMF22Op16/Z5p+IMmE2aNeHUx9CHgxgZKyKVzz5oXj/Jedst1btcLW76lPf1Jd+5BtmfBnqWxB7fRStSb/8UoUN10KLsm05hclGrG1cBWEpsr2yPtsRJEu9fs02/0SUCbNB2x68eBQorsDm4TFc9ZIn49IXPGm7lWqHO9YP2HsdnNaMSy5sWT7zvmGCMFvYaE5OvByArSw4FhlHTuRVJElasqlVzrnMc9mfWh9my9TvW3L1a57zTxBmgjWSmRhJsHZiDbUj7IQo2wNFF0gS+iFlmyhCEOYTLmOTk8p5Pz56kuUmcZQpSdJSTe1y3i73U+vDbJn6fUutfs13/gnCTHAZY63Emom1E2uoHWGHRdn6Ff1Y2VdCHMdQlksRyOJu2hYWH1ONLnd/SpK0VNPU8j7fTP29bZ3TYkpTr0cQdieskVgrsWZi7cQaakfYYVE2UHTVvmtXIQpjKvDcGCwIuxceFzI5aTa8kiQt0TS1vM83U39vW+e0mNLU6xGE3QmXONZKrJlYO7GGan4yMzssyph999zDLCALxSvUypgyYX75t8iXIo/7pSmRsCRJSypNKe9T68Nsmfp9U39vm+e0mNKU65l6vYIwnxiNZLRSZrTTjrJTomyPVatgWRYsx22OPRCEeWRqdNs2trwQH6dtDu6VJGmJpHY5b5f7ycxFy89Sr1/znX+CMBNmHCNpJdZMrJ12lJ0SZQ85YB3yLKVfi+gvl/4K0MLs8DIW8Db8uovEj80CGo52YCVjqFsBveLiN33SZFi39b6i6IMTNw1LkrRUU7ucb6sOTFc3diYt9fo12/xjG8W2im0W2y62YWzL2KaxbROEGWGNRFqJNRNrpx1lp8KFm/+1QZ947psBXyML6Tebi1YJSxCOJGe7TlnD1nDob4JGhnpRY63nqj+O5PpVG/+FzF2LVA+1jhQEQegsHDUIO7kX7169P47st9S9caKLdYWwYCNFhkJ79d1p4OUQZJ2y5UtON93mtodI4acf+g8ctv+aHRJMO6Wqxhpan3D2pbhteAhOTpGIJdHCUmUuRJnPzbe8TlCYYaRExoeiyz9GES7d+E9UVR/Kyez37xMEQZgPqm6Csh7FVasPwJG+T6oqR39NIQts5HmGyBJRJkyPznOkVo59Bgbxs/+8Cr2FHesz3ylRxjzx1e/Q/9/v/oiBYg9iKpjC0mQuRFmiKFJQvKm4Rkg2zSf7tImKzJdHNkM5PYh0tXWkIAhCZ+GrMnQ6jmf0r8QqG4gcIIiAmIxgpnO4pgt0ekSULW88y8ZwfRynHXMkvvWu1+6w1tppUXbRdZ/Vb7/hv7C6ZwUiHl8mLEnmQpTFPCmEHu0sg1YpunMLPhmlTaOZXtVn73TZEwRB2J20bVVE9m/CyqG0g8y2jeXz8pntn4iy5Y1vO9g4vgUXnf4EvP38582fKPv0d36uX3DVhzBYKCHd+T8XFglzIcoKqWX2v0ztDHXFW05QdEnRA08RLjs+oki6vwVB6Ex8P0c1jWCTCEvyjOydhaJ24WS22fey4YgoE6bHoRIw1KjhU5eeizMf+/D5E2V/uOVefdL5b4HdiABXZmAuVeZClIWqucWJ51F0SUfHFssyKjZJTF+RwFPF5oGCIAgdRqzrpKdcJOTnOHz0ckUWUCOOU7PuWaBnDipFlC1zyM9lBR8/ue4NOGq/tfMnyjbVU330iy5DbdMWKM9vvSssNeZClGlXQcUxCrkDO7EQ8gKOLhDQn8V5TMZODJIgCJ2Jmyh4lkd2i2RVwnZLI3NzNCwSZZ4Hlcxsv0SULW90HKG0agV+//G3YlWx6Tl3hJ0WZcxzLr1Wf/6nt6C3yGvBNFd+ZriZl59z9xQvmCZ0NnzvGL5nU40Df1apNPC5q87H6Y84Wm0hMR6RWfHpOJ+MUprTvd6l0iMIgrD0ccgHJmEVyiubYDSrR1jdE6iv/urP+vSL3onucsEc17a/k21w2zYLnQ0vTsy6h++X2e2IaGuisUaE5xx/CD5/9UU7dTN3STnts+d6+kvVXN1/G+KLT0oKVecz2RC07xknvqf86Ps+4qzZGqbTCIoKnWPz5yzIRHQLgiBMRxin8PwArg0SZzyAg1vNgPFK1fQxTN5xgGn7U3by2/KrQmfR9pdTad9H+gf77EVaaSfZpTt/2AMOhq2be19OPrHJTl7ofCbfq/Z9nFzIwjBEpUopTLRHJaXkkFmJIyQZPbbEmiAIgvDvaO45sh0kSQIPGcpBcwz2lpEJ8zjZ5rbtLtvktlgTFgeTdc/ke8ka6bAHHGie7wy7JsoO3Be9Pm+4mZmTaZ+EsLhgNT/ZGLQLVhu+v3/91+3oClyVpzF6C7biKI5bSR1HIjlBEITpsCmIjZOmXfVNQBua92/66z/NY5u27W23mrWTsPhgf8r3jn1nr+eQVtq/9cmOs0ue9fA1vWq/VQMmAmj3o7aZ7OSFzqd9n9qGoP2a72O5XMaPfvFb3BvRu8rF6NiEVhT5mb3o5fYKwrwyuU5KWnwpzzQSElpe4CFPYqTaxt2x1r/8w83wvGar2eTjGba77S5MobOZfM8mw5qItRFrpMPXdO90i9UuN3ccut8eW1vKmKknJnQ+Uw3CVIrFALds2ILPfuPHGOgpK16XLk4yM5MIadQ8aAGZfP6SJC22tD3YpkpavMnJUxJfNtIMiLIcA90l9fmv/xibKyGCgrd17FG7x4ITw2VDui8XH5PvH2ujQ/fd07zeWXZZlB1z2MHmcWphahub9ntCZ9O+f+3ULlBpmhrDoIIyPvWVb+EvmyvaLZWhycjwGH/PEqMhCLOhbS+nS8LixuPl1ckN1uMUlhfgxjuH9Me++FVYftnYWE7tLsvJ/lLu/+Kgfc8m36+2H2WOOewB5nFn2WXl9OObbtWPfcWbUSwWjdJvt5q1T4gfpWB1NpMLEMMGglPbWES8+J1dgJdU8OyTDsdbXv8qFLsKCGsJunQFqdPb+suFgc9REJYqYj8XN0FeQc3uQaZsdPnAm975IXzg6z9FXupHGk3AxX2zLR3H2dpi1kbsW2czWeO0tQ/fS75v9Xod33nflXjEket3WmPtsiirVqv6wS+4HHeN1aFdKlBJDWUSaNXEopPKULQTJLn0i88G22pWTL7ZvAEu7/9u8y4K9EESZ/B4DyOzhSR9BvpQZbB4E3A6VmsSVipofhFV/snmvb2+2HhsQ9GxKo/pTxMU6Lv6uktYNTiA/p5uHLamiLWrVmPv9euwduUKDNB7QYEXDG4KN/5bYfky2YFsC2259M+kIQ5c1uhv2n+3y830u4l26ebzN6m1DIw5f3K0Km/OQJ+O9nULyxObbHHastuwbMS5xujYOO666x7cs3EDfnP7MLYMj+LOezdi4/AYqtw7YXtQbOPp+J7WuDIub20LrtnO0/do+l6bV7TVzYVp+dGi+qYshz5TSBOyzw6PT2uV3yylz8g30Hfya7bflnLMdwq7hmtlqGckreleld0cVRJiuVuCSlKs7y3i1596E4/LntlIboOd/oPJPOk179E//N2f4XZ1QYcT8EjtxzlP/s3hI6RHMsrCLtOOlFzXheNaiOPYDCBsR1dU/+h1hiTL6T0SxsqDpel9cFKISRiTXTAVkpeyyNIYDt0b17Xh03fuvaILgwN92HvdOuyz1x5Yt2Yl1qxYgcHeHjOezHUsOOSIeH2yKAzNd7ChUZSaTkpE93Jme6KMJJh5NEKsJeBNuaGkWKx1ePlpn6M5/9a1sjDj82fuH+r8O+3jhOWJT3aWShDZXbaVJJocm4Jq3zhxhktHLYwwNl4hUTaKO+7ZiH/ecQf+devt2LRlC+7YHCIm252kHGDT39skujzHCC8msIrGRxihRgF5qmN6ndJxzdnxeYM8MNl5E0BT+XV9zwTzcZqYHq4kis33CLuGjQQRAuNtPSumfCXhG3QjqVRw8jGH4pvvvHCX9NWsRNmbPvH/6as/8hkEAytJHdSN887tAlkrcuZoUAERJT4bNEUy3OKlzZpgzVYGbj3j6swG36PKnXIYRo+WG9BzoE7iKSKhZkRafQTlUhEr+rqxdkU/9ly9Cvvvsw77770XVq4YwL4DgZkFFHgk+rjFjQpVRsIrTUjA0b2s5TYc+m5e/YJ/j4WeaWKn12wMeNslQZiOtihpixqTqDwz/FnWbHjqWGyqT3zODIszPud2YtqfCcK2yPKE7DW3pHDvUW5sNbditctNgXsoyKDbjmd6QHhmO+/cxJOpOPj+11AV927YhL/fchv+fusduGvTZgyNVjBeqyOME9TN3sEcZDsoByQOKFjO4ga9RWKMvsshu24CefIfeet3Lad5Pik5C1s1AyVh17B4ZxuQ3qF7a2UNsy4d3CLC4c14/Uuej8tfeNouGYhZWZXv/v42ffr5lyIp9aPgUIGIIrJkAXJ25DqigtDhVrfDcahCc1cjd11yXE51yVRuFmpcsXTKM3sS6CSEJgPgOzkGe8vYc/0arCUBdvyRh2Kwrx97rF5Bj90oc8Wn4xQ3ZdN3VjmCYydDlTaj7+G7xcLLtMLRC/5trsiTHZH5XXpuWvFaEZsgbIt22WH4kZ0Gw+9z4q6dToZbiSeX/WySQ518bYKwLdrlw5R3qznmqF1+TLlq2V9jS82bzTFmvNk5H1fivYNJXHF3Ju81PB42cO+mIdx2193YtGUIv73ldmzcuAl33bMJo2M1ElokCshnOG6BHth3JGbClhfQa/reKOLudhZx9BkLtby5w4Cwa1gkalPlw+KGkSyE7ftopApubQQ3XHcVTj16n13SV7v0R202VVL96LNehb8Nh+jtLkLHIRla7iDTdMJ0w7W0pMyGPI7gUoVKeb0b7qJsDQbNTEtWQgWggT1WrsCh++yJow/aD8cetA8O2XMtVvV2IbAVJlrLVqic18zJkCfNGZUsvLjSh3ZzQ3kyBfczGAwbC4fuYdYyGnxPlWKx1jzWYAZLCMLMtJ1T+7FNp4dsUyVju9xPrieCMB08eL89aYq7GEmXGbbWA7doylK7PGk+jgJuPp7jFzcPzXPTUWJbcD3P9GxYPIab7LBDfiFMc2war+Lvd23Ejf+6E3/8x224+dY7SLxtNls79fYP0HeSrY9jBPS3/P3cG+J5vN6klONZoehekd5hf8q+UnkBxibqOHggwPc++W6s6trxTcgnM+u78uzXvVN/8ad/wGB/H0BigbvceOChbVEBy+WmzwafKmKUJlQx6Tmp8DSNUZ+YMN2Rhx5yMJ75qGPNPqT7UirxmLNGAwklcAREQszyKSJiUcVC3tgBKj7c1WmElQ07r5vfabtHNg58z4wRYcNBv28MBkVunNqftw2N27YygrANjHNpOZ1mObqvC5BxOtwppFNa9rgitc+fE9cjQZgO7jpsz6zk1f25zLRtq02ul1uK+TljyhMlLmdcrix6jKygJeRadtYIttS0cvHxLgXe5jupXgXFEoJSgEYC3H7nPbjltjvw37/6K378s/9FpRahd3AQ1TAy310qBjxRz4xRE3Ydbv3Mch53Tc81+VzXx9DIKJ594lH44jWv2WXjNmur+LYvfFdfct1n0EOizI4aUHRivPUquKWMZwcKu0wjCjHQ14+wUUN1ZAh7rxnEqSceh1NPOg5HHnIAuqIakjilKChCTA7D8nyowDXjEsIkhk9PuBKyYeDBoVzh2Qa0jUFRJeaRRRY/cn9l+3h+THmPSzqWjjafa8XjEJpN7PzIfycI09EeFN92RFMjc1PmOhgjxCbBM5vbTpMfZfaxMBMsxtplv10POJkB/2xjyWabcmTKWbMutI/lFJMoa75HwY3ZRqUJCzYmJB/r2TzBi44PSY1RAO/T6yL5AZ50N+IVcMe9m/G17/wQX//uD7FxtAqnWIZyXDMBodODoo7HZp9Jgpv9I/de+QWMkyi79vzn4+IzTt3lzJ31XfkWjyt77VWk0otAnW666yGGRQaYogTImKPZYAVFjJIYC0iRP+GRD8eLT38Kjth3JVAZQRZWUHNKJpLiBlSbKipHUFx5jdPgyKx9d3kKNUkrNggMfWwMQazvP7OM4abuNg4fb/H30DH0Q20DY36DDpOB/sJM8HiYNKWgIQzRCGPzPOXy0ypznS3Jmsax7SAdOl92soXAQxAE5jnPahaEaaEglmdeMkaEkRhj+7rVjk6ePGKOatrltj32UDfHN2Gj3QwG2u/59Ecp2eKUg2pjp8nU0/vmY3pdTKpInQBWz0r85c4hfOQLX8W3f/JL8s82Cl3dsCjoF3adDClls0f3KSc9HAMkeMNaHTe841I8cRfHkzG7/IdtqvVxfdxZl+BPQw5WFFyoqIa65cF1pKVse6Qqg2v5VJO4NlHUZHGLFS/amqBU7sVYHGMgD/HGs0/Hsx73SKp8IeV3DVmco48KQEMGagodCDsZg+1jZGQEdRJkPBOMSUmYsetwbIscUWfbBw48UtNV1Jz8wqQx1c2Cj4GBAei06dTaTlQQOgmfwvVaSmKBAmrfcyiV8IVvfR9XfPSzqBX6ULZsxOSveaxZTuIuzywzO5OPD5M6PCXdmzNiaySpg2IeQ/slbGkkOGJFhl984hqUiz27bBRmPSiCf/wQ3gmdbj4bY9YXvLrCVsMsTItjmSH2xlGZpm0y/jywvr+/HyNDW7DaCfH2yy7E0x93CqLaBGq1mhkHUKIop9KQKEfobLi8JhlJLxJgbGp4igmLG579xVE/i51OTnyO3CJmWsUUizKqrXQtfE18bYLQydSTGryCTWWWx7dFiOsVPOuJj8W73nAJuqJx1CoT6O7uRq3RMJMJOLjgpTi4Z4W7P4Xt45I9YM1j9A5poIP333dWgoyZk5Gqxx97NJ1Qvbl0A91YPlEZ5L99mmOy2FXpVoRCtYdqUL1aRU8xwLUXvBCPPuYgWFEFSVQ3Dq3t5OxWy4MgdCr1KDTGirvTuVvFdNuYLhueLEJGjMVaBydey4nPlWuoCZroGtotZjxmUxA6GSewqczmZlwwz9qMwwbsqIbTHnIErnnli9AVeKhOTFDs4ZBPaSU6tj0DVJgZ7ppm383NT0b7ZA2c8KBjmh/OArI+s+ehRx6CgaA5/VeTsOCZl3JPdwDNrQWtMWAkZtn48/PK8BCe/rhH4dHHHYP66BDCsG6Wxsh1cyZPQs6OXEbrSwShM+GyzA1OptWJaI6H4dGNTbPDs4I7ObXPlR/53JvdlM1raj4XhA4my5ElGTy3SL6DAnnXQ71RQTi+GU951MPx2JOOQ31s1Kzuz8ES+++tvojKvzAzHFhaqql5OO8GSQMd98BDW5/uOnMiyg5at4rSSjMWimd1NNW2GK3tYbbASFO6CTmSLKV/6UYnKfbdYxXOevoTUJlomMH0brkLUU5HUZ76jo8kDuHu2hIogrDb4ACCp/HzmnptYcPwpBQu++wAOjnxOfK5MnzufA28LA1fk7k2QehgyHOQQ6F/LQ9RTALNtuF3lxHrlF43jI9hX8PjJHnYDPsg9kW8pqUZYiDMiG27zV5BSxntc+AeK3DA2pWtT3edORFl3a5SDzniINMfbZZbyGPYstr7duH9zNhh8V6SdGuNI+DlLx59wkOx74oSHIpwbK+A8XqEhPKVHQEvAOtzV6cgdDgF3yHDxaMmeTFMCtfI2OckaljY5Glm3uvkxOfI56qpjnLTv3mfroWvKfCa3ZiC0Knw7E4O4uN6SM/Jw9gOqnEE5Xim1+WwvQZx8sMehLHRYRN0eA7PxidxlvDOPOK/t4dF+Ztn5JtzthMpWAP1eK0obhbMiShjTj7uwc0ZVnSiIMXNKlKYGW7y5DEqfBdNdE6Pvq3wkKMOha6OIWrU6cZr+K5CKXCg04RSZmbRVBrN1foFoVNhI88zFYvFgtncnpQNlXFlEi9wzKKnkxOLsK3nS+fO18DXwtfE1yYInUw1qlFgT0/yBJZOEJAf4XXNbOWgXiGhVq/goUcfBo+qptLa+CJeA40fWWQIM8OiN08oaCMLwcudsAaaC2at6trcPZHpQ894NTRPv22MIXUGAC0zBGcio8oR2LnZMzSzHPO6x0nwuWsvw9F7dGO8ltL7GUU4zS06VE41THtmI2fFTiGTwcZC58HdfIwx7hRF8hZhYZwijsk5UPDBe0qy0W8Pmu9UOGjibhyzgHLe3Pg58Bw4Fk9mao6hZWR8mdCJKA9IQxJjtssTidGI6hT9uxT4l4CEAgy/jps21fH811+NkYiEBYk3T5E4833UYg1XNiyfGRXASYcRFXrJNyv8+QvvwrpuXntidsypNXnGBW/R3/zDP9E7uArpyAi0L61lM+GRweeFNXPbQ5eVYJwqxn5rV+Br17yCHJYJcf7N4LcdnjgCodNpl9Xp6PQyvNjPXxCm8xfN95vDZ576uvfjlnu3oMfPUaHA36JgnxdIjnl5DGFa/DBDtKoPo5s34NmHHYgvvv8Nc2IQuE9hznjk8cdDp7FZw8fxmltECNPDgozHiXGF4X3SOBo3TcitzwVhKcOOoZOTICx12Newz2Hfwz6IfRH7JPZNwsxYvo9GtWbWJ3vkSSe03p09c+r/Tz7hoegtukh5Y3IZKLhdTKzCXThWc9HYdncOVxDu4pkOidCFxQCX05lSp7Otc56cBKHTmamcso9pr0fGvod9EPsi9kkSkmwf3gg+5f2pSz4eceJDW+/OnjkVZQ9YHajDD9rH9E3ncle3i+t7ZswNR+U8doUrEI9TmRylT43YxRkIS4W2uOnUJAhLgalleap/YZ/Dx7AP4tfsk9g3CTMTU165OsUDD9oXB63y58xgzHlP2SMe8kBkUY1HQ7XeEWaClxHhisADoOPWBsfcfMyDiwVhKTNZAHViEoSlDPuY9np77HvYB7EvMlstCdslJRuRN6o45UEPbL0zN8y5KDvh2MNRdPlrRVRsD160z1bN/QC5MnBTstmb3CKnwIvS0XuCsFTh8t3JSRCWKly+2cewrzE+h3wPv8e+iH0S+yZhZrTKUXYsnHDU7Ffxn8yci7JD912Pww85QAYK7gAci7scqbT6ejlqqVSrGB4dgXJnHpMnkbwgCIIwHdvzEexj2Newz2m3mLEvYp8k3mX78MSIIw8+AIfss671ztww56JsZeCrox94JBqNWusdYTpc3oCc4JvL2FRJtowM4+4N99KdkWohCIIgzBPkY9jXsM9h38O0fVHbNwnTw4u7H0taZ6AUzKmznnNRxjz5hIdjIABSj34gjuBnORJLI3E96MyCRz+bWrLwKe9FlucpCo5GNXPgeEVEUYL/+vlf4VseEoSweEnm1IdPueYhpfyrwCu4aKTzcusEQRCEJUCoHWibN81ukLMJyacEUCjSezYaum58DPsa9jnse9gHsS9in8S+abmjVGK6eONcmYXdzUxV3n4ti+G4FgbcHI99xMNbR88d8+LZ991zLQ5YvxqNMEZQKiGHNv3U7T3wmrM95KbzquY8uJK35Od84YnIrhfgp7/8Le4amkC/24U8TUjMxhiKx2EVClTBAtTHK+gpF1rfIgiCIAj3p+iSj415OzMbha5uDEdjqCbjcJXCSq/H+Bj2Nexz2PewD2JfxD5JtlkitGW2W7MV+WVbNYcaET754Yl6w2icfdavNe/NJfMiyvbuUuqkow9GWmsgJTEW53TDKdl0o3nDU56ZaSm/dfTyRdmumeniUuXh/Y2TuIGunl6qLOP48Be/CV+VqEAowEvhdbmo1EN4XhmB7SOtT7S+RRAEQRDuD/uIghPAc0uohTG8kgMr4P1nSViQb2Efw76GfQ77HvZB7IvYJ7FvWu4oy4fWvPct65fmUlVZztsjWohI2zzimAdgn+65H9w9b31gjzvxWPhBgFojhOW5zVYyujCHFKfm69DSUsbd9twkym2ISlP+tJbEKA+uwhe+/QP86E9/gVMo89L/KGieCOChEqXNhXlzmR0jCIIgbJvA5WWWclSjZs+Um2UokaBIYONHf/yz8THsaxj2PeyDTH8W+yRxz9y/ZyZLOPQsiyPTrctj70LuASwX8fiTHtQ6cm6ZN1H2kCMOwgP33xf12jjcYtE0BVp0sxXv18nTcBNpHs3iBF7gI04zRFGEwHfNFlWpcpC6RfzHJz+BzbyhbO4DFR5PliNzLORU2aT7VxAEQZgORaIiI1+Rs8+ISXSNJ/AzD1saCd74iY8bH8O+hn0O+x72QeyL2Cexb1ruJNyVy7lIeoX79zS9CoIioso4jjxgP5xw9BFz3krGzJsoC7yCOuXow2BlEZI0JZXJ625x0x99aPHlzcv1LC7oprNY1ZYLy/FNhOJTJQqjOorlEm68awNed9W7UexfAdftgkpzlIsk3BoNwJEVlwVBEIRtE5G/ZZ9SLDhmNqXn90D7vXjjO6/HH+/ZaHwM+xr2OaZ1jHwQ+yL2ScY3CVCkVXiwPzcd8mB/Mw48buDEBx7cOmLumTdRxpx63FFY29+Fer1OEsyhK3SN3kzyBB4PcF/meFQZuP+eZ1i6QcFEKoXAg6cUwkYFXUEffnbjP3DeVR9A3ldGRv+l46Mo0Occ4QiCIAjCtshIYNlaI62MGZ+br+jGy69+D35+860oFfqNj2Ffwz6HfQ/7IPZF7JPYNy13XF5cN0/NWDLYHukXB41aHWvJFz/2oUe1jpp75jXnTzpyL7XX2lVmtqXj+nTDPbO1g1Gbqrlg6nKGVbhWFNEkJLZyfm2RgK3BdaiiuA68yIJT6sMNP/0FLrzqnejq6UYP3TGfRVsskYwgCIKwbTJlQ5HY6g9ceMUAr7rm3fjWb2+ECroQxLbxMexr2Oew72EfxL6IfRL7puUOT0pkgRqTXtGclyRYeTbmvuvX4pQH7jNvXX3z3of4ji/9WL/2rddj1Z6rTVdmpZHD8gqk0HNkuWzFNBNa8879OdyCh5Et9+IJj3go3nLBS7AuoOhnZDPGyn0IHBuaKh4pXQSuZ2a2RqTXHI9EcB41VT7BW2nwc65wPOXZbO0Uy7g+QRCETkR5jmnQ4K5FbsPgQedtrcTPc8tHlsTwuIuN/ERIz5XrQvk+6nGCwbACq3cQd9Y13vDej+DbP/k/9K/cA1mUwrF4jUxZK3QmLMrjRqpJvPJ4+AYsv4RN9w7hHZe8FK995iMWryj7339u0s+84E2okv6ydVMEWIoXYuOCJWp8JjJuUbRJndsKpcDH8IY7cPT+e+HKi16Jw/bfG5jYaBa201Q5Lbe1xAhVTlJpZnZmlHlGfLEI40QxkKngLM4mV3BBEAShs2gH0sZWcyBN7prtNycWa54VQZluNZ8se8uVZwkUBeOuIjvftRo3/+s2vOFt1+H3/7oDg2v3Rj2KYWXkB+g4u721krBNMsqnIPAQJ2HzPrgBvDTGf3/0Wjxoz97FK8qYp73u3frr/3sTit3dcNM6PCoMYUZigWSCMD0Fz0a13kCx1IPR8Ql0l0vI4wZ0XMf5570ULz35SBJuGvQ/0rwZUXE949WGszRC2Sub5lfuLjYL+LYEGhcwrtT8XBAEQeg82J6zzTatYi0hxhPkeJ9K13UxEU6QrQ+MD0gSbey5aztwyKvb9M8Hv/8HvO8DH4HyiqZ3qlKro6+nG7XqGEqFABE7DmFaUlLFXYGFehgitguI63Wc9qCD8K13Xjyvumm3iLKPfesn+tyr/xPlFWuB6mYUPRd17UG1Ws6EaaD8cXjgZcyL1ikzVVmRjqpHVcRxiFMOOxjnvuA5OP7IvZFXx6GSCEmuUaMK6pW7EY+Nwvd9k1iIsTjjRxN1UWXnrlFBEASh8+BdcLZ2X5IwYzHGjzwon5PX24e4OoGSq+DyMlOOB6vci//942344Cc/hx/++e9k+wsU3JfIlygkUQzb0iTkQCIuJl8iC8TOCOWPm9bMuqB1q4xobAs+fOmLcfYTTlz8ouzWLeP6MS95I+6p5PAQw7cVYkUFTETBjDgkXnm2h9IWisUyVdAEYdyA7VlUXmyqmFRRkyqe+PCj8OJnPB6H7EmiN89IbIGOoyjLay6bwZWaBVl7XAInFmc8vkwQBEHoPNr22tjqlr1mYdbu4cjiGAH5Al76k5ds+PMd9+BjX/5vfOvnf0DqlhEEPIqF/AH5gsArUCBO/qRBIkPR62IBqaxFNiOKxJhif0vCdqyeYu9+H9/76FuwV3958Ysy5sVXflB/4ps/Qs+KNdBZbGZf5qIKZiSjyudQtMSDMjVFNklC0VHBN5Wy2qgg1jZKBV7MroIAGic/5Cg8/TGPwLEP2BsD3UUj4rgysyjjxN9jBvjTe0ak8forgiAIQsfBi4W3W8e4xYyHqLDt58TvWZaDofEafve3O/DV7/0EP/y/P6BBQi7o7kY9bMBFilLAwXyGJIzh8goIno8kS80qCA75AWEGNOU3CdlMW6gMb8I5T3s0PvT6c+ZdtOw2VfSdX/xBn/3Gd2LcGaBfzVHUIRJeu0yYAd4YNjYVU7fG33GFZEHFXZI5CyvHQ5zzGDISX1EDiMax/5o+HPvAB+CYA/bGqlWrTOIxCHEUmb/l72iLM0EQBKHzaIsxE1CTD/DI5vMY4U2bNpn023/cht/84S+4ZeMYVNALOyiapSw8K4fFm4uTnQ/D8H62nifZ8Xdwqxl9LMyAnceInJLxrb3ZCD519SV49EPmZxX/yezWpqqTX3iR/sntNbMrfZ8eR6hkVfqZ4NZEFlBREps9t3hnMp4R4jo+Yt6iiefccPM23UWtLErKtH410hARV8YkRxAE8F3PHMeJxylwBTWDRqVWCoIgdCQsxtoD/Xn8L9ttTuwPWGxlnm2C88D2TVcn/QG02cOyKehicu+e5yJJIxJ13M2pTZel57jG/vO+OsL0FFWKjTFv6G7jwass/OTT79otemm3irK33fBVffHbP4W1qw5AIyR1T2KBaRc2Lkhtpr4Wdh7OP85HZuqjIAiCsDho+8LJj2LLZ8dUjdF+3X7PCiPonj4M33sL3vuaF+CCZz9ltwiS3fIjbf6wYYt+zFkXIcm7QCIfcZ7cL1OYdkGb+r6w83AeTq64U59LS5kgCEJnwi1lk/3g1OeT7bmwa0ynN/j9wPJQp+dFXcH3P/kOHLZmYLeIkt2ufJ5zxfX6hu/9Er3lfqR5ZDKjLQ44I6bLJGHukTwWBEHoTER0zT+T9UbbH7IY5vdt28fExAie9Zjj8PkrztttznK3e+Vv/fof+mmv+Q90FVZCK5mSu7uZLMSk0guCIHQmYqsXltzykE1sxufe8yY8+UEHLl1RNhJq/dhXXoqb/z6EYtk3qpQT01arXAA5TS6UwuyZmp/tfBcEQRA6i6nDS0SYzS1tjTFZczCc75xqUYoH7z2Ar33oLeh3d58YWRDV864vfVe/5tqPoG9w1f0yY3IGCfPDZGEm+SwIgtCZiK3ePUwVZW0dMjK8Ge+56Bxc+KxTd6tOWpCR3k96+IOx5/oVZr2U9mDGdlQwudVMmHvahU8quSAIQucitnp+aWuMtuZgDcLv8WvWJnvvMYDHnvAg89nuZMGUzxnv+IT+6jd+DM/zTGLaC+Vx5vD6LO3MEuYWqeSCIAiLA2mgmB9YZ0zVHEwcxyad/qRH4tMXnbXbM39B7nYYhvqWW27BA8+/HoNuTCohQY03/Ew1yioxC+KNRxY8mQggCIIgCMIcE2sXPX5uNnev0nPfUSjlVVJFLoYSD79733nYb7/9UPKD3aqTFqT7MggCte++++K4Q/ZBvV5H5pSR5UApaK40HDYiOGaXVUEQBEEQhLmFNQZrDdYcRnuQBmEtwpqEtQlrlN0tyJgFEWVMoVBQL37yiciSFA34SNMMVhqbrsxEU4ZBui4FQRAEQZh7WGOw1mDNwdqDNQhrEdYkrE3KQWFBWoYWTJQxTzv+COy351pEiWk9Q9KowXZdOivbdGkKgiAIgiDMOawxSGuw5mDtwRqEtQhrEtYmC8WCijJWok9/3KNBOQKfMoYH2/FG22YWRC6D0QVBEARBmHtYY0zWHKxBWIuwJlmoVjJmQUUZ8+zHn4I1JaA6NgyvWDZTUV3bQrZwE0MFQRAEQVjCsMZgrcGag7UHaxDWIqxJFpIFF2UHDgbq6ac8GElYA8kxWDapVZ1BcxemIAiCIAjCHGM0BmkN1hysPViDsBZhTdI6ZEFYcFHGvODpj0d/dxcaCWWQZSGNIzozp/WpIAiCIAjCHEIag7UGaw7WHqxBWIssNB0hyo7cc6V60sOPRlgLkTol5JRJVtZofSoIC4MLbTalTWGj6CoE3NQND41Mw3NiKOSLOlmODU0xYZwmyHRu3rUcF8puXvP2sJVDBoS+Q2s4jgPboW/NEvPdtuZFEP/9N+cywc4p2uVW9WbKVXq/5KjcJEs197jTyqLkmHuqbR9+HtE9pu+gTKCjkTs+UstFmv/7Surt1+335mJBz0DTeeoESRqiZFH5onugNQWkiFGm97d1zXOZMjszaXIeKos+ayUni+BwSwKfZxYjpXPK6cbmroWYioetLXiUXyqj70pTcm6Uh7ZNZ0+f0/uC0MmwxmCtkVK9D+tVPOnhxxgt0vp4weiYgVs/+NMd+qmvuByp14UgsJCHNTIMUrGFBYTEii50IaZoyo6pPJKzcbtXISYHFVh16Gxxt+Ym5Ex5FWuPxFlKTpWFWRynJDg0XHv715anJHZIqLKw43EZDgkLXviZRU4z3kvNcfOFmzR3ApksnlgstVNNNUCX0hQhOY8gofNlscOHk1hr2D1mTAlyus85yTI6f752XuFbKRvZFGHa/p25EmZ5ZsPqKpi89xJt1kvSRY8eNewwhevN77JAbh6YR75evibrvmw0RB6JVxJlNuWJRWXDojzSLLrpOedljc7PIgGvcxbmimQtJaozNh1HMQyqO1CGBGGh4DpvBUWEEdmuqIavvf/NOOXwvRZcEy34CUzm9Evepb/8vzeha2AF8sYobBFlwgKiE4r5u/sRNeoIkhqSRoTIKiBOI/h2jFCXW0cuTgKEyJLITAXPyKlavOVZoWhETEYia3tBkdmexGnNmqY8Qhqb7wvjDH5QRiOfZ/NiJayMms/bjyyYWqLJtnxzbiw8XdcxrXkspEj+NIUXz74yYoPbdprCJFEkJGwSljZdF93nyZi/pWPmSpRlqYXIprwm0e8nGUXrdeSlAn2/IsFJQpcF47wSN/ONxChlVPMtft26vvYQEpvEVeD5JLRYwJK4pY8dy0aSkuil4zlfmZTuP+fN1mzhvBSEDoWDIKvYhcrwJjzjhCNxwzUXza5CzxEdcRJt/uc3f9ZPfdXVsHtXwU7IyAvCAsJtJaFdQFibwDNOOhZHH7QfktxGzF06aR1FZ76d5vySwDfdja7v4eZb7sS3f/IrpHbQ9M86pTRzF6bjuWb1a3bSxx97GE448hDYJHDimISOG9C3z28dzp37WsrYwPJ+dbxlCidufRoeq2G8WsPG4TFsHq1gvB6jTueaarpAEhh9gWdERVNc5U2hxi1/9H3Nlr/m9TeFxn0tcPy6/d5s4HaqRlrDAw/ZH49/yIPpxCJkrkXnB/gZ/bYi0TSPZCSaTN6RMOX8apA4DMPQpJiuf7g6jtHxCjYNjWNovIZKlNG5UZ45PmzXQ79fQhTWSNjyuJzW95BIh0dyP9Mo03cKQudiUX3zkI1vwNfedRke86DDRZRNpRql+pmvvRY/vOkWlEol6EwqtbBwsCiLLB/h+BCuf8N5eMnjju+o+jKXfP3Xf9cvuuhKNJyyEVs8MkjlM4tOy1XklBPoOMQlL30e/uO5p3Zs/mypx/q2DZtx899vxZ/+9g/cde8G/OKvG7F5eAIpiZNCTz8cm4RW0kCRxBCPIRxLufvu/mPLZivEJuPkwHhlI156xpPwvgte2LF5t3k80vcMjeKfd27En/5xK373p7/iltvvwK0TFRKyijRYER4JNE1CjLtAXVb1GQk02btY6GB47GytVsHJR+6FL73j9Sh7XkfUwY4K9cu+o859zlNgNcZN5CsICwkF/vA8H4qccnHqgJslBrdMVyvjCIpFOI6LnPcf2Q7cusJjyPI0gc8tax3MiqKnHrzfOvWix52o3v3qF6svv+ON6hefeBM+/5aX4UWnPRh7lHLURodRCzPUrW5sjpvjrdrdn/zYbiVj5kKc6WI/4pyEn2q2+HUqK3t8ddR+q9WzHvlAdeVLn6a+/f7L1E9veDc+d8X5eNmTT8GevV2oVKqoUN5lposzRBptaf21IHQmpvsyHMW5Zzy1YwQZ01GijHnycYeqE48+GA3e70AQFhDXcZAmOeIkRRgv7VZbh8Sn4xagYCONSWTtwHgm7t7j8U9hlCKKF99etXuvHFTPetTD1Mf/42XqR5+4Bu96zVk4at9VyKMG4qw1+aEVHE4WYZNbzmZDSPnMfRUd4w12grKd4lknH6fef9HZ6nsfuRYfft1L8Ogj10LXN2CsPgJ/xYrWkYLQmTSiGCcedQhpjiM6qgp2nChjnv3Ux5vxHYKwkGQpj1XS8AtdrFpa7y5N6mECz28OMs9ILLg70DKoc4WUqqnrlxZ9/qzv9tWFT3+k+u0nr1T/eemLcPweztaxae3ZiVO7MmeLr2MEdg5PL77lf0pBz1ZHtme/p8553EPU/7z3MvXpqy4lR/dQbLyz0vpUEDoTrtesNTqNjhRlLzz1YeqUQ4oYTTMzcDjgZka7iFBxV0IEKycjpgutowVhfkhVRk4zQUTKw9ZLuzu9ROKgYuVwSYiUSF9VtjPIn+FZjB6Jt1hbKGDprCt4+qMerH746Xeq9593BsoFB2PcCsgLrzl12G6OghuYKHuqQGuLNm5V4+7OmWgeF5FNKyFbQrbsaccfqf7ftefhS1ecgdW2hfGJUahCmYIbypOc1zjTqOUJHCe4X/5xnk1NgjAbeM08lYZweL1Ju4CM6mRBNeh1hPHYximHFIzWaB3eMXSkKGOe94ynw4lr8IICaiTOQA7S5XVyyFlwN0s+zzOTBEFY3pzz7MeqX3z4Gjzp6HUYGR8lMbYKGQm08WQMfaWurePM+LGd+DVH4Mt5TOxAwVenPuoUfO8L78KZp56EkXvuhd3VhSiPUIjr6PdI6IbN5TSYyQKsLWwnCzZB2BW4Hrp+gJzqoqKyx2VqIlFGP1jRhNEYnUjHirInPPJEPPSg/TBRrUEXikhJ8XIHiU54yrhDNVlEmSAI88u+63rVN975RvX65z8bGzbeA8cvwUmAUIfG6LcFGD8yLDDaaTnT7dlqXY+v3nfJubj2whchHN9oVk9XKMDOFIqF+wuxyY+CMBdwecp5Bw+qm35rbUIU+jBeqeKEQ/cyGqMT6VhR1mdb6uWnPwV5HEL5LnSewKdKrXMHIXcnLfHZcIIgdA5Xv/Qp6oNvfDmS6jgcq4RGcv+FZSeLMxZk2+u+XC50FZS65LmnqI++8TxkjRB1q2yWmdG1inGakwWZCFphLuEqmPCahISneOM4qpcUVPF+ly9/zhONxjAfdhgdbTme8+ij1YkPPgKVkS3wXd7OgyJRXmmbcltsniAIu5Nzjj8C73n1C9HQE/CdbmOHeLkMs+8nj18hMWGicxJmbbEhNHneIx+svviON6Fa2YQKL1gc9P2bAGuLNMk7YS7YWrboMc146zgLE1s24sRjDsczqTw2P+w8Ol7anPusJyGIJkjlWqimZOxszlyKTDNRZYIg7D6c3m71oic/Ql30rMeiWq2aHQSmLpvRdgQiLP6dpz50f/XeS85CVhtCqItb82ur8yTaosx0NQnCLOBt1HjTFa1chLzPLJWzYjKGlz37ia0jOpOOVzZPOe5Q9dQTH242Sg4tBznvd5fF0On2Z4cJgiDMNW8+97nqjEccblrHWECwKGsLs/Zgf2HbvOJJj1LnPeNxiCbuMcJraqtiW6RJ968wW5RFAj+NoGwHiVNCEjbw1JOOwaMfeljriM5kUZT8Fz3jKUiiFHZQogwm5UuizLaX9rpRgiB0Lh9+5bPR3d2NQqFgBERbWLRFxWShIdyfy887EyccumKrKGsLs8mCTESZMFt4WgmPH+N9bu2gjEajgRc88/HodjpzLFmbRVHyH/WQA9VTTnkgGmOb4UYOUteByu/b7LhdmTkJgrDzTGiFbp0i8RRqSYaSWr5LOuwIxRWr1MfOfzK2bNmCvNxDoqJBiQQFPGQUkfOm3MK28fMI177seYi4iJF/7HEcOCrHGO+VmSuUU4W67Jsp7AKTtYBKUqiibx4ro/fg9Mc+DI85pjM2HZ+JRROOvPAZT8aqwEZsA27O3Zj3nTpHWe3EiEAThJ2jy/IQVyjQyXMUSl2IpKFnuxz34AfjCY94CCY2b0Spu5/i8hyZzuAVupA0qq2jhKmU/EA94AEPwHNOOxlhrYJGrpFmNgq2C40Eic5hd/h+oMLCsy0fP1kLWB4FSPUUdrmAAUfjzKc+oXVUZ7NoRNnJh+3J+9RhojYKVwVotMZwCMJipBZmHSV7tBPAK5XM2Kg0p9RZp9eRdBc89YrnPBFlV9H9zGGRmMjzFKnjwLdkoPpMdBWK6qVPPgUD3R4aWpEYcxHw8gUqQ2JlsGQil7ADTNcAw6KswruT+N3YMrIRZ5x6Ah51xN6LoqVmUTUn3XzHJv2Y8/4D9chD7uRwWop4W/CNmu4zQdghdAbb8TA0WsEn3nA2Xvj4E+esvvz3j3+hP/7dX5sxSTymhuEyy8/bY5Q0D6CcR1JMADm5Q9fH3Zsn8Jub/oFSz4DZ+1LlCTnK7ThGxesFupQ/Nbz9ZU/GRWc+Zc7yZ2Sipr/+ixu3jjdqjzFq12nOKy9tbRJP58EfB66H/r5erFuzFisG+9Drb8NazwOPOf9q/T+//wdWlD1EuYXcK6CcjCLC9F2YfB2OrTA00cCFz3w03nPhc+fsXCvVSH/ux/8Hjy5/Ww6rTYnKVxTyIrgpussB5dkAVvX3Y2V/H3p6/N2Sd89647v0137xD5SdLthZBRlvo2cHSCKH6l7r/grCNphctif7+vZz3lYpsAIyD+P48UevwSHrV+yWMj1bFsVJTuaNH/qKvvaG/0JvqctMR2cm3xBmsuEWhF1mnkTZeKz1Rz/zebz2A9+CXSzer7xOFmXzXX4zXppe53AtG0nCjrkHjrLMLCWPziG33daR0zCPouyuDZv1+qdfZLpTDe28aNd1fs3jjswjJU22gI51fB993V3o7urCI/ffH4971Ik4+WEHwaHrKwfunJ3fZK77yo/1Re/5FP1mYPZJhVeEWx9G7pZaR/w7fH/nS5RtGqrpR5x9Af66MTR5M1050hnlmefAp6SprKck0AquhfXr1mKvdevx/MeegOOPPRJ7dzvzkm/MF37ye33m5dehXFwBu0GizItMqy1CF4rLpyDsAly/fLIFW8ZGcMVZz8R/nP2keSvDc82iayN+6dNOw/7r+jA+PGQyvu3QBGGx0OMp5XhllMsOVnR7WNnjm8fBLvf+r0vO/CZnAD1WP1aUV9PrFQiUh7BWhUNOmnfRWEh4DbA1vQNYRWllTz9WUVo95fVgYTVWlFZhddca7NG3N9b274U+px/ZuMbIHWP42A9+jtNfdzlOee4r8NOb/tb65rnnMccdhRVFD1GcwfVsWCmJIbvY+nT3s2qwpHhD+b7+fvTPmNaipzAA3y6jy+/DQO9aFPxBbNpQxW/+7y948SVvxVNefAE+9f1fzpuRPf7IQ7G+t4gkrZMIs0lEukhAYt9pHSAI0zDV/08NPsaGtuCgvQZx9pMe3XpncbDoRNm6lUX1MhJmDjkNblWY3PUzOQlCJxNlGtXERjVzUcs9k/j55NSAP6/JUxmcPCUhVgN4s/8sgus6JMo8NJIFHrPJLXaYuF+K9fj9kuNFyHUNYTSKajiMOKkATgQn0PDKFkp9fSivWIt/Dod45nmX4uL3fnpexMXBa3vUUQeuRyVKyPbQG3EVikT3QpDXxvTIuNZOsQwrGjPJjsfvl7a+Z9Vh2SSGVB2JrlIe15A7Mc+kQu7lCAbW4M5KihecfynOf+cn9Fg69xHw+l5fPeKoQ9GIRui3LVjKh87JhvN6lIKwHdq+nh/bAq0t1izXxgXPfjL2WDFpo9VFwKITZcwrn/poddAhBxpBNlktTxZl7ZslCJ2IUjZsnfICCtMmR8fzmipqAqrXRuLnSJyMnHIGZVtIk5yc4sLOfuMu3Ex1bTPlVrd5DKneJ44NHfgApdhhIWujQXnLqScOoSfqSLWP4tqD8N4v/Bde9+H/Ny/C7PgHPxA6be596SuNcIE0hVXqNaYvJk3dcLqmTXW7bMYO2hTTOnSvbbhQOS8CSY+Wb5K2FBrawspDH4TrPvdNXPb2T7Z+ZW55+NGHIUuqSCnflMUttFQGKUgQhJlo+/jJvr6tBzgdcvgDcO4THrHohMCiFGX1sKGvf8EpaKQOXIuiYy9FkhdghZnZuDy0FRzMi+0VhDkhJ4fHK06bVadJDOUk0KY+5zWcZpNUapGztUngOPSd9JoiRxZdSZYa0WPrAlKeMp5SVJkp+hPXJDP4Xy/87GZbk7JJQ1h5bJ6rLDLPHdD50yP5cCMqrIzOn4SknWV03poEp6b3c1TIDlguPYcip5+gt78H133hm/jKjffOuXF48P4rzBixJMsRBT10jgu3JIam3/bo9tlZTPmRwiGbyM858fP2e9p2SNxadLvvyw4eW8aJCgH8xEWSVmHHNQwO7IXrv/U9fPqnv5vzvDtyv0H0eT2IKRRJ4wp8EonO4hvuLOxmeNuk0KbiyHU+TI2ot7mln2tAHuL9Z55stELr8EXDohRlxaCgHvjAB+K5Jx+DicRBTNFdoBqwPBcpRVocqba3PRGETiRn+cXr7VHZnZw0Oab2c/58Nil3ycmRyGqQ6IpIlDVinnFpwyt2mZaUqS3Kk1udlwJGtNksSi0zKYiTIoH6xf/31dYRc8eK/gEUi0XYnKckatuzRRczaRqjt7sblRoLzBxBoYRPfe6LzQ/nkP6+PnR3laBJ0LbzbSmVQ2F+yMiuBVy3rdyMgS3knmk9n0hreP4jTwJrBNYKrcMXDYvWchT8QF387MdgoGcQUZwji8eRUaSaagtWmpExXtiByoIwMzl8kkjtFKjsfmnyZ7uaLET0Mw34Voa+so+CQ/WkUYWK6lA8GL1FW5gtOUeYcx6QkWO7wGNPbQe2X8L//PTnuG3j8Jxe7OpVq9DbVabfpK+ltBTaeRzHMV3ZPMM2o3ChRGL+13/8C35587/mNO9WDgyiv7cPeZaAd8BRVA5ZUAvCTPBWiyrJKPBMkVMdz6McYZKibyDAa5/1BKMRWocuKhZ1OHfoQXuqFz7hkcjqVehCGTxrx8sTU6lzyPQdoXPhltwQPAaqmera2fp8rlKsXJJljkm1WJsWZe2VkNoFuOX+1pncn6XUWmZz1xyJMRZk3ALjkrjgMUsNyutf//mfraPmhsHeLsVLcaRxbF4viTwk7xCHMVzfo+uhPNQkbu0Sfn7TX1sHzA1lz1P9lHc8Jo/FGN+zpdDSKMwvXMN4lIfHdZz+ywMKHkgLnP3403D4QasWbVy06Ev+a59xCo7ZZxXqihfhTBHwIGbbR0RRlyB0KtzV5aqEpdM2k6MjePT5bJKbRyg5GkU751l5pm70BTYQVZDUx5Zey9gUbOWYVkB28q5tI+eB+DyqwQ1w49//1TxoDimXSPCmzfF6S4EojVD0i0gSbsHKkYQRGqmFO7aMtI6YO7qoPvC6gFwm+X6Rem59IgjbJiQfz8uoBBnVbSozDSfGg/Zah4ue+vTWEYuTRV/yB3pL6uIXPBNRdQJISYjlCnFKFya9l0IHE9VrZtA9D8jXFNPNR+LKrTNufdDwvQC8XXatESLlgfy+bxwgp8njypYSGRnqjK+PdCjrpDxJ4ToO4lodNV7kdY5xeJ0tgvNzKchdi64nT7nXgctHjoCHhCgXw9Va84A5hBf6pNJKqXnPyIwLwozYrqIgKIeVOibgimqb8dqzTkd/7+I2aEsiHDn90ceppz7kILoYEmQomGjVcZd2K4CweKmP17RnkzgINaqNHBO1dGuq1LP7Pc4m1WJgopFh81AN9QgYqUQYrSewSv0Ypu/n6LLdWsZCYqmJM55Mwft4Wi4ZbR5fpnP4lsMfkH2Y+6gto8jdIl3Gv7kU8pJFGbeS8WQJ3jEhIEFrBWXUWzupzCW201pniseUUbCS0b0ShJlgH8+D/UOq0yxknvzgY3D6Y45e9BVvyVjhm+64W5987tWoJl3odsgJqVG4eVfrU0HYBfT87X352zvH9B3/+gu6uprbhfEYM3Z+bZE0F7BD7S6VUa3W4RcLCKMIjudDk9P78te+ii//8nbzm8bpEjvdcjaP2yzddvdG/aCXvMVcA58Pdwmabi2i/Xx756lY+CY1uKUeJNUqylkKVRjE0MQIXnb6I3DdK58/p/bvIS+/Wv/5b3/lEB4OD0Ke4VZyPs/XNksjExV99FlXYHh8wtxbzqd2uWrn2Y7cZ146pRh0kbifoFA3g5uVsaFWxelPexhuuPicOc2706/4gP7yD3+NwbKPOu9XmNRhy7hgYQYS1UCAHlTJLHTbEX5w/TU4fN/eOS2XC8Giv4DJvO2jX9GXf/IGWD0r4GsyjOk4cidAPWka8sAjI92oolQIUK03SGlzk7kgTMM8irKF5vz3fk5f/8X/QW9vNznoZqsZt/LwmKvtOeutLLAo48e2kNwWLHpqqkTChP6+Pkz13keUkw0YH8I7Lj0f5z7+uDm9n4e/+Ep95x13I9EVchJrEKHe+uTfmU9RRmJMH/PCN7E4M3k0VYhx4ue8Hh5/bqmm+Gnm5X3HxnkRjlWB5+UIM15apAfx8CZcfNaj8eZz5+58meMvvEr//s8b0JNUMUo2uytQSJO5C1CExUccNVAqFRGGEbxCGWGcmnJZpuKq0wZSpweRSpCPb8GbzjodF5/z9DktkwvFkui+bMM35ZgD9oaim0kxMTRFqxnZcR6vwBFjHDZAdtCMkXC9oPVXgrD8aAucxQoLC25dZCPNwqLd4jc5pVEML6tDNUbQXSxgvJ6iTuLCdx0cuf+61jfNDZWxRNdqNbNnZ+D5SLLmLMyFoC28pjL1fZe7cLVlhC+f99S1HX0/RdElMRblSGsheOsjrwA8+NhjWkfMHRMTVRJhiekyDYIAaSrrTC53vEKRyisHFUAShWaJFs/zKFiggIKCQfbx7OvZ5y8VQcYsKVHGvPn8cwCKhOGS0bY8hGlzIVnX5pW9M2PAY7O2yZK5h4Kw02zLaXcaLLjaj9tKk+HXXM/biUWnQ4KCZ5+WrMwsgOp3D5qBwUcctA+OO2j9nGbAxkqNhMUEWVQK+FzfrOu1kEzNp8mv24nXIGuL87aQNS1nLZELXUNlfAKuU0Rvdx/CyhD2XNuDJxx78Jzm3ZZKXY+RKDNCmkSiQ7+f0bkJy5uc97+l+srlgbw5ufTc1O2Iy63yjI9nX298/hJiyYmyk48+QJ17xjMxsWUTXZ1jokEes8OzM1hps8FhQ5TJ9B5hGbMYRFlbIEyXuG4b8UCwyGi3BLU/D+MEGe+DmVO993uQcbRdH8JZT32s+Zu55JbNI6hVKvADsje8Gs8CWta26OLu6JkS51W79YEf2S7GcYgkieh5yl+EQu8AJnLei1IjJwf4ijOe0vqVuePWTcOYqNZQ4BZG0pBJ2uC+jNanwnKFdx1pT5rxWuXTTDyhem85rvHx7OvZ57f+ZEmw5EQZ85qXPA8Hrx9AWB2HT9EyJ1bYDBsrx6ObSkZbEJYrXA86HTbCM6WpLWNMW2zy667uXgyN16FKK83Y0ok7/45XPv1kvOCxD5tzI/6bf9xmHAbblZyiezq71ie7n7Yw5fGBMyWG846DVk5tYctCl0Va1lBoZAp54GNkdCOe9eiTcO4THjnnefenW+7GxHi1ObSEfhe8PyfPkhWWNVvLIZVLLptcVtmX89jwRm3C+Hj29UuNJalM1nQpdfm5Z5pFMhvVMbqxdJkUGmbkhzg59JzXbxKE5cpiEGW8kfpMic2XUtztxi1mHGg131y5nvoAAEY1SURBVGN9llFF5y7LlYP9yKMq6pvvxYue9li8/bUvnpeo+n9v/gs5C49+OyNBwd2XC2dfWJC1hdlMifOOB/ZzYgfILWbc+shlgwVm0fXR5duo3f0PnHzsA/C2y17b+oW55ff/uJXyTSFjYUhO17bmfskNYfGhyEdzOc1zDS4RWlnwHBsR+XQrqYF9PPv65tFLhyXbXHTGyceqJ592Cpw8aq7kTZeqeUVZMkRJGtENX7iBuIKw0LRblDqZ9jny49TU5j6B0Vy5nxM/Z3HBz0fv+AtWplvwzkteio9fef68XPTtd47rG/91e2sBVELzmKyFy9926yGLLk5t8do0983nnDjfWIy1u4C5tYwH/JtWMxKVUW0E9ujduOrlz8X333e52qNn7i9q88io/tUf/4JCVzefODI6RR4/tBiCBmF+UTohoU5+msurRQEPlV0W7lYW4imnnmx8fOvQJcWSFWXMq1/xUqzs6zE3lvumtTFMVPeTFL4nzeOC0MmMjY1Nm8bHxzE6Orr1OSd+Xq1WTSsPc8Rhh+Oq152Pn3zpQzj/aSfMmwH/001/xqah4a3iMIpiswDqQtEWV2NjE/dL4+MVk9qvh4eH6XHMTFDg/ONH/tvevm7svffeePlLn4fv/79P4tKznzlveXf77XfiT3/9h9nsnPMvMYIwMfuWCssb9tEcXDR3PWlupcTjHVeQT3/1K5fW4P7JLEmlOZn3/vdP9CXXfAzlQhkNl6JHy4fV4D2zEljaax0lCNtgCa9T9or3flZ/8IvfRU9Pj3nNA7vbrVDGObbGR83IPK5TVqvV9Hu+9rPWq23j6GY3lxm/RUFX4LlksHuxbu0arBjsx6Fr++f9fo1lWr/g0uvwnV/ciO5iiU4jguX5aMCGO0NrPLcEzdc6ZUOVSH/jv/8bm5Ni651tw1vg8xp13CrG3UJ9PWWsW7Ma+6xfh/1WDO6Wsv6yqz6gP/3//Qpp0Ity4AJhxQhDj0Rayq0kwrJFqxg6caGL5KfzCF5imYkob7v0HJz7mLkfF9opLNkLm8xTX3uN/v/+8HcU7TKSLIRb9nk30wWetC50PEtZlL3jo/pDX/3ZVlHGWwQxLMq4O4sdIz+fkXkUZYuFn//9bv2Ul78eqdcHm4SWTkMo10M1yVCYobdvPkXZYuEvmyv68c97CYbSEuxCDwXJMVRCotZ1EKXaDPwXli8Od2QHFrJaTHWFF4GfwOMfdCi+fO1FS7pkLIs24ne//jwMBg45GjKUZDDTMESeS/elsHzh3Swmi672cxYLnLYryATDBz99A8Z5P1EzS4yX2uFZoDk8XkNJmJGPfOm/ceeWCZS6e5DEDYqBKBAgj8TdVLyckbC8STX57HoDBQqMcwpyBsiHv+vic1ufLl2WhSjbe6BLvePCl6JaGzJTrv3cR6xk9qWwfNGque7P1AHVU18L0/PV39yiv/mD/0XfytVoRBToQZtWRtazPOFbmJ7f/v0O/ZlvfA9dK9bzsH4oTfZYN1tnecHQhRyTJ3QG7KN9BMhcBxP1IbydfPie5MtbHy9Zlk3Jf/ajj1XPfuxxGBkfQ2LZKHjifITlS9yYMAKsLczYGU5uLRNmZuN4XV91/ceReWUkeXMNJc4/22suKRGHYetIYVtc+ZFPYqxB+Wa7ZoJBwfdM/vGaVDY5YZ6MJSxvij4LMwujE+M447SH4YzHPGhZND8vq3CEW8v26i2gqkOoSAaRCsuXwLtvKQkWESLMdpxRUg5v/eBncNM/7zQbJfPgY54pxjMG45hbe1rbFAnb5G2f+a7+r1/ciHJ3N3SWw3dcs0wRD3HmzfAUFT1paRTYR7OvXt8b4J2vWvrdlm2WhfKczH/98s/6Oa9/M1x/RXPWliBMxzwO9P/57/+sf/D7v23dKohbrDi1hZIZV9MSSLuKWYvKJ7GVkLPLHKROhCCtw7FL+NKvb8Jvb7wFxWKx+VtUG9q/y+fAj22BNi3LcKD/lmqkP/v9X+Piq69H78q1qNer8HwSYWYwlELYiM1WS5ajzN6S08GidzkO9P/yL/6kX3TJW+D07IEsic2sT+6prFQqlI8F0wXMosxzeT1JaS1bzvBi0GF9I75w7RV40kMPXRb1g1k2FzqZ1177cf2O//4/9BUkHBNmYB5F2bs++ln96g9/m7yPZ0SZWY+HW6vaoqy1Ps9ssDV9r4qgUm4B85HbEezGOAK/C7XulejOGmbBU7NYKF1rW4zx4w61lC1DUXbD//xUv+ytH0GlsAp+0kCx5JtdQ3hvPtvykGmFOE1IbPNq+dPn4XIUZb/441/1s15/BUayLrh5L5VJChAoMOay7xdLCEnEclnkpU10EiLnDTqFZctomOPCU4/Fey49Z1nplGWpSi551Qtx6t4ao5GDLtuBpyNUsxiucuBkETKbHCLvQi8I80QUDMILPLMQYl9XCQPdRXrehf6ugkn8fLC7NKvU1xPQYw8G+rvR3+fT8270rVqPQm8vBq2YxKBqrQXVbBVjodB+FP6dD37jx/rlV74fDads9uRzHY2ENzl3A+RkOxLd3POSt3WTPLw/P/vzJv3M116NkchH0fNJwFaorGkKGsgFOS6iOIbSKUjLmuVZRJAtAyjopDsNL6cAkupNQ1FdIlHebZfIN+d4DPnoy1774tbBy4dlKcpWeEpddtFrscqNMBZHqGsP/UEJmZUitj04uYc0a7SOFoT5gVsFuJWAU9p63Pp60mfzlYQd5z8++hX9umuug1seQOAoBFml9YmwPW745U36seecg9AL4Dsl6EQjn6FrV1ge8KgJXu6ikodQjk91ykPiOhiJR7FHwQb7aPbVrcOXDcu2/+7Eww9Ur3/+41BtTJiFC3UjRS1uIOf1m1IF2xGjIcwv2x2zJSwolSTTf9tc1Y87/y366o99CbpnHSLLR86t6iLKdojXvf8GfdbFVyDvWUmOtwTFa08lgFvqah0hLFfMMI04glMqoMJjMfMC4BdQC4dx0bMfj5MOO3BZGshlPajqwjOfop564rFIauOokgbzvDIs3iPT4u4cWbxQmGes5mzHrak1nowTj+ua7yRMz3Cs9af+62c47bkvw/f/70/oWb1X02FEkVmywRL7MC3VUOv/+8M/9VHPf52+5hNfQFfvWpRUEXk1gU4zWJ6DaiZLhgi8QGwOl2SI43kILRvRxBiedtLDcOELHr9sI9Zlb5nfeeFLsL6LnGApgKM9FHSG3AopmhOnJcwvPO6IZ5tx4ufmdStNfj5fSdg2X/7Zn/TjXnQJLrz6gxi3yuhdsQaViVHYaQTPBmIK4BKn1DpamMwfbxvS57/9MzjpJVfi78MjWLfX/khrKbIGCTJHIXGpbGcxirIO2bKHJxc5ngtVT+HbNhqqjn16y3j7K17eOmJ5suyVx96rutW7LzsPWW0zVJKgXp2A7TfXHBKE3YWmuHDy4HB+1hZq85WEbWP7Af7491sRDK5Fbvuokk3oKVI8nzUoquduFxthLvZhMj+4+V79zMuu08e/4EJ87gffR3mPQfiZjc33bkCh4CMvKNScBHaJbKvOUU6l6365Yylt9omN6hFFOnWoeAve+frzsM+a8rIuHGJZiNMedJi66IzHIaxuRtC3ErVqKiv+C/PO/bouFyAJ2+YhD9gbF539TCS1ChyeHea6ZqmQPNdm1qVDWefky7ulZzjT+sabb9Pv/uQ39UOe93r96HMuxZd+8XegZxVKpSLiiXvhUqTR19eHahyaoMNKczN2F7aDhhS/ZY9vK4yPV9C9ZhXq48N441nPxmkPPmjZlwwRZS3e/JLnqOMfdgQ2VxN0BYOo1ba0PhGE+WFya5VpvZpkjqQla+FY2+Wq1zz/yTh8//Wojm5BEATIYCPJFZIkoag+RqCW10SgjUOj+lc3/VN/+Mvf0y++/P36aWddjKMveAde9bGv4eZ7NmNVXxFr/AReYwJIbNjeKkRZjkRRueY+3yhFv3bRpT0SaTEqvdL9u9wJGzX09/TjnuEtOPHhD8EbznqGSHVCMmESt45V9WOe+xJsjHkWyAo42SgyMsK+y0tk0AGO39ybzSITzWPPMsm+Jc08Lh77zs9+W1/8gc+gp6fHvOYlMHh1fxZj7Pg9z6Ofn1/Hn5OTLFJZzrOEinYZNXKcKospUsvNgrbx9iYDzOPisXdu2Kzf+JFvmXxheGJCe5cBTpxPNRJKnheQo5/AFS95JtatGpzTCvmrm/6oH/PaD1Bd7yXBXEHsWbDpfJSVw415Md5dby3j85/PxWPf990bdSEa3jqpg/OOabeQ8u9zN2zzkfKT3uZjGo0GJmpV1Ot13D7mYmRsHPdu3kSibAjjE1WzjZRtu3CpXviBxPTC9CgKZXjbrBQOXN62gWctsz6PIlhk3yLdBZ/q7ppChG989D3Yf0XvnNaBxYpkwhS+/ss/63MvfztGdICS45CD0kiTiAwWOQYyRn6hiPHRIZRLBXJqkn1LmnkUZdd+4iv68k98C93d3eY1iw/uGmMn2RZobUc6X4yT6CuQsVR5bFai54U8u0tlE8HmaQxH8QiqGZhHUXb7PRv1AWe+1ghUFg1ThQXnUzHKYPldpuvj7KecjI9cccGcV8hrP/lNfcmHPof+wbWw4rpZZHpl1yDGw3FYetcXOJ1PUbaB8u5hL7kMt43et0ME/15bgDH83HSUmEd+Su/TseY1C+EsI4fZAN1gOBSUuoFv6oL5G0p8P9JUZlAK02M7CtVagwLPAYR1sikU/PFC1VyOUq7T5E+tiU344nVvxWOP3n/O6+5iRUKdKTzluEPVOU97IpzGMGw3QBhnZDwDs0cgD1BNwhoGBwbIZkn3krBrjIck58lAhRMhNo9UTRrhx+EKttDjKIkcfo/Fznwm1WigMTGKxvgY6iOboBtVjNPrkNcOokh2IWEB1l3qR095wDxOTvwep1JPL4rdPehZfyA+/t1f4/M//uOcV8oLTj8FJzxoX1RqVTgkWIrKoeckRnjXjw6lRHmiyeENlBwMTkoryu79Xg92e+jvctFXdtBXtDFAabDLw8qBMlau7MHAqlXo7u9HoVwyDpTvCe8AwSvuN3eCEITpaYSxCTobtQnS+hkK5EPdoIQUNoqlboRjd+Pil5wlgmwKkhnTcM6b3q0/+u3foK9/0ESVtiKDlJCzcpzm3nZeETpb3oN9lzzz2FL2k9//Vf/8DzebbkqGV9jn1geGnR93HzZbM+YRHaCRZAh8B1aeYDTM8Ln//hG2jFfRVXQRba+hbh5bym696159/Iuv2WZLGT/nvAlJGHGd5NaySj3Dfn0O/udDl2O/1f1zatd+99e/68e95h2YiEi0eAG25KFZOgezWKuMz38+WsrqWV3nqY+jz7oEQ1vGTV5Nbh3b1nOGX3Myz1t7rrZ7z9sdAnw8bxZuHim1jxeEbaHItiVRDZ7lICFf6bg+0tas5YmxYbzwtGPxictffV8hFAySIdNw14YJ/ZRLr8W/7rgXIHXPDsE3/eEhXN9HmGj4k4yasASZR1HWidw1nurTXvp63DlUg4sYub1w3Zcsyh70krearlwWAJNFWVsQ6EIJVm2IPnOgS6swsmkjznj4wfjC2y+e8/v0zi9+V7/mui9gcHAAeVaBTop0IlHr052Hz3++ui+3TIT6AadfiEba7GacLKD4OWPyj9JU0Tb5OMpxemwd09Jf/HmuU3MvZAFdYSa4s5K3JIvDps9Ms2Y9zsIqDtxrD3z9nZdh3UBxzuvqYke6L6dh/Zpu9Y5LX4FBP0PWqLKVQpTEKJfLxlHwmB9BWEpYVgMj1THEns0T6BYUFgW5TQKAUmbl90vt93lQukvRd4EMf2NsM/pWrMQ3/vd3+OS3fjLnTTivefap6jEnPAhDY/fAq0fIzfiqzoRb87nbyMvjGRMLb0dHsHNympQ8eu7Te4FKTOIuJxZfaZyYwdmczJ6pmkQaCWFBmAmuw1xmysWiafFmQabjOtaQDrvujReKIJsGEWUz8MgD1qi3X/YaJBNj8CwbruOjMj4B8guUpOleWFp4jgU/KCMHT3BZeNPg5JZJrra3PrafcyrbOUXjDsaiHOWCByutw+sawGXv+Sj+sKEy5xX02pc/C/ut6EOUKui80Xq38+AZ42kcI7a8aVNi+yQsfaSWi0Q5iChxXrZTTPlsWsOgyO45CHzfJBZ8PCmg3WopCNPhOy7ZFNfM5PXcwIiy+ugwrr74fDxsvxUiyKZBRNl2eNrxR6qLX/kKjGweIiFmoUCROQs0pGKUhCVGI4evyenWEhSorC80PLu5nTSZqsmvOfk6RjUmI1ZehZhEiIprULaF0czDG971kda3zB1H7bVCvf7Zp2OUAzR07kB33o3EpDyCQ3m0rcSf8ThCW6cmudxVb1Zjo5QlJHDpOFuZVdfzPEUakcijPDYtZew2bGkpE2YmDiMoXnDZdqGpPI4MDeOiV52Pp510lAiyGRBRtgNcedaj1JmnHo2h8QlUlQ+4HqASZHZEJowH+zvIcpuiTgsZ7+/Ge+SxcBOERYTtWKiR2OixYtTYkLbGFy0MPJicf5+Dn/un9vsRApQdkmuNUdOdxlsiKd2cJPH9X92Ed376W3N+AS9+5iPU808+AqPjY4Cv4NApKdIpkdXsUvXzDB6Z1ZAEzUKh6R5qyj8WsjMl7oY0XZEkxSa/n5Pt0iy66LO2ICbPCovy1UDXaEtL2bLHUTmSJCM/6DYT1T0eZ5pThdBkSxyVwvJ81MhnDo9O4MxHH4W3Pv8UEWTbQUTZDvKWS1+Fhx+yHrxe4milbjLOJfPrKpceuQBSVMnGioqc5xfMataCIMwfU0Ujv+ZxLCzKeMznh2/4Jn5966Y5F2YXnP0CHLZ+NWq1GhISh9w1w+vIkn5BRAYgymMUZ7GGmSAsBmIKRjxev46cofF93NXNvpD/42EGjoOxaoNiF42HH7gWV15yQesvhZkQUbaDrC/a6iNXvgolXUGhUKBI0kYWZqBgAJqiRpcMsp1lyOOEAkwbiWxoLggLQluU/WMkwhvf/dHWu3PHset61cUvfBbcJIXtWmikMTwep1WPoQMXGTkh13TzCcLShVvHePmUnFfoN3VA8YR1INGmLqS5NluUdVt1fPyai7BnF3tJYXuIctgJDl07oD761kvghMOIc4rI/QDK96kM5sh4XAY38ZNA0ylFDZbMzhSE+YRbxczSDbxkAz2a5Rq4/rVazPpXrcF3f3kTrv7sf815a9nzTnu4et6pj8Ho2BBUF2+/lqPbKyGphPApaItkDUNhiWNZNnIKTJAm5O8UMqp7pMeMT7R817Sksa9kn3nQ6j4RZDuIiLKd5LRjDlZXv+YlCCsVpCpB7uaIHB7fksAiUcb7ZKpMm+ZcQRDmDxZf7S7MtkCbLMySyhh61+6Dqz90A371l9vmXJi98Zwz8YC912CsPgK36FGd1/C1ZWY/5r6YVmFpY+cUDJGvC3wPtuuYqS+xq4xPTFWELI5w7UXn4tSjDhRBthOI5dgFXvrER6jXvPB0xJVhjI9toVwkR+BQZJBm5AzIQejMbCUnCML80RZg0y3PwOtvWTpHRXu47N2fwETUUnBzxLqVSl3xynNgV0cRhlXEJMYCsgNZRAGZTPQRljg8LYR9Ha9nl2RUD12fnJ+NifERpLUhXHDmM3DOEl9wez4QUbaLXHvOE9WzHnkiBniUYxzDsz0yyhpZytF7RmVTBvoLwnzCLWNMu8Ws3VrG8GOhqxuNymasXtmHH930T7z1418xn80lzzzucHXBU5+KeGIUqq+A8SREwSPnFPJ65oKwdNEW9wY1g6IkzckHuuQLUww6Cs9+1Im45sVPEEG2C4gomwXvuuwVeOC++0FFMZVNHtvimC5Mng6c0X+CIMwf7bFkk2Fx1qaapuguOYjDcRT6V+EDX/o2vvuHf815N+a7XnOWOnCv9RgOJ2D1NFcvD3i5CUFYwrCP0yTAuOuSfR/7QDRiHLXf/vjE5ReKINtFxHLMggFfqfdddTGO2G89GiMbqIDmGIeN3PbgRRXKXZsKrIc0p+KbZc1IniILXpCRH4XOxrGLUNpBIY8Q8qKqS5xUFeFYCcYDwMvsfxM8U8lSBcctwk1D1DO/9e7cYOet/RVbwoufm/pDqS282u/xMczk1jJ+7lBclKQ20iRHQEF8lDu49D2fxJZkknKbI975unPQXRmHihUSp4CYbMBM8DmGtg8nrZtB0nNJmJZh282N3Nt51c6XNpOfC8K2MD3wrXXHeFFmnszCG4tbjkuvHfhxlXxdAaNZQI9Unkc34MgDV+O6t1zS/AJhlxBRNksOXFFSH7jsXKxf2UcF2EORCq+XJsicshFivJaRSwWYpwYzOfRWgSZ0NiEvpapr5PQjBN6c+/GOo8DWoDFB5Tem59u/Xu3lqIajJCpiFOc4f8yCpbOEgyGb6h7XtUa1hlKpiH/863Zc8bYPto6YOx5z5APUq19wBhobboevQiir3vpkekoUnDlZZPahnAtGwlFzE3wyNXFYM+8Jwq7Cgp4DH37kxD6Ml5rhbZPYh2UOB2QNFM0Kyg7WrejCBy57KQ5YEYhzmwUiyuaAow/YS33kytfBqY0jD0MSXg7yzEKh4KNUaIoxFmdcsH2vYBaZFDofZbl0LxVyeqyES3+Jg6F6iqDYQ4YYqNa379RtNzADfHlpmMYcZ4/n3dcy2W7tmcyOBDW8WXmapiiSM/Hd5velJNK+9j8/wxd++qc5U5FJo2q+67yzn45HnXQS6o0qd+yYz2YijBNYtosELkbSbVzkTuK7zckFYb2B/mDOLk9YpnADAvuqgleEpnpeq1RJMCiUiwUKUsk2kp1g+6ijiHzfMD7ylotw1P57inebJZKBc8jX//cP+rkXvR1e/xqoJCSj2zCrGptNfInmvnGkhC3LJI5ChM5F5T5c30NlYhTHHn4A9l7Tg5Tua073LibzRJ+2jlycuEmOSIWm+6yoHdRyF/9z082opxa9ZqNbbR25bSxFAQblQ56GOHCv1dh/3Qp6t50/JBLov5nIeO9F2zaiix95kgzDzyuVCv73pn9ujdKZnW1dVraHqF4hJ+Ib51GpR+ju7kbaqGDNYA+OOPig1pG7Rq4iWEmMbhKnlXqC4sBa3HzbPfjzLbcgs3L4+czCSAc9qI8P4/B998AR+++NsDJCQZuHjC4zTjJYFMDNRGrnKKS2sSUNyndoEtVp6z7+4SayQc0uTGmVF3aJVrc6CzL2VVwvOfGYSd4HtUDBjnYCxKMb8Lm3XYSnHH+MFLQ5QDJxjvnYd36hX/Gm98Eu96GbnEG12nRsXV1dptk3oqiiXC6bgi3GsrPRpCxsigjZAKUkILKMksVigu4bOU+bHOdihmMEi3STjuokn2ykZA6c7h4SMHR59I+rZg4a8qiZP7xoZBSHSEmccWSdcRDCG2JvJ3tYbLGgmNoSxl2OXD/6ukj0zUKUwXKhSKhkvLk2nVNKake5HnJ6r9FobBWB07G93+PZZo36BAl3Eue2haRSg1PqRg/V9QY99wszj0MMKY90SnaAF5qlFIYhXC+g+2AbYWtPyZepZDqje2TTjdBI6K98Oo+8QXfRD+B298PhPUGnEWX83tR8F4TJ8Bgy7rKsTlRMtyXvZNMgH8Zlh59z70FWHcX73vhKvPi0h+5k5RSmQzJyHnjHF76pL73+qygWXBTLJVQrzT74YrFoIg7TYkZRiNlXWehYXD9HGrN4brbisFjw3CIaUUyazINKZ25J6nTGESAg3eBaOXSSkvDM4ZDI4tZAbmUhhdE6ctvwskScP+zcFQlV1/FgUeTMXYZ5Qt/lbH+sFBv49riVtnhoPyZw/k2UcdpRMcGCj49vj+Hke1YPI8RpjnJ3F+xwonVkk6nf2z6P6QhTD07BRyON6NgM5WKArNaAosCrRMJofDsN4SpvmHOiyycxa1Pee4hJYEVxbiYIBcl2Wip5bcSQfo/zzlFmaATnPQd+PBA7V83xdNtiZ/JRWJ5wgMVlxLGak35YkLE4K5VInFVrqIYZrj7vGXjNGY+buaIIO4Vk5jxxyfs/r9/+mW+YVrFCqYh6jaJgKtAcsY9Xqs1ulDhqHS10IomK4CqLjBKJAZBYIWHGrWYeOdCC66DCrRSLGIfEGLfQcIsMbxVGspNiBQVb5fAsjUY+c0tPavHfkvhqLZSac78bxRvc8uNTOa/uwAxEhg0/p/brdleJlTfX+mqLB/588t9sj1wnplXTtt3m3+YszugectcgbwVDomWm79neb9jcVEhlwC8EVL8rVFZI6OQx0kxTve9Gg/eZmYFA0fmR5+NxeZrKGYtInt3G52q6czFz/vE2N3SWUHSveIYpi2pSanQ/NAL+roTF4n0mfmo+7kgeCssXx/MxMTGB7nLJBDYpBWpFCjxYkHGvz6uf/yRc+4rn3FfAhDlBMnQeee57vq5vuOEG03Xp+QWMjY2ht7+PjCUVcIpobcn9jiZTPjyHIsRa1QxmJ0WNKIlRLjgUNVbIqS72/U25i4ycOZVFq1BCqh0qk7yuVx2WTRJtO92XqQ6awk5zK1sGbZOIs0lckJhyeKd+7uudgbYw4Me2EGO465KDl5xDdWKqmGB2RFBYJBpBgixOLLqPDpKwhmJA4pp+K6ZrbovJyUz+3vZvTUfm5LA0iacYJJ8oL0nwZY6F2CPBnqToJbE1I9o1XUQmz0hEkao1KXBsRHQPVGtywnSwHeHJRGlK4pUEsUVONCNxl/J10v2Lp5TPqfm4I3koLF94HCaXE54kMz4+jv6+PoRkC3m85xlnnIFPX/hk8WDzgGTqPPPsN39Uf/FrP8Kq9QOwkxBx1IBb6MVoVkRBV4wzYoxRJvg1PzeRMndzCoIgCMIc0/YxbZ/DTPZHodWNbpCPiitwXB+5V8CmDeM440kn4gtvfLFoh3lCMnY3cOabrtef/s7vsGqgCJU0UM0ciqyp8Dvu1mh1cqWYHNEKgiAIwlwz2c9MFWWmNTVL0cg0ut0cme1jy3AdZz7uQfj05eeJY5pHFvegmEVAElb0qSc8CL+/6Wb88fYRwC+iz6NCnkRmllWbqUKMX4soEwRBEOYD9jEsxtjP8PO2IGP4Oa+g11VwUbNKGJkIcdqx++Ar175WnNI8Ixm8G3nEK67WP77xVqzodmHpGFHWnB3VrhD8nCsJJ36PkyAIgiDMNexvOLHv4TRVpHlWYsaZjjSAkw7fCz+5/lLRC7sByeTdSDWO9ePPezN+8ueNGOwNTEWY3GzMieFKIQiCIAjzTTv4bzcIMOyLeMzZltEGTjlyHX7wwSvEKe0mJKN3MxtGx/WzXn0VfvavMXT7zS7KdmXgytGOWNpRjCAIgiDMNexn2r6G/Q8/thsH+P2J1MGJ+3bja++7HAOlgjij3URTFgu7jTV9PeoL174GDzlwVXPaP1UAXgKAHyeLsHbEIgiCIAhzzWQf0xZkbV/EvunYvfvwmbdeIIJsNyOZvUBs2nyPfugr32+2YeIVuLmpmBOvGcVRCj/nR0EQBEGYa1iItXe7YBHGzzn5vm8WPf/19edjxeAa0Qi7GWmOWSBWrdxD/e4Dr8Ye/T4mIgu2X4RGBQ4asJWHGgIoXszT5o2hc7NfH6/cnausuf2FVBVBEARhOizbLE6c8Tx/R5F/aS5ablnNRaIbeQBXu3BVSAqtCuUXMBHb2HuwiBvf/2oRZAuEiLIFpH9ghfr2O9+Exxy5CkPjI0jjLrhOAbGuoI8qEa+SzttZcBTDG8OalrP8/lOXBUEQBGEq3OrFvsPjPVLj2PS+8EbicRyiEYXodxVCVIzPYd8zQj7oseSL/pt8Us+KFSLIFgjJ+A5guNbQz3r12/Cjv9yN7p4y3LiCKK6h0LXaCLE8T1FvVM3emSzOwkYsY84EQRCEaXEcD2FYNz6De1qMMLNc4zv4vfroBvh+CYnXjdFKFY88aC2+/J7Xob8YiC5YQCTzO4iTz32j/uFN92BlXx+0GkFlQpv+fRZj7f5+mypUW5DlMuZMEARB2AY6401jrOYAftNtacHzHbN5PffAdPdYULofm8fGcMoRe+AHH3yz6IEOQJpbOogffuhK9aQHH4TN45uQ5N3o6e0yFYojHI5sHNs2s2PaIk0QBEEQtkWaxeQzPOMzLKWMD+FJZdxqxr4l1T3G1zyZfI4Iss5BbkQHcuab3q8//Z3fo79kIygVUas1jAgrFbuQUYXiwZqTl88QBEEQhMlwy1gUNYP4gh+gVq+QQIvMzEqdpdgykeLMU4/Cpy9/hTiTDkJayjoQriTnPOUENOo1NCpVFKlCWao5ZVkpG/WwAcdzW0cLgiAIwv3hGfo5tGkhazQaSOIM/T29yOMY46MjeNFTjxdB1oHIDelgXnr9t/WnPvtZFAtlFEplDI+OotzbbaIdbSnYMglTEARB2AYZN7lkMC1lYbWO/t5eVCujJNDqOPuFL8D1L3ms+P8ORG5Kh3P1576m3/zRr5EIK6ObxwTEE7AdwM8VqnbBNHXaileg0fSfBZ2RUssaKDo2Ym03v0QQBEFYUngqQz0l1UV+QNkWOfMcNv2baX4GlMkPRLy2ZabguV2YCEPyDRVc/pKn4fXPfar4/g5Fbswi4Pqv/VBfet3HkDq9cDIbvmuhihpKTgFhowaPBBgvFBhGCbyggILvmSU0FFVRQRAEYenBoTj3ojSiGHHYQOC7IAWGmIRaUCihljbQpcqIkhypncGKR3D1BefgvKeeLH6/g5Gbs0j43E9/rc+/4v3IVC9FRym8Hg9WZQx9fX2YGBs1CwOWuroxVq0iyy1Yjgdbp62/FgRBEJYSmXKQp7z2WI7echm1yoQZd9zd24fR0VHkXb1IJhIUHYd8wRjee/l5eO6JDxaf3+HIDVpE/Oimu/TzLrkCQ7GFcrEbVh5jfHwcPd1lZEnMnZdw/QBjlTr8rh6oJGr9pSAIgrCU0K6PqDKO3q4ikihEzn0jrofxiSp6enqQWx5qjQoGvRyfueZyPPKI9eLvFwFykxYZv719g37ZFe/A7/50B3rXrEemNaIkQWABVhZB6RxuoYR6msOW7ZgEQRCWJJlloehYSBo1aGUht32EZPJ914WtFMY23IVjj9gbH7zitThmr9Xi6xcJsiTGIuPYvdeo//eON+OkhxyMyua74NEd5O7K3PHgF4qm+ZrXoFG5rPYvCIKwVGEbz7aebT7bfvYB7AvYJ7BvYB9xw9vfJIJskSE3a5EyorV+5Ruuxbd/+nuorlVISV/H1XEM9HahUqtDeSVYedI6WhAEQVhK5JYLHdfQVSpieKwCr9wDh1cmq2zC4048Gu97yyXol1XGFx1ywxY5l3zws/q9n/4WrFI/ekoBahOjcIMSYthwRJQJgiAsSVISZR4yJGENpe4+jNdC5LURXHDmE3Hty54nvn2RIjduCfCub/xS/8d7PoIkV+jrLSOs16EpQNIUN3legDhN4TgOdJaYCQEF10ESx9CO7AogCILQiag0get5aCSpGcCvbNdsseeRLY/jEJaZXa9RKBQxOlaFZ2lc8aqX4NVPPk78+iJGbt4SYCLN9U//8E+8/PJ34K7RBlasWoOkUTWb0JoNzKli8+a0eQb4vg+tNdVljZwfBUEQhI6D7TcocQ8kbyRu2WhuME4BNa/Sz/bbL5SxeeMG7NlXwPvf/Fo84UEHiU9f5MgNXEL8Y6iuX3DRW/HL3/0N/XvuBTsnIZanlDKzjhnVcqrcsRkM6vsFQLo3BUEQOhPLJXvdMOuQ+b5H9lqbQf0WqTPLcpBZHkbuvAPHHXMwPvX2y3DgYFH8+RJAbuISImxUdN0q48KrP4JP/9dP0d3fC60zk1zHoopsNWdnwjIbm/PyGYIgCELnwctcsO022ydRUJ3nOZI0b9puShMjYzjzCSfiPa9/CcpZFV6xS/z5EkBu4hLlig/eoK/94vfheLbpssyyBHEco1gK4NoOJsbG4XpB62hBEAShk0jiEN29PUiyFPVaCM/zSJxx61mENM5wybMfhStedrr48CWG3NAlzId/+Df9hivejEi5KPX2Y7RaReA6aFQrGOzvQz2SbZgEQRA6kaLvYGhkFIVyF8IkRR9vpTQ2Al8neMsV/4GXnnyw+O8liNzUJc4v/nanvuSt78H//e0O9KxejyjJzCydPAmhLZl9KQiC0ImoPIHlBohzBd+1Mb7xLjzk4L1w7WUX4mEH7ym+e4kiN3YZcFsl15e8/SP40nd/hp6BFchIkHm2JbMvBUEQOhSefRlnOWwSZuPDW/DMU0/AtRe9BPt0WeK3lzByc5cR7/rU1/WV138ScddKqK4+lOubECoPiRWYvdKspA7fVlCuj/F6gsCR4iEIgjAfcAtYV2Ajj0OzI0vuFhAlKdw8BD1DvbAGeWUUfn0IbzzvLLzqzCeLQV4GyE1eZnzpF3/Vl177Hvxr4xB61xwIFVfhIyFjENO/HrTtQicNdHk2oly2RhUEQZgPfCtHJc4oCA7MlnguSTOeJR9plz7sQWXDP7HP6gFcfcmFeMbDHiC+epkgXneZ8Uyq3N/8+Hvx9IcfgtENm8wK0UzGq0bbtlmU0AKvgyNFQxAEYb7gRWEtqKbNtRykcQJLOchzkG3egKeRjf7WJ64TQbbMkJu9jHnzZ76tr33/x5AXB9Hd34/qyDC6iz5qUWw2u3WVrGMmCIIwH0QZ4FopSr6PsUod5f4VqI6NwKqP4KKXvwiXn/l48c/LELnpy5xv/PJm/aqrP4g7RkOsXLkSo1s2oVQqQGtlFi4UBEEQ5gMLjmOhVmtQUDyIzZs3Y5+BIt79+pfhSQ89VHzzMkVuvIBbh2r6FW9+L779yz+jf489EY0PoctNEKlC6whBEARhLvHyOmqZC79nEMN334HTHnoIPnDFa1iYiV9exsjNF7Zy1ee+q6++/uOwgzKKhQCNVLovBUEQ5oOCY6EeNpA1anj9eWfh0ueeJv5YEFEm3J+f/OkWfcHb/hM33jaEvpLdelcQBEGYS0ZrGY7YuxfvvfhsPPKIg8QXCwYpCMK/sWGsod97/Qdxzbf/jHLBQmBrgGcHaRdJBnhWDkuliGDDVRZs5dD7MaI0ge/QexYVrCRGavutbxQEQVhaOFkE7XpIcpDty8j2uXBtD5lOkegcLq/Ib/OK/BYsZHBUQrZSI8wUJmopLn3C4XjZOWdj/aBsJC7chxQGYVo+9+M/6ms/9AncdNtGdA+sgp0kZFhIlZHwqqU5fN6uiYyRyjXcwIfjuajVQ7O8RqlYRNJabkMQBGGp4ToO2bs6bNchexeYJS2SkISapSiGtZFSsOrmKVSWQzn0OR3//7d35kF2VXUe/9717a+7k+6sJIQsTUjCHgwaQgCR4ChbIQ4io6OOWpQLU+VM8c84Vdb84zKWM2Wh4lilw0QGxUwERGUnhrCGJEgIoclG0tm6O+nu12+5725nfr9z3wtN2CGddDq/D5zc7dz7+nX/zvl9z++ce87Avm4smDkZ//KNr+D6JQvE/wpvQIxCeFs27htU//qTO3DvQ2uQy+WQpsqmHoUITRtWFCCTcoE4gud5oKoHlpuBYXHkTMGiFqMgCMJYJGLRZRlQVB9Gfg0mFNLpNGBaqPG0Qrar60iXj6mhWqvVcNVlS/Cdmz6D+ROL4nuFN0UMQ3hX3HbfavX9n/8Gu3oryOZTcK0Y9dhFGPqwLQWXWoE862EYK73QeaAAl2SaIAjCWMQnGeaQB+WFw21ejtI04YfUYI0M2CTIXKOOCA4qQx4mt6Vwy1evx01XLBWfK7wtYiDCu2Zdd0l99ye34/7Hn4JH4is/bhpq1EI0zJhagwaMIIBFJqUsEx61EHltAEEQhLFIQI3OtOXo7skI1Bh1HPjcKI1NZNwMvNJePbb2ssWL8O2bv4Szp8rYMeGdESMR3jO33v2E+tHyldiydQfap52EIa+OerWKjmILrCii4zLyrQX4Nem+FARhbOJmbJQHhlBI5xFZFnpLg0hls3ScQt+ubnTOmYlvfuZKfP3qxeJnhXeNGIvwvli/p6y+/6Of4pG161AybIybMAWl3hLg+8i25FAOKnDpP0EQhLGIT//lnRyqgxVSaC6KHUUc7NmDogpxycJz8K1vfgULp7WIjxXeE2Iwwgfip/c9pn7wqzuxbWcf2sefBFsZKNUG4RbSMHzVyCUIgjC2UK4Bf8hDMdOC0FDoO9CNmdPb8c9/fz1u+sRF4luF94UYjvCB2by/rv799pVYfvf91HY00DG+FbVqCWbsI7DSgJOBS+dtrwyLp9RwsxiIFDI8DkO9XrgZhpikIAhHlzerh6p0qs02Ab+KSFkI03kEXD0FNTiRh8hwkMkW0XtggOo3hRuvWoZ/+tw1mDsxJZWY8L4R4xGOGPc9vVF977blWP3XV1CYNB25IEWVGVVoVg1DgQfDziDl5oBqTU9IG8B8nQjjirFZOYo4EwRhpBle3xxeFzmI9USvyGZQ9ysACbGCk4YVZahxmUXZ9jC0byeWnDEHt3z1Rnxikcw7JnxwxIiEI8quUk394veP4tb/vgt9QRp5F1S5echlsqj5BrwgQjpHlZw3CJtamsMrQxFlgiAcTd5MlDXroVAFSKVb4FWoEelYyLgKlVqVGpNplAMD7XYNX/v8dfiHqy/GtGJGKizhiCCGJIwIa7d2q1t++ks8u3Er6oGDrJVBOuLYWIwyrwBQbENYG2zkThAhJgjCsaIp0JrYmRYEpX7kTYNqLROe5aAa1ZByApy3YBa+d9MXsHDWSVJpCUcUMShhRPn1g0+pb//XHdjW3Y/CuHGw64Ge1yeOATNt6oow5gPCNJPuzMMrR0EQhJGiWeccXg/FHkkxk8SaZSJMORg6eBAzT2rDv335Bnz2Y+eL7xRGBDEsYcTpLUfqx7/9I354+0pUQoW2jjzMsEziLKcrwqYIG959IAiCcDQ4vN7hYxZmyqogtvPo7y0jZxv41ueuwdev+zgmFOhAEEYIMS7hqPFcV6/64fIVuOeJ1SiHHor2eF35cWK4UuTElSInEWeCIIwUzTpmeJ3DcEORUyk8gLydxpUfWYJv3Xgtzu3sEH8pjDhiZMJR586HN6v/+PU9WNe1Ea7r6sQVYhRFujJkkWZZ1qHuBEEQhCMN1zOH1zks0Hzf1+ncU0/HzTdcges/Olf8pHDUEGMTjhk/uPsp9Yvbl+Pl7a+ifep0BJGBsFZHnkSaGUc4aAGOZeo5gBBGMLRG46iaCWXYlAI+caiFy0h0TRBOPN6sDlCRBdtUJLg4+hUiVFEyPswk8WWYaAsVPKpXPBJlqXyW8tfRv7cb8ztn43PXfxq3XPMR8Y/CUUeMTjimdPfV1M/+70H8fMUfcTBQyBXyiLwyHDNCKrLhRyFinjrDsWjLFW6kK1kYCoaeyVEQBOGNGCkDURgjirh70qI6hVp5dGzEPixyfXUr1HMnxlYKpYFBTM6n8aWrl+HLV12CkyfmpXIRjglieMKo4KnNu9Vtd67EykefxEBoIt8xAemqh1QqhZpfQxAEcDIO1akxPL8O27aRgtO4+41wy1miZoIwdnmnMu4pX3dPZlJpWJQ3qFEd4jjIuBl4nodaJoX64ADyqo6rli7CNz9/PRbOnig+UTimiAEKo4rHN3arW5f/Hnc/+jiqhTa4Jkh8BUibBlKWjXoQI1QW3EwOfr3cuOuNiCgThLHNO5Vx28kirNfgWgopx0Qt8FGLYtSpMRcoA/nKID6++EP4xy9ch8Xzp4ovFEYFYojCqGTVE8+ob//2YazfsFGPNWtta8fQUEVXxC25PCqVIRiO3cj9RkSUCcLY5p3KuBmTGEtlcLA0qAfyt7W1YHDgAAwV4IzTT8N3P3s5lpy/UHygMKoQgxRGNb976Fn14zvuxepNO+AUWpHLu1DeABBUoMwWnYcrZ0EQBKYp1ExVQmxlYKRbUa0ECMuDWDJvBr5xwxW49qMixoTRiRimcFxwx6qN6oc//xXWbe5CoW0cMrksvGqkBVkzNeFKmZOINUEYuzTL+JuVfU5OCvC9OqqlQZzVORs3f/FG/N0lZ0qlIIxqxECF44pf3v+M+s//+RM2vLIHxUJSKXPXhIgyQTixaJbxw8s+zzvG21LZxNlzpuAbn12GL16+SCoD4bhADFU47ugpldWq1X/Bd+55ATu3b0N1aBDjigX9RmbNCxDDhp3KAHENsTKgLBe0QRxGsFSop9swIh++kXlT4dY8xxW7IAgjA5czLmPNcja83HFKwdNlN4gtRIYN07Z4Jhxddk3aiSkHogAmqEzbBsIwRKlaQyZfxNTpJ+M7V5+JpUsuxISiTG8hHD+IsQrHNXfd/4T62YqHsOrFHQhTWbQUs7DiMsLyQdhWvpGL6m6u+E0TjpslgWbB8324iBpXEw4XYW8m2ARBOLI0yx1HvJvwOZ5NLM2rfagIgV/lGWD11BZNorgCK9eGyMxjsFSFXa/iwnkn46ZPfQzXLZOJX4XjEzFcYUyw4slN6tbld+HJ5zcjdlNwszm4RhqhX4NtxEjbJvwwQrUeUus7BZPyOJHXuPs1hgszEWWCMPJwmWuWtWb0jAmsNGK/DiOqI5uy4drUmAp5ShwTtpshMRbo8WJG3cOScxfgazdeh2sWyZJIwvGNGLAwpnh4/Svqtt8+gPv+sg5VquDTGRcpx0UU+NTSDpDLpvVs3tVKGTwSuOkA2BkMdwjD9wVBOPJwGWuub8v7DJc5Tro8hj6yuTwiKFSq1IAyHVhUlutUlr2ajzzluXzxmfjqpy/Dped0ii8TxgRiyMKYZNO2/eo/fvcnPPbE0+jasQ/Z9snIF1pQKZeoCV5DSzqFupEsSMw0XxYY7iRElAnCyDG8vDW7Locfp0mMDXp1ajxlkMsXUR4aRLVvLzpnTMJFH1mEm6+9HPNnTRIfJowpxKCFMU3X7v1qxSNP4Y57V+GFLTuRyrehtbVVDwo2EGhRxuJruCjjpFvqlARBGDmaDR/LsvS2Kcr4WMHRL+8MDAygXu7H6bOn44YrluLaS85H51RZDkkYm4hhCycE+z2l7nl4De6850Gse2kbKn6MQlurXlOTHQNX/k1R1hRpgiCMHMMjZVqEUbnTjSU6z+VxqH8AOdfEOafNxPVXfgxXfnQxJqalpSSMbcTAhROOlU9vVvc+tBorHlurnQDDTqDpGBh2DM19QRCOPMNFWXO/WR65LH7q4vNwxaVLZPC+cEIhxi6csHTt7lUrH1yNXz+wBi/sGdBvZWZsFzkVIKNiRKYDL/ARUSmx0y6VllAvcGzGEVwbCM22JLIWJY6Eo2uclGo4GzPpGmXY6STXkoHMfF2iccJopmmjbLtN0TTcnhFbjeuJPWub52uWrc/bcT98KhqxaSXzBioboefDokekHRdWHKBC+xXDQT0O9VuW8ycVceOyC3DtsqWYM6Vd/JNwwiFGL5zw9JVi9cjT63HXA6uw6q8vocfzgJSLlshDKpODInFWJe8SRybSbhoOHUdBiHo0+FqEjZxUFClEJOboBu207IaTYkfWdGzN4+Y5QRitvJPdho1GBgyeP8ykckB56ZjHaXLEK2W1wHJsBCS+PN+DacXIUmvGoON6rYJBJwvUPExIp3HRmfNw3WVLcfGHzkJ70ZSCIZywiPELwjCe39mn/vf+v+DeR1bjxf4DMEIDeeUib6ZAUgsetehr1NQPTaCFtzE5oCDWKwaYpsX/0FOSCBj5IM1wR8bbw52bIIxGmjbatNnh5xhqozQgQ9eRskjPuG87JmwqC4MRN0yADG3Tpk25FMpxHWXDh7IVFoxrxycvvgCfWXYhzpwuUTFBYKQgCMJb8JtVW9UDq1bhT4+vwp5SCalCAWk3A1uZcEh4+V6ku2l4+RdGT69Bjom1mUP/1BqOTBDGIhkSZwHZO/1P7RBLR4wZXs6MuzLdtAVe9Cw0Ynh+DfWhIUwpFvHxC5bisqVL8bdLZ4n/EYTDkEIhCO/A9r6S+sOTa7HiodVY9+J2VCoKjpNDW2tRd9NwSqIHMUzFg2hImNF+0HBSgjAWcagRQhavBVls2HQm6c7kLn1O/QMlBEEFuZyBc+afgmsvXYJPfnghTmkvit8RhLdACocgvAeee7lfrVy1GvevWYMNL++AIuHl8DizTF5HCqIogOJBy4aCGSVdP2/V/SMIxwPDbbZpy5xii7dk3yaPq3R0pDiolRH4HgzaP+vUGVi2eDGuWboE557aJkYvCO8CKSiC8D65b8Mr6smn1+LPj63Bpu3d8GAjky/C4TfNeKxyPYmgNR1a05mJKBOOJ5o2e7gdI2UDsUJQr6FWLiGNEPNOOQmXX7QYH160EJ84a44YuiC8R6TQCMIHZF8pUM917cKfV6/FY0+vw/buffDCCLlCtjFlQOLQ3jClgCCMcobbK9tyU5CxLVeGqkjbFk45aRIuWnQOLl+yEOd2TsOkoiPGLQjvEyk8gnAEGfAC9fTa9Vjz1LNYvm4benoHUK6EcFNZpNNZOAZPmREiCj3kzAhBGCM2HSju/tFvayZzncUx5TEab3GyQ6SiakQhFGXiBdVty0LoAEFQ107Ssvg+C7Fi8UcfQfeaSNb1FMYm2hIUzyXGgVkWShEisg8WUI6TguWToKJ9XtCbp2phe+KXUiKyF+5qdE1uLJDNsMHw0+g5RhTAjAM4tokayMAMsk36nJCS51UReBXkCy4mTRyHG86agcXnn4dFC89Ga1qEmCAcCaQgCcIIMBgq1WIbxuNrX1b3PvEMHtmwERtf7UatSg4vXUAum0U9TKIP+q01FmFhXYs2hxxsFPqw3AI5RLpETjMit8hzoRlW4mT55YKMSpNTbXQtmUn0QsVcpF8TdsLYxeRpJhqCiv/+OpJFf/8kmmWgbvk6n60FOikutg8yCc7nOg4JrEFYtkuWZcKn+2wnTRdtLdj4ubYRolqrIQyqKBbSOH3GNFy4YC7+ZtG5WHLeXKNp4/pDBEE4IkiBEoSjxPNbe9Wja/+KB558Bs+99BL2l01ypiZSKRcOOUmlIh2tcEijcUSsGg7q87bh6mkHlCLXSvsc3eA5avU/5Iz5PnakfE8i8hwRZScATVHGL5fw1iDjYYHP9gESWYaOnHK0lEVbROdjOg4RqkSspYy8viekvByl5ft4LVjfT543KR/jzDlzcOmihVh6zgLMPXkSCllqFQiCMGJIAROEY8DBvpr6w4aNeHbdeqx5dj127O3FEEfOUjnylhkoElUTueuJhFfQWCkgUlRcydHySwSsyXS3Jnc50ZajI/qNTyrSLNBCcq6WzdMUCGOVKAxhk2hnIcYTs+o3IRu2QJqK7CYigc9dnJQ38Mk2Yri2Q4mjZgo99AyTo2peFXG9grwVY8bkDiw+72ycd87Z+ORZCzC+Iys+QhCOIlLgBOEYM1CL1KZXd2PVM89jzYZN2Lx9N3oGSihVU6TBTGRzKeRSNssthH6VtjyGzEA1SIpv4pCT7it20BzLMMk5h+SUhbELjyuM6e9Omv1Ql6MekN+o1tMWR8dIxBsmVGNsmBcq1Ko+wrqPYj7AhNYiTp0xBRecPR8XnncG5p08FW1ZW/yCIBwjpPAJwihjS09FbdrchT+//Aq2bNmGjZu60NMzQM7XRiqdT8b+WDayRj1xuLTPQbQw5K4snrhWHXLYwtilKbxJimkxbtskx3hsPy+Qr2J4RgaRX0cYeJRqZBcBxo8vYMG8Tsyd24nL5szCPNrOnpATPyAIowQpjIIwytnZd1Ct69qFx1/owrObt+KlnXvR0z+AgufpKAmpNKSyBb34M0dLuGuKHXbE+8KYxeJxgyy8zeSFEb1IfnWI1Hmgo6VDmQzaiwWcNn0yPrzgVFxweifOmDkZMybIOpOCMFqRwikIxxl79vapXbt2YcWmHry8ZQc2db2CvQcOwqsnA7Qdy9Zv1/F4I2HswuMGfUpBFGpRlk45mDx+HOZ1zsGps2fgqs5xmDlzJiZPGi/1vCAcJ0hhFYTjnMFSWXV178HzW1/FC9t2YsOW7di2ew+6B20oP3nTzrEdPdGnxdMjGEovmO4bgb7G1UAyjYIC+A3PRrUQWckboSz0OPJ26KWCxoLTthnpKA3fw+i4XGOfLsC0Uzqfjt4RPL+a7l8j9GB0w9fPG46hu1yTPKZK63v1Cwz84UQcBcm4KY4SvcOQOX4ngu/X4+3ouzDJcXK/MpM53vT3P+zn0PcoftO1cZ7u4alIGL5X3x/5lK/xQxh6FUiNopz8NcPY0vkM+r3r76uDmMl34bFeFn0XhscE8v38WcnnJZ+TggufBBe/Gcl56rTjB8nfEyS4p7VGmDl1Cs6afQpOnzkdZ846GZ0nTUFLMf/6LyMIwnGDFF5BGGOUfKUqdWAribRXtm/H+k2b9TJQuw70o7fsYbDOjp6FWZ5EGr80YMEl4eBo0UbigUQXT7PAY5O0gOB5OoiGtjokSip0n9ZYLCjoeSw8+LgpmgKv/1BeTlpwaHGSCCWofEOEJM/Qm0SPaEKHZBA/s5GF95siKLmvKYPeisbnECyCmp/Fp3jfDki1NeAxeckOia3GPTDKOh//7LSjz/PP3kxOuu3QOb6f86qGSOXjXGPwPSeGH8Pw1CX6HitZMzKZ0NVAQL93X//uKfGxquhuyKJrYUIhg+nt43DajKk4e95czDnlFMwiEZZL8fXGFxME4bhHCrMgnCDsrynV9WoPNm7eil179uHFnVtwoH8A3Xt7sf9gCbWQxIiVBlx+kcBBq+EnYspMXiSIqLrgqA1XGxxZsgJPX+exTRZHd3jeNMrQjBSZmTYtPrTIoMQChvPbNosRiwQIKcdhHBJDDZSfzLumxVQjkqQFUgN+5tvBn9FEiyB+fkN08bHhvl7U6c8Zhmun9GeEYZjk5+9Mz+TEP0dc60/EGH37ZDp8OkdJD77n7+2k6ffA34mEL13m3xH/XnjBer4+oFz6EgHge7T1kLENTBxXxEmTOzC+rRXzp8/GtCmTsGDuLHSePAETM4f9gIIgjDmkkAvCCYzneaqnfwi7egewdU8vunbsRdfO3ejtO4gtPb0o16ooV2sIWLDZDmwSbCzSuOrIJR2WGp4El4UKT2japBZWE6HTWM6HCUmMNAVS6rDah/NyasSVSMik9DHn1aKOBZA+TkQei7u3g8UUCyj+bH4GC6LkuPHMmEVh0u3Ix5yGU6dDzquFZEMM6khdIyqYtjL6OsMT9fL3oguHnlNJnqxFWMjCK+TliwzksxnkM1nMntCBjvZx6Jw+FZ0zJmPWlA5M62jFhLYC0um01M2CcAIiBV8QhDdQ98qqT+XQ10uCbfce7NyzF3v29WDP/l69HRgYQHctQr1eR9mrww9iRBwx0uKFxZLCuGagikWZ5ejVCbgrlJcC4vFZJi8dRUqLRQwLsSQKlnT9MSqs6C2v1chVFQug17pSOXKld98Svq0ZWeMuw0QsKfCku4xh55Kt1lCJWOTc+nPoZEzfg8fB8RJGfD/Pdq84skWijDnIQpWrUIOFGq9EGcF1TOTTKRZVmJo20draiimTJmDKxA69nT5lMqZNnYL2jgLajQpPcSJ1sCAIh5AKQRCE90ylHqpdA2WUykPo7evHngP96KHt/gMD6BsooVypYWd/HZVaDUNDZdpW9eLroaLEI/RJ0PCyiU1RdiiapkVUcq7VTQb6834zEscrHTAsnN5N92UixCg/PUc/i1Iz+jXge3qfhRqLqmYULLkOBHSOfkjYpqXXj+RFunOZLAqFPG0zmNbqopDPor21iInjWzGhvQ1Txrehg7bFfIGuU76UTMQqCMK7RyoMQRBGjP6hUHEX6FClitLQEAYoDZZItNU8bB2s60hbpVpDtVrV56peDV7Nh+/7KJNw4+tBEOm3FlmE1fwgEWMk4njqj7eDp4pgkcXiLOMmyxHxW6SOYyGVSiFPeomjd5lsCtk0dymmkcvlkMtm4LouZrVQHjrXUiyitVBAkVIhl9Vdj20FEVuCIBx5pGIRBGHUUqrWFc/FxdGrkIQZizYWZSywIt19+NZYpJuaeVl0JZE5pedwK2YPH9EmCIIgCIIgCIIgCIIgCIIgCMJoAPh/C5tObBlqxKYAAAAASUVORK5CYII=;" parent="1" vertex="1">
          <mxGeometry x="67.75" y="255" width="105.24" height="104.55" as="geometry" />
        </mxCell>
        <mxCell id="H21GpFEVwCO9OEEZ7Sbb-5" style="edgeStyle=orthogonalEdgeStyle;rounded=0;orthogonalLoop=1;jettySize=auto;html=1;exitX=1;exitY=0.5;exitDx=0;exitDy=0;strokeWidth=2;" edge="1" parent="1" target="1oM3fDYYuMg9m5w1nJq4-4">
          <mxGeometry relative="1" as="geometry">
            <mxPoint x="165.30999999999995" y="185.94499999999994" as="sourcePoint" />
          </mxGeometry>
        </mxCell>
        <mxCell id="H21GpFEVwCO9OEEZ7Sbb-7" value="" style="rounded=0;whiteSpace=wrap;html=1;fillColor=none;strokeWidth=2;" vertex="1" parent="1">
          <mxGeometry x="200" y="130" width="390" height="240" as="geometry" />
        </mxCell>
        <mxCell id="H21GpFEVwCO9OEEZ7Sbb-8" value="" style="shape=image;verticalLabelPosition=bottom;labelBackgroundColor=default;verticalAlign=top;aspect=fixed;imageAspect=0;image=https://upload.wikimedia.org/wikipedia/commons/thumb/6/64/Microsoft_Office_Project_%282013-2019%29.svg/2048px-Microsoft_Office_Project_%282013-2019%29.svg.png;" vertex="1" parent="1">
          <mxGeometry x="77.4" y="142.97" width="85.94" height="85.94" as="geometry" />
        </mxCell>
        <mxCell id="H21GpFEVwCO9OEEZ7Sbb-9" value="&lt;b&gt;&lt;font style=&quot;font-size: 37px&quot;&gt;Floor2Plan&lt;/font&gt;&lt;/b&gt;" style="text;html=1;strokeColor=none;fillColor=none;align=center;verticalAlign=middle;whiteSpace=wrap;rounded=0;" vertex="1" parent="1">
          <mxGeometry x="292" y="80" width="206" height="30" as="geometry" />
        </mxCell>
      </root>
    </mxGraphModel>
  </diagram>
</mxfile>
